<?xml version="1.0" encoding="UTF-8" standalone="no"?>
<svg
   width="64"
   height="64"
   version="1.1"
   id="svg6"
   sodipodi:docname="com.rtosta.zapzap.svg"
   xml:space="preserve"
   inkscape:version="1.4.2 (ebf0e940d0, 2025-05-08)"
   xmlns:inkscape="http://www.inkscape.org/namespaces/inkscape"
   xmlns:sodipodi="http://sodipodi.sourceforge.net/DTD/sodipodi-0.dtd"
   xmlns:xlink="http://www.w3.org/1999/xlink"
   xmlns="http://www.w3.org/2000/svg"
   xmlns:svg="http://www.w3.org/2000/svg"><defs
     id="defs6"><linearGradient
       id="linearGradient1"
       inkscape:collect="always"><stop
         style="stop-color:#00e250;stop-opacity:1;"
         offset="0"
         id="stop1" /><stop
         style="stop-color:#00e252;stop-opacity:1;"
         offset="1"
         id="stop2" /></linearGradient><filter
       style="color-interpolation-filters:sRGB;"
       inkscape:label="Drop Shadow"
       id="filter37"
       x="-0.033728683"
       y="-0.034352655"
       width="1.0674574"
       height="1.0782477"><feFlood
         result="flood"
         in="SourceGraphic"
         flood-opacity="0.498039"
         flood-color="rgb(0,0,0)"
         id="feFlood36" /><feGaussianBlur
         result="blur"
         in="SourceGraphic"
         stdDeviation="12.000000"
         id="feGaussianBlur36" /><feOffset
         result="offset"
         in="blur"
         dx="0.000000"
         dy="8.000000"
         id="feOffset36" /><feComposite
         result="comp1"
         operator="in"
         in="flood"
         in2="offset"
         id="feComposite36" /><feComposite
         result="comp2"
         operator="over"
         in="SourceGraphic"
         in2="comp1"
         id="feComposite37" /></filter><filter
       style="color-interpolation-filters:sRGB;"
       inkscape:label="Drop Shadow"
       id="filter53"
       x="-0.047733756"
       y="-0.047723642"
       width="1.0954675"
       height="1.1087039"><feFlood
         result="flood"
         in="SourceGraphic"
         flood-opacity="0.250980"
         flood-color="rgb(0,0,0)"
         id="feFlood52" /><feGaussianBlur
         result="blur"
         in="SourceGraphic"
         stdDeviation="12.000000"
         id="feGaussianBlur52" /><feOffset
         result="offset"
         in="blur"
         dx="0.000000"
         dy="8.000000"
         id="feOffset52" /><feComposite
         result="comp1"
         operator="in"
         in="flood"
         in2="offset"
         id="feComposite52" /><feComposite
         result="comp2"
         operator="over"
         in="SourceGraphic"
         in2="comp1"
         id="feComposite53" /></filter><linearGradient
       inkscape:collect="always"
       xlink:href="#linearGradient1"
       id="linearGradient4"
       x1="47"
       y1="35"
       x2="105"
       y2="35"
       gradientUnits="userSpaceOnUse" /></defs><sodipodi:namedview
     id="namedview6"
     pagecolor="#ffffff"
     bordercolor="#000000"
     borderopacity="0.25"
     inkscape:showpageshadow="2"
     inkscape:pageopacity="0.0"
     inkscape:pagecheckerboard="0"
     inkscape:deskcolor="#d1d1d1"
     inkscape:zoom="5.4137863"
     inkscape:cx="17.824863"
     inkscape:cy="30.847173"
     inkscape:window-width="1366"
     inkscape:window-height="697"
     inkscape:window-x="0"
     inkscape:window-y="0"
     inkscape:window-maximized="1"
     inkscape:current-layer="svg6" /><g
     id="g2"
     transform="matrix(1.0191545,0,0,1.0191545,-45.455739,-4.1799828)"><rect
       style="display:inline;opacity:0.2"
       width="58"
       height="58"
       x="47"
       y="7"
       rx="17.4"
       ry="17.4"
       id="rect1" /><rect
       style="fill:url(#linearGradient4)"
       width="58"
       height="58"
       x="47"
       y="6"
       rx="17.4"
       ry="17.4"
       id="rect2" /></g><path
     style="display:inline;fill:#ffffff;fill-opacity:1;stroke-width:1.18595"
     d="m 11.890744,49.338997 c 0.778794,-2.29744 1.6337,-4.82758 1.899788,-5.622534 l 0.483796,-1.445371 -0.45158,-0.815338 c -1.316474,-2.376914 -2.18782,-5.237102 -2.46724,-8.098706 -0.10707,-1.096476 -0.04351,-3.866436 0.112308,-4.895071 0.568992,-3.756158 2.018635,-7.077909 4.405593,-10.095097 0.682728,-0.862991 2.274641,-2.463245 3.124784,-3.141158 4.054617,-3.233193 8.904977,-4.857692 14.00898,-4.691933 2.538627,0.08245 4.668551,0.519953 7.004487,1.438789 3.777692,1.485947 6.863233,3.828968 9.291962,7.055888 2.159886,2.869726 3.440499,5.97828 3.987148,9.678375 0.184124,1.246282 0.184594,4.233222 8.4e-4,5.484997 -0.562449,3.831874 -2.022129,7.248102 -4.363971,10.213433 -0.765177,0.9689 -2.48772,2.686494 -3.39393,3.384177 -3.023005,2.327388 -6.099458,3.689102 -9.709927,4.297848 -4.334121,0.73076 -9.047737,0.03064 -12.941507,-1.922201 l -0.730629,-0.366434 -5.737702,1.820091 c -3.155737,1.001048 -5.783041,1.837487 -5.838452,1.85875 -0.06016,0.02309 0.469604,-1.643871 1.315243,-4.138505 z m 23.228893,-0.468229 c 3.035924,-0.484024 5.907741,-1.697114 8.201595,-3.464449 3.789325,-2.919539 6.167588,-7.263506 6.664041,-12.172035 0.12708,-1.256487 0.05443,-3.609779 -0.146627,-4.749808 -1.038129,-5.886267 -4.766194,-10.675395 -10.197114,-13.09938 -2.531399,-1.129839 -4.946192,-1.59506 -7.857368,-1.51376 -2.774205,0.07748 -4.78819,0.567101 -7.199072,1.750195 -5.379202,2.639737 -9.231094,8.182195 -9.893849,14.236179 -0.120267,1.098586 -0.04518,3.290787 0.150989,4.408249 0.434751,2.47652 1.346137,4.803904 2.64346,6.75054 l 0.490331,0.735741 -1.080908,3.256795 c -0.594501,1.791237 -1.073301,3.262962 -1.064001,3.270499 0.0092,0.0076 1.534548,-0.468044 3.38944,-1.056848 l 3.372532,-1.070551 0.704156,0.426017 c 2.136925,1.292852 4.775676,2.153367 7.449219,2.429246 0.680535,0.07022 3.659502,-0.02284 4.373176,-0.13663 z m 1.714529,-8.08273 c -1.504862,-0.244968 -3.336076,-0.834697 -4.830153,-1.555512 -2.884039,-1.3914 -5.560464,-3.893362 -7.881212,-7.367474 -1.173004,-1.755961 -1.735671,-2.989986 -1.939533,-4.253719 -0.115915,-0.718546 -0.05395,-2.300722 0.113661,-2.902092 0.531802,-1.908097 1.885897,-2.932769 3.875634,-2.932769 0.618349,0 0.631597,0.0039 0.866065,0.252471 0.173353,0.183808 0.495143,0.870908 1.183226,2.526471 0.781195,1.879596 0.937215,2.316125 0.899558,2.516857 -0.05148,0.274444 -0.428183,0.838555 -1.047338,1.568411 -0.435642,0.513531 -0.626018,0.865761 -0.626018,1.158247 0,0.211463 0.442349,0.97614 1.006105,1.739231 0.68733,0.930356 2.388272,2.57091 3.319594,3.201733 0.990112,0.670649 2.816116,1.56441 3.196173,1.56441 0.582986,0 1.28037,-0.609713 2.071604,-1.811191 0.228549,-0.34705 0.486977,-0.66923 0.574293,-0.715957 0.351707,-0.188232 0.81199,-0.02861 2.966315,1.028742 1.153844,0.566308 2.181288,1.098968 2.283202,1.183689 0.171566,0.142613 0.18488,0.199854 0.179537,0.771759 -0.01067,1.138034 -0.425012,2.246289 -1.084453,2.900373 -0.440224,0.436645 -1.208309,0.867462 -1.874638,1.051485 -0.625809,0.172829 -2.398935,0.213638 -3.251622,0.07484 z"
     id="path2-6"
     sodipodi:nodetypes="sscsssssssssssssscsssscssssssscscscscsscsssscscssssssssssscssss"
     inkscape:label="Icono" /></svg>
