<?xml version="1.0" encoding="UTF-8" standalone="no"?>
<svg
   width="64"
   height="64"
   version="1.1"
   id="svg6"
   sodipodi:docname="md.obsidian.Obsidian.svg"
   xml:space="preserve"
   inkscape:version="1.4.2 (ebf0e940d0, 2025-05-08)"
   xmlns:inkscape="http://www.inkscape.org/namespaces/inkscape"
   xmlns:sodipodi="http://sodipodi.sourceforge.net/DTD/sodipodi-0.dtd"
   xmlns:xlink="http://www.w3.org/1999/xlink"
   xmlns="http://www.w3.org/2000/svg"
   xmlns:svg="http://www.w3.org/2000/svg"><defs
     id="defs6"><linearGradient
       id="linearGradient50"
       inkscape:collect="always"><stop
         style="stop-color:#303030;stop-opacity:1;"
         offset="0"
         id="stop51" /><stop
         style="stop-color:#1c1c1c;stop-opacity:1;"
         offset="1"
         id="stop50" /></linearGradient><filter
       style="color-interpolation-filters:sRGB;"
       inkscape:label="Drop Shadow"
       id="filter37"
       x="-0.033728683"
       y="-0.034352655"
       width="1.0674574"
       height="1.0782477"><feFlood
         result="flood"
         in="SourceGraphic"
         flood-opacity="0.498039"
         flood-color="rgb(0,0,0)"
         id="feFlood36" /><feGaussianBlur
         result="blur"
         in="SourceGraphic"
         stdDeviation="12.000000"
         id="feGaussianBlur36" /><feOffset
         result="offset"
         in="blur"
         dx="0.000000"
         dy="8.000000"
         id="feOffset36" /><feComposite
         result="comp1"
         operator="in"
         in="flood"
         in2="offset"
         id="feComposite36" /><feComposite
         result="comp2"
         operator="over"
         in="SourceGraphic"
         in2="comp1"
         id="feComposite37" /></filter><filter
       style="color-interpolation-filters:sRGB;"
       inkscape:label="Drop Shadow"
       id="filter53"
       x="-0.047733756"
       y="-0.047723642"
       width="1.0954675"
       height="1.1087039"><feFlood
         result="flood"
         in="SourceGraphic"
         flood-opacity="0.250980"
         flood-color="rgb(0,0,0)"
         id="feFlood52" /><feGaussianBlur
         result="blur"
         in="SourceGraphic"
         stdDeviation="12.000000"
         id="feGaussianBlur52" /><feOffset
         result="offset"
         in="blur"
         dx="0.000000"
         dy="8.000000"
         id="feOffset52" /><feComposite
         result="comp1"
         operator="in"
         in="flood"
         in2="offset"
         id="feComposite52" /><feComposite
         result="comp2"
         operator="over"
         in="SourceGraphic"
         in2="comp1"
         id="feComposite53" /></filter><filter
       style="color-interpolation-filters:sRGB;"
       inkscape:label="Drop Shadow"
       id="filter37-6"
       x="-0.033728683"
       y="-0.034352655"
       width="1.0674574"
       height="1.0782477"><feFlood
         result="flood"
         in="SourceGraphic"
         flood-opacity="0.498039"
         flood-color="rgb(0,0,0)"
         id="feFlood36-2" /><feGaussianBlur
         result="blur"
         in="SourceGraphic"
         stdDeviation="12.000000"
         id="feGaussianBlur36-9" /><feOffset
         result="offset"
         in="blur"
         dx="0.000000"
         dy="8.000000"
         id="feOffset36-1" /><feComposite
         result="comp1"
         operator="in"
         in="flood"
         in2="offset"
         id="feComposite36-2" /><feComposite
         result="comp2"
         operator="over"
         in="SourceGraphic"
         in2="comp1"
         id="feComposite37-7" /></filter><filter
       style="color-interpolation-filters:sRGB;"
       inkscape:label="Drop Shadow"
       id="filter53-0"
       x="-0.047733756"
       y="-0.047723642"
       width="1.0954675"
       height="1.1087039"><feFlood
         result="flood"
         in="SourceGraphic"
         flood-opacity="0.250980"
         flood-color="rgb(0,0,0)"
         id="feFlood52-9" /><feGaussianBlur
         result="blur"
         in="SourceGraphic"
         stdDeviation="12.000000"
         id="feGaussianBlur52-3" /><feOffset
         result="offset"
         in="blur"
         dx="0.000000"
         dy="8.000000"
         id="feOffset52-6" /><feComposite
         result="comp1"
         operator="in"
         in="flood"
         in2="offset"
         id="feComposite52-0" /><feComposite
         result="comp2"
         operator="over"
         in="SourceGraphic"
         in2="comp1"
         id="feComposite53-6" /></filter><linearGradient
       inkscape:collect="always"
       xlink:href="#linearGradient50"
       id="linearGradient51"
       x1="61.5"
       y1="9.8852634"
       x2="90.5"
       y2="60.114738"
       gradientUnits="userSpaceOnUse" /></defs><sodipodi:namedview
     id="namedview6"
     pagecolor="#ffffff"
     bordercolor="#000000"
     borderopacity="0.25"
     inkscape:showpageshadow="2"
     inkscape:pageopacity="0.0"
     inkscape:pagecheckerboard="0"
     inkscape:deskcolor="#d1d1d1"
     inkscape:zoom="8"
     inkscape:cx="27.125"
     inkscape:cy="28.375"
     inkscape:window-width="1366"
     inkscape:window-height="697"
     inkscape:window-x="0"
     inkscape:window-y="0"
     inkscape:window-maximized="1"
     inkscape:current-layer="svg6" /><g
     id="g2"
     inkscape:label="Fondo"><rect
       style="display:none;opacity:0.2"
       width="58"
       height="58"
       x="47"
       y="7"
       rx="17.4"
       ry="17.4"
       id="rect1"
       inkscape:label="Sombra"
       transform="matrix(1.0191545,0,0,1.0191545,-45.455739,-4.1799828)" /><rect
       style="fill:url(#linearGradient51);fill-opacity:1"
       width="58"
       height="58"
       x="47"
       y="6"
       rx="17.4"
       ry="17.4"
       id="rect2"
       transform="matrix(1.0191545,0,0,1.0191545,-45.455739,-4.1799828)"
       inkscape:label="Fondo" /></g><g
     id="g1"
     transform="matrix(0.85813137,0,0,0.86838616,3.6254953,3.1936376)"
     inkscape:label="Icono"
     style="display:inline;opacity:1"><path
       style="opacity:0.2"
       d="M 33.76,5 C 32.52,5.002 31.702,5.376 31,5.9961 L 19.488,16.168 c -0.648,0.586 -1.074,1.375 -1.203,2.238 l -1.465,9.641 0.008,0.01 -0.01,-0.006 c -0.054,0.246 -0.136,0.488 -0.238,0.719 l -6.248,13.681 c -0.6338,1.406 -0.3443,3.06 0.734,4.16 l 9.928,10.129 c 0.309,0.317 0.668,0.576 1.081,0.774 0.413,0.197 0.878,0.32 1.359,0.355 0,0 2.72,-0.019 5.935,0.207 3.211,0.231 7.988,1.891 11.215,2.785 2.507,0.696 5.027,-1.32 5.375,-3.898 0.3,-2.219 0.893,-4.551 2.123,-6.801 l 5.654,-8.81 C 54.151,40.697 54.057,39.85 53.592,39.232 52.381,37.627 49.961,34.363 48.695,31.34 47.398,28.234 47.203,23.41 47.191,21.059 47.188,20.164 46.906,19.293 46.352,18.59 L 36.422,5.998 C 35.784,5.29 35,4.998 33.76,5 Z"
       id="path1" /><path
       style="fill:#b091f0"
       d="M 16.82,27.047 25,39 H 35 L 38,11 C 38,11 37.141,7.3501 36.422,4.9986 35.147,3.5825 32.404,3.7556 31,4.9958 L 19.488,15.168 c -0.648,0.586 -1.074,1.375 -1.203,2.238"
       id="path2" /><path
       style="fill:#8251e6"
       d="m 53.736,40.351 c 0.415,-0.655 0.32,-1.5 -0.145,-2.118 -1.211,-1.605 -3.63,-4.871 -4.896,-7.894 -1.297,-3.106 -1.492,-7.93 -1.504,-10.281 -0.003,-0.895 -0.285,-1.766 -0.839,-2.469 L 36.422,4.9986 c 0.715,2.3476 0.672,4.2305 0.23,5.9494 -0.41,1.594 -1.16,3.035 -1.949,4.563 -0.265,0.511 -0.535,1.031 -0.797,1.57 -1.051,2.145 -1.996,4.57 -2.136,7.828 -0.141,3.254 0.527,7.336 2.707,12.789 l 13.605,11.465"
       id="path3" /><path
       style="fill:#6135ba"
       d="m 40.584,59.861 c 2.507,0.696 5.027,-1.32 5.375,-3.898 0.3,-2.219 0.893,-4.55 2.123,-6.8 -2.824,-6.078 -6.242,-9.234 -9.984,-10.629 -3.965,-1.48 -8.297,-0.992 -12.688,0.074 l -3.353,17.895 c 0.426,0.207 0.896,0.332 1.377,0.367 0,0 2.72,-0.02 5.935,0.206 3.211,0.231 7.988,1.891 11.215,2.785 z"
       id="path4" /><path
       style="fill:#8a61d9"
       d="m 22.057,56.503 c 4.562,-9.262 4.433,-15.902 2.492,-20.637 -1.785,-4.359 -5.108,-7.112 -7.729,-8.819 -0.054,0.246 -0.138,0.491 -0.24,0.722 l -6.248,13.683 c -0.6338,1.406 -0.3447,3.06 0.734,4.16 l 9.928,10.129 c 0.309,0.317 0.668,0.574 1.063,0.762 z"
       id="path5" /><path
       style="opacity:0.2;fill:#ffffff"
       d="M 33.76,4 C 32.52,4.002 31.702,4.376 31,4.9961 L 19.488,15.168 c -0.648,0.586 -1.074,1.375 -1.203,2.238 l -1.493,9.766 c -0.028,0.125 -0.11,0.367 -0.212,0.598 l -6.248,13.681 c -0.292,0.649 -0.3804,1.35 -0.293,2.026 0.049,-0.349 0.144,-0.694 0.293,-1.026 L 16.58,28.77 c 0.102,-0.231 0.184,-0.473 0.238,-0.719 0.003,0.002 0.007,0.004 0.01,0.006 l -0.008,-0.01 1.465,-9.641 c 0.129,-0.863 0.555,-1.652 1.203,-2.238 L 31,5.9961 C 31.702,5.376 32.52,5.002 33.76,5 35,4.998 35.784,5.29 36.422,5.998 l 9.93,12.592 c 0.554,0.703 0.836,1.574 0.839,2.469 0.012,2.351 0.207,7.175 1.504,10.281 1.266,3.023 3.686,6.287 4.897,7.892 0.156,0.208 0.267,0.443 0.334,0.686 0.164,-0.567 0.033,-1.197 -0.334,-1.686 C 52.381,36.627 49.961,33.363 48.695,30.34 47.398,27.234 47.203,22.41 47.191,20.059 47.188,19.164 46.906,18.293 46.352,17.59 L 36.422,4.998 C 35.784,4.29 35,3.998 33.76,4 Z"
       id="path6" /></g></svg>
