<?xml version="1.0" encoding="UTF-8" standalone="no"?>
<svg
   width="64"
   height="64"
   version="1.1"
   id="svg6"
   sodipodi:docname="notion.svg"
   xml:space="preserve"
   inkscape:version="1.4.2 (ebf0e940d0, 2025-05-08)"
   xmlns:inkscape="http://www.inkscape.org/namespaces/inkscape"
   xmlns:sodipodi="http://sodipodi.sourceforge.net/DTD/sodipodi-0.dtd"
   xmlns="http://www.w3.org/2000/svg"
   xmlns:svg="http://www.w3.org/2000/svg"><defs
     id="defs6"><filter
       style="color-interpolation-filters:sRGB;"
       inkscape:label="Drop Shadow"
       id="filter37"
       x="-0.033728683"
       y="-0.034352655"
       width="1.0674574"
       height="1.0782477"><feFlood
         result="flood"
         in="SourceGraphic"
         flood-opacity="0.498039"
         flood-color="rgb(0,0,0)"
         id="feFlood36" /><feGaussianBlur
         result="blur"
         in="SourceGraphic"
         stdDeviation="12.000000"
         id="feGaussianBlur36" /><feOffset
         result="offset"
         in="blur"
         dx="0.000000"
         dy="8.000000"
         id="feOffset36" /><feComposite
         result="comp1"
         operator="in"
         in="flood"
         in2="offset"
         id="feComposite36" /><feComposite
         result="comp2"
         operator="over"
         in="SourceGraphic"
         in2="comp1"
         id="feComposite37" /></filter><filter
       style="color-interpolation-filters:sRGB;"
       inkscape:label="Drop Shadow"
       id="filter53"
       x="-0.047733756"
       y="-0.047723642"
       width="1.0954675"
       height="1.1087039"><feFlood
         result="flood"
         in="SourceGraphic"
         flood-opacity="0.250980"
         flood-color="rgb(0,0,0)"
         id="feFlood52" /><feGaussianBlur
         result="blur"
         in="SourceGraphic"
         stdDeviation="12.000000"
         id="feGaussianBlur52" /><feOffset
         result="offset"
         in="blur"
         dx="0.000000"
         dy="8.000000"
         id="feOffset52" /><feComposite
         result="comp1"
         operator="in"
         in="flood"
         in2="offset"
         id="feComposite52" /><feComposite
         result="comp2"
         operator="over"
         in="SourceGraphic"
         in2="comp1"
         id="feComposite53" /></filter></defs><sodipodi:namedview
     id="namedview6"
     pagecolor="#ffffff"
     bordercolor="#000000"
     borderopacity="0.25"
     inkscape:showpageshadow="2"
     inkscape:pageopacity="0.0"
     inkscape:pagecheckerboard="0"
     inkscape:deskcolor="#d1d1d1"
     inkscape:zoom="5.4137863"
     inkscape:cx="24.382196"
     inkscape:cy="38.051003"
     inkscape:window-width="1366"
     inkscape:window-height="697"
     inkscape:window-x="0"
     inkscape:window-y="0"
     inkscape:window-maximized="1"
     inkscape:current-layer="svg6" /><path
     style="display:none;fill:#fafafa;fill-opacity:1;filter:url(#filter37)"
     d="M 266,934.34452 C 229.16096,930.81424 201.12642,921.55808 173.42708,903.77975 157.61531,893.63124 133.89045,870.96131 122.84324,855.44512 105.00178,830.38616 97.563382,815.00324 91.072,789.74084 84.720113,765.02131 85,777.67931 85,515.13202 85,357.28048 85.349356,273.5778 86.031581,267.97377 91.728721,221.17548 114.77121,176.04056 148.24219,146.11753 157.05583,138.23814 170.17216,128 171.453,128 c 0.42623,0 3.99793,-2.00879 7.93712,-4.46398 C 198.90677,111.37182 226.92273,101.37559 251.5,97.806845 258.72138,96.758265 310.4002,96.5 513,96.5 h 252.5 l 12,2.188958 c 23.5495,4.295742 50.19814,14.380182 67.86539,25.681782 3.12039,1.99609 6.03562,3.62926 6.47829,3.62926 0.44266,0 4.14516,2.49905 8.22777,5.55345 39.19538,29.32399 65.93755,72.56311 75.42048,121.94655 3.38941,17.65076 3.60633,35.62333 3.2587,270 -0.30999,208.99555 -0.50685,233.05654 -1.98536,242.65525 -1.93448,12.55895 -5.57118,27.38122 -9.28534,37.84475 -2.964,8.35019 -10.42807,25.22408 -11.50095,26 -0.38024,0.275 -2.85818,4.1 -5.50653,8.5 -32.44777,53.90909 -86.94961,87.93015 -149.77374,93.49155 C 750.52012,934.89259 275.2578,935.2317 266,934.34452 Z m 363.75,-10.09448 c -64.7625,-0.14205 -170.7375,-0.14205 -235.5,0 -64.7625,0.14205 -11.775,0.25827 117.75,0.25827 129.525,0 182.5125,-0.11622 117.75,-0.25827 z M 932.74996,398.75 c -0.14223,-62.2875 -0.25859,-11.325 -0.25859,113.25 0,124.575 0.11636,175.5375 0.25859,113.25 0.14222,-62.2875 0.14222,-164.2125 0,-226.5 z"
     id="path3-3"
     inkscape:label="Fondo"
     transform="matrix(0.07021604,0,0,0.07021604,-3.9460146,-4.489981)"
     sodipodi:nodetypes="ssssssssssscssssssssssssssssssss" /><path
     style="fill:#fafafa;fill-opacity:1"
     d="m 57.208163,55.379592 -41.273469,3.265306 -9.9265307,-12.8 L 6.1387755,7.5755102 42.710204,4.7020408 57.469388,14.628571 Z"
     id="path2"
     inkscape:label="fondo-icono" /><path
     style="display:inline;fill:#1a1a1a;stroke-width:1.31552;fill-opacity:1"
     d="M 16.672997,60.540132 C 15.942422,60.450272 15.319057,60.218341 14.756582,59.827129 14.265027,59.485242 13.733421,58.836717 10.728673,54.91333 9.6523085,53.507889 8.5698286,52.09556 8.3231616,51.774818 6.5708388,49.496272 6.0325824,48.782939 5.7412167,48.353044 5.3347466,47.753322 4.8052924,46.711217 4.6016127,46.110003 4.4557358,45.679411 4.4490096,44.960708 4.4272442,27.478107 4.4116158,14.928127 4.4314538,9.117225 4.4913628,8.72328 4.6668495,7.5687726 5.3109396,6.6511605 6.2375039,6.2356094 7.0907699,5.8529319 7.3867559,5.8146304 11.584865,5.5436382 12.638806,5.4755989 15.115667,5.2944362 17.089,5.141041 c 1.973334,-0.1533951 3.97317,-0.3019372 4.444077,-0.330092 0.47091,-0.028152 2.690912,-0.1935423 4.933337,-0.367528 2.242424,-0.1739856 4.499119,-0.3402558 5.014877,-0.3694907 0.515757,-0.029231 2.515594,-0.1817235 4.444078,-0.3388639 4.002267,-0.326122 6.640523,-0.4234653 7.508606,-0.2770438 0.968406,0.1633431 2.317332,0.8629141 3.785062,1.962984 0.194515,0.1457887 1.57244,1.117465 3.873279,2.7313316 1.491495,1.0461716 1.827969,1.2832576 2.935539,2.0684348 0.538181,0.381528 1.418843,1.004511 1.957026,1.384405 2.304382,1.626633 2.648018,1.911013 2.922296,2.418378 l 0.176326,0.326172 0.02578,20.141052 c 0.01944,15.1855 0.0021,20.311589 -0.07071,20.834168 -0.188463,1.35364 -0.781865,2.154875 -1.916516,2.58776 -0.865326,0.330133 -1.389566,0.40753 -3.461148,0.510997 -0.964242,0.04816 -4.02821,0.2307 -6.808818,0.405647 -2.780607,0.174946 -5.826228,0.358761 -6.768046,0.408479 -0.941818,0.04971 -3.34529,0.197127 -5.341049,0.327577 -1.995758,0.130446 -4.399229,0.276886 -5.341048,0.325414 -0.941818,0.04853 -3.712233,0.214236 -6.156476,0.368237 -5.673895,0.357491 -5.879698,0.366293 -6.572483,0.281073 z m 3.392317,-4.277481 c 4.805806,-0.304981 8.724224,-0.537534 10.344708,-0.613946 0.970414,-0.04575 3.470668,-0.190193 5.556124,-0.320966 2.085456,-0.130776 4.580663,-0.278878 5.544905,-0.329122 4.314952,-0.224838 11.356099,-0.658969 11.986709,-0.739058 0.752645,-0.09559 1.066691,-0.243354 1.453507,-0.683913 0.49348,-0.562042 0.46282,0.664886 0.46282,-18.52046 V 17.435562 l -0.245981,-0.401319 c -0.341265,-0.556773 -0.709914,-0.73039 -1.507189,-0.709814 -1.180335,0.03047 -4.159791,0.193284 -8.643528,0.472357 -2.489092,0.154924 -5.314548,0.320055 -6.27879,0.366959 -0.964243,0.0469 -4.101599,0.228339 -6.971904,0.403191 -2.870304,0.174852 -6.044354,0.360804 -7.053445,0.413224 -3.48779,0.181188 -7.625361,0.476986 -7.927498,0.566741 -0.435009,0.129223 -0.74737,0.424705 -0.970193,0.917752 l -0.194323,0.42998 -0.02343,17.04243 c -0.01667,12.127447 0.0025,17.195287 0.06634,17.572457 0.179641,1.060688 0.769947,1.633891 1.873342,1.819063 0.372123,0.06245 0.597426,0.05657 2.527824,-0.06593 z m 1.773554,-5.224579 c -0.229742,-0.233175 0.119212,-1.253647 0.509584,-1.490239 0.197115,-0.119464 0.877873,-0.325376 1.936698,-0.585807 l 0.346557,-0.08525 V 37.841416 26.806054 l -0.46887,-0.0496 c -0.257879,-0.02727 -0.841778,-0.07373 -1.297552,-0.103243 -0.455774,-0.02951 -0.877758,-0.084 -0.937741,-0.121106 -0.17877,-0.11057 -0.102874,-0.857172 0.13698,-1.347404 0.23214,-0.474475 0.711515,-0.883796 1.179172,-1.006851 0.157951,-0.04156 0.966027,-0.114674 1.795724,-0.162467 2.164926,-0.124712 6.184225,-0.402379 6.545432,-0.452182 l 0.307412,-0.04239 0.733873,1.131407 c 0.40363,0.622275 1.188513,1.82456 1.744185,2.671748 1.124858,1.714983 2.112129,3.229518 2.944239,4.516651 0.304436,0.470908 0.890491,1.369917 1.302346,1.997797 2.402726,3.662991 4.457077,6.830973 4.496756,6.934377 0.02513,0.06549 0.09681,0.119068 0.159281,0.119068 0.0963,0 0.113399,-1.164118 0.112347,-7.644631 -6.87e-4,-4.204547 -0.02856,-7.687574 -0.06195,-7.740061 -0.0342,-0.05376 -0.451916,-0.132716 -0.956878,-0.180844 -0.492895,-0.04698 -1.125511,-0.110175 -1.405814,-0.14043 l -0.509644,-0.05502 0.0018,-0.375712 c 0.0021,-0.430083 0.217339,-0.960792 0.498571,-1.229022 0.482968,-0.460641 0.650383,-0.486442 4.866981,-0.75008 2.167355,-0.135511 3.963104,-0.223926 3.990554,-0.196477 0.09019,0.09019 0.04248,1.074418 -0.06186,1.276237 -0.279857,0.541301 -0.440053,0.618849 -1.773458,0.858495 l -0.835552,0.15017 -0.02065,12.302829 -0.02065,12.30283 -0.856198,0.388175 c -1.246886,0.565301 -2.144206,0.764309 -3.240951,0.718777 -1.149429,-0.04772 -1.492171,-0.199077 -2.274246,-1.004326 -0.559927,-0.576517 -0.972442,-1.149109 -1.986734,-2.757686 -0.432344,-0.685658 -0.768245,-1.214161 -2.624457,-4.129292 -0.471196,-0.74 -1.985982,-3.125125 -3.36619,-5.300278 -3.619661,-5.704438 -3.886436,-6.115703 -3.967057,-6.115703 -0.04239,0 -0.06414,3.483945 -0.05206,8.337743 l 0.02077,8.337743 0.774655,0.180878 c 0.426062,0.09948 1.208906,0.277306 1.739656,0.395164 0.932524,0.207078 0.963376,0.220766 0.916705,0.406712 -0.1044,0.415942 -0.218837,0.620475 -0.545412,0.974769 -0.553473,0.600446 -0.832178,0.651807 -4.84263,0.892423 -1.883637,0.113017 -3.755042,0.22784 -4.158678,0.255173 -0.403636,0.02734 -0.761406,0.02176 -0.795043,-0.01237 z M 19.739144,14.508617 c 1.233333,-0.07176 4.260608,-0.255078 6.727275,-0.407385 2.466667,-0.152308 5.18204,-0.31624 6.034161,-0.364296 0.852122,-0.04806 3.035427,-0.177549 4.851792,-0.287766 7.505565,-0.455431 8.630267,-0.522032 11.008268,-0.651856 1.367879,-0.07468 2.624657,-0.17016 2.792839,-0.212181 0.526112,-0.131447 0.361575,-0.469376 -0.550414,-1.130439 C 50.333974,11.259642 49.985379,11.003856 49.82841,10.886281 49.67144,10.768713 49.109258,10.362363 48.579117,9.9832937 47.447824,9.1743819 47.060881,8.8943808 46.161744,8.234023 43.674398,6.4072311 43.161256,6.3078184 38.124166,6.6768737 18.491402,8.1153207 15.540595,8.3302784 12.848784,8.5181086 11.503328,8.6119974 10.228629,8.7276411 10.016119,8.7751064 9.4782202,8.895253 9.220132,9.115699 9.220132,9.4550143 c 0,0.2985222 0.1546579,0.4504728 1.712398,1.6824197 0.426061,0.336953 1.306766,1.035097 1.957122,1.551434 1.699513,1.349286 2.088478,1.597965 2.784622,1.780305 0.751003,0.196709 1.27449,0.201788 4.06487,0.03944 z"
     id="path1"
     inkscape:label="bordes" /></svg>
