<?xml version="1.0" encoding="UTF-8" standalone="no"?>
<svg
   width="64"
   height="64"
   version="1.1"
   id="svg6"
   sodipodi:docname="zen-beta.svg"
   xml:space="preserve"
   inkscape:version="1.4.2 (ebf0e940d0, 2025-05-08)"
   xmlns:inkscape="http://www.inkscape.org/namespaces/inkscape"
   xmlns:sodipodi="http://sodipodi.sourceforge.net/DTD/sodipodi-0.dtd"
   xmlns="http://www.w3.org/2000/svg"
   xmlns:svg="http://www.w3.org/2000/svg"><defs
     id="defs6"><filter
       style="color-interpolation-filters:sRGB;"
       inkscape:label="Drop Shadow"
       id="filter37"
       x="-0.033728683"
       y="-0.034352655"
       width="1.0674574"
       height="1.0782477"><feFlood
         result="flood"
         in="SourceGraphic"
         flood-opacity="0.498039"
         flood-color="rgb(0,0,0)"
         id="feFlood36" /><feGaussianBlur
         result="blur"
         in="SourceGraphic"
         stdDeviation="12.000000"
         id="feGaussianBlur36" /><feOffset
         result="offset"
         in="blur"
         dx="0.000000"
         dy="8.000000"
         id="feOffset36" /><feComposite
         result="comp1"
         operator="in"
         in="flood"
         in2="offset"
         id="feComposite36" /><feComposite
         result="comp2"
         operator="over"
         in="SourceGraphic"
         in2="comp1"
         id="feComposite37" /></filter><filter
       style="color-interpolation-filters:sRGB;"
       inkscape:label="Drop Shadow"
       id="filter53"
       x="-0.047733756"
       y="-0.047723642"
       width="1.0954675"
       height="1.1087039"><feFlood
         result="flood"
         in="SourceGraphic"
         flood-opacity="0.250980"
         flood-color="rgb(0,0,0)"
         id="feFlood52" /><feGaussianBlur
         result="blur"
         in="SourceGraphic"
         stdDeviation="12.000000"
         id="feGaussianBlur52" /><feOffset
         result="offset"
         in="blur"
         dx="0.000000"
         dy="8.000000"
         id="feOffset52" /><feComposite
         result="comp1"
         operator="in"
         in="flood"
         in2="offset"
         id="feComposite52" /><feComposite
         result="comp2"
         operator="over"
         in="SourceGraphic"
         in2="comp1"
         id="feComposite53" /></filter></defs><sodipodi:namedview
     id="namedview6"
     pagecolor="#ffffff"
     bordercolor="#000000"
     borderopacity="0.25"
     inkscape:showpageshadow="2"
     inkscape:pageopacity="0.0"
     inkscape:pagecheckerboard="0"
     inkscape:deskcolor="#d1d1d1"
     inkscape:zoom="5.4137863"
     inkscape:cx="30.754816"
     inkscape:cy="30.108318"
     inkscape:window-width="1366"
     inkscape:window-height="697"
     inkscape:window-x="0"
     inkscape:window-y="0"
     inkscape:window-maximized="1"
     inkscape:current-layer="svg6" /><path
     style="fill:#f0eee0;filter:url(#filter37)"
     d="M 266,934.34452 C 229.16096,930.81424 201.12642,921.55808 173.42708,903.77975 157.61531,893.63124 133.89045,870.96131 122.84324,855.44512 105.00178,830.38616 97.563382,815.00324 91.072,789.74084 84.720113,765.02131 85,777.67931 85,515.13202 85,357.28048 85.349356,273.5778 86.031581,267.97377 91.728721,221.17548 114.77121,176.04056 148.24219,146.11753 157.05583,138.23814 170.17216,128 171.453,128 c 0.42623,0 3.99793,-2.00879 7.93712,-4.46398 C 198.90677,111.37182 226.92273,101.37559 251.5,97.806845 258.72138,96.758265 310.4002,96.5 513,96.5 h 252.5 l 12,2.188958 c 23.5495,4.295742 50.19814,14.380182 67.86539,25.681782 3.12039,1.99609 6.03562,3.62926 6.47829,3.62926 0.44266,0 4.14516,2.49905 8.22777,5.55345 39.19538,29.32399 65.93755,72.56311 75.42048,121.94655 3.38941,17.65076 3.60633,35.62333 3.2587,270 -0.30999,208.99555 -0.50685,233.05654 -1.98536,242.65525 -1.93448,12.55895 -5.57118,27.38122 -9.28534,37.84475 -2.964,8.35019 -10.42807,25.22408 -11.50095,26 -0.38024,0.275 -2.85818,4.1 -5.50653,8.5 -32.44777,53.90909 -86.94961,87.93015 -149.77374,93.49155 C 750.52012,934.89259 275.2578,935.2317 266,934.34452 Z m 363.75,-10.09448 c -64.7625,-0.14205 -170.7375,-0.14205 -235.5,0 -64.7625,0.14205 -11.775,0.25827 117.75,0.25827 129.525,0 182.5125,-0.11622 117.75,-0.25827 z M 932.74996,398.75 c -0.14223,-62.2875 -0.25859,-11.325 -0.25859,113.25 0,124.575 0.11636,175.5375 0.25859,113.25 0.14222,-62.2875 0.14222,-164.2125 0,-226.5 z"
     id="path3-3"
     inkscape:label="Fondo"
     transform="matrix(0.07021604,0,0,0.07021604,-3.9460146,-4.489981)"
     sodipodi:nodetypes="ssssssssssscssssssssssssssssssss" /><g
     id="g6"
     inkscape:label="background"
     style="display:none"><path
       style="opacity:0.2"
       d="m 11,6 h 42 a 7,6.87 0 0 1 7,6.88 V 54.12 A 7,6.87 0 0 1 53,61 H 11 A 7,6.87 0 0 1 4,54.12 V 12.88 A 7,6.87 0 0 1 11,6 Z"
       id="path1" /><path
       style="fill:#e3e1d4"
       d="m 11,4 h 42 a 7,7 0 0 1 7,7 v 42 a 7,7 0 0 1 -7,7 H 11 A 7,7 0 0 1 4,53 V 11 a 7,7 0 0 1 7,-7 z"
       id="path2" /></g><g
     id="g7"
     inkscape:label="logo"
     style="display:inline"><path
       style="opacity:0.1"
       d="M 32,23 A 10,10 0 0 0 22,33 10,10 0 0 0 32,43 10,10 0 0 0 42,33 10,10 0 0 0 32,23 Z m 0,3 a 7,7 0 0 1 7,7 7,7 0 0 1 -7,7 7,7 0 0 1 -7,-7 7,7 0 0 1 7,-7 z M 32,16 A 17,17 0 0 0 15,33 17,17 0 0 0 32,50 17,17 0 0 0 49,33 17,17 0 0 0 32,16 Z m 0,4 A 13,13 0 0 1 45,33 13,13 0 0 1 32,46 13,13 0 0 1 19,33 13,13 0 0 1 32,20 Z M 32,8 A 25,25 0 0 0 7,33 25,25 0 0 0 32,58 25,25 0 0 0 57,33 25,25 0 0 0 32,8 Z m 0,5 A 20,20 0 0 1 52,33 20,20 0 0 1 32,53 20,20 0 0 1 12,33 20,20 0 0 1 32,13 Z"
       id="path3" /><path
       style="fill:#f76f53"
       d="M 32,22 A 10,10 0 0 0 22,32 10,10 0 0 0 32,42 10,10 0 0 0 42,32 10,10 0 0 0 32,22 Z m 0,3 a 7,7 0 0 1 7,7 7,7 0 0 1 -7,7 7,7 0 0 1 -7,-7 7,7 0 0 1 7,-7 z M 32,15 A 17,17 0 0 0 15,32 17,17 0 0 0 32,49 17,17 0 0 0 49,32 17,17 0 0 0 32,15 Z m 0,4 A 13,13 0 0 1 45,32 13,13 0 0 1 32,45 13,13 0 0 1 19,32 13,13 0 0 1 32,19 Z M 32,7 A 25,25 0 0 0 7,32 25,25 0 0 0 32,57 25,25 0 0 0 57,32 25,25 0 0 0 32,7 Z m 0,5 A 20,20 0 0 1 52,32 20,20 0 0 1 32,52 20,20 0 0 1 12,32 20,20 0 0 1 32,12 Z"
       id="path4" /><path
       style="opacity:0.2;fill:#ffffff"
       d="m 32,22 c -5.523,0 -10,4.477 -10,10 0.007,0.167 0.019,0.334 0.035,0.5 0.266,-5.313 4.645,-9.488 9.965,-9.5 5.267,0.001 9.63,4.087 9.977,9.342 C 41.986,32.228 41.994,32.114 42,32 42,26.477 37.523,22 32,22 Z m -9.965,10.5 c -0.016,0.166 0,0 0,0 z M 38.969,32.363 C 38.776,36.075 35.716,38.988 32,39 28.338,38.987 25.305,36.153 25.043,32.5 25.023,32.666 25.008,32.833 25,33 c 0,3.866 3.134,7 7,7 3.866,0 7,-3.134 7,-7 -10e-4,-0.213 -0.011,-0.425 -0.031,-0.637 z M 32,15 c -9.389,0 -17,7.611 -17,17 0.009,0.167 0.021,0.334 0.035,0.5 C 15.305,23.321 22.817,16.015 32,16 41.095,16 48.579,23.16 48.982,32.246 48.989,32.164 48.995,32.082 49,32 49,22.611 41.389,15 32,15 Z M 44.961,32.5 C 44.693,39.469 38.974,44.984 32,45 25.026,44.984 19.307,39.469 19.039,32.5 19.023,32.666 19.01,32.833 19,33 c 0,7.18 5.82,13 13,13 7.18,0 13,-5.82 13,-13 -0.01,-0.167 -0.023,-0.334 -0.039,-0.5 z M 32,7 C 18.193,7 7,18.193 7,32 7.01,32.167 7.0218,32.333 7.0352,32.5 7.3072,18.902 18.399,8.0164 32,8 45.513,8.0034 56.577,18.743 56.982,32.25 56.989,32.167 56.995,32.083 57,32 57,18.193 45.807,7 32,7 Z M 51.98,32.256 C 51.84,43.194 42.939,51.99 32,52 21.162,51.982 12.31,43.335 12.039,32.5 12.024,32.666 12.011,32.833 12,33 c 0,11.046 8.954,20 20,20 11.046,0 20,-8.954 20,-20 -0.002,-0.248 -0.009,-0.496 -0.02,-0.744 z"
       id="path5" /><path
       style="opacity:0.2;fill:#ffffff"
       d="m 11,4 a 7,7 0 0 0 -7,7 v 1 a 7,7 0 0 1 7,-7 h 42 a 7,7 0 0 1 7,7 V 11 A 7,7 0 0 0 53,4 Z"
       id="path6" /></g></svg>
