<?xml version="1.0" encoding="UTF-8" standalone="no"?>
<!-- Uploaded to: SVG Repo, www.svgrepo.com, Generator: SVG Repo Mixer Tools -->

<svg
   width="800px"
   height="800px"
   viewBox="0 0 16 16"
   version="1.1"
   id="svg3"
   sodipodi:docname="random-svgrepo-com.svg"
   inkscape:version="1.4 (e7c3feb100, 2024-10-09)"
   xmlns:inkscape="http://www.inkscape.org/namespaces/inkscape"
   xmlns:sodipodi="http://sodipodi.sourceforge.net/DTD/sodipodi-0.dtd"
   xmlns="http://www.w3.org/2000/svg"
   xmlns:svg="http://www.w3.org/2000/svg">
  <defs
     id="defs3" />
  <sodipodi:namedview
     id="namedview3"
     pagecolor="#ffffff"
     bordercolor="#000000"
     borderopacity="0.25"
     inkscape:showpageshadow="2"
     inkscape:pageopacity="0.0"
     inkscape:pagecheckerboard="0"
     inkscape:deskcolor="#d1d1d1"
     inkscape:zoom="0.48790368"
     inkscape:cx="292.06584"
     inkscape:cy="391.47071"
     inkscape:window-width="1342"
     inkscape:window-height="723"
     inkscape:window-x="0"
     inkscape:window-y="0"
     inkscape:window-maximized="1"
     inkscape:current-layer="svg3" />
  <path
     fill="#444"
     d="m 12.282645,11.426117 h -1.713057 c -0.8565298,0 -1.4561002,-1.027836 -2.0556706,-2.3126292 C 8.2569588,9.7130582 8,10.398281 7.6573883,11.083505 c 0.6852234,1.19914 1.5417524,2.055669 2.9121997,2.055669 h 1.713057 v 1.713058 l 2.569587,-2.569587 -2.569587,-2.5695868 z"
     id="path1"
     style="fill:#ffffff;fill-opacity:0.9;stroke-width:0.85653" />
  <path
     fill="#444"
     d="M 5.7730245,6.8008593 C 6.0299832,6.201289 6.2869418,5.5160657 6.6295535,4.9164953 5.9443303,3.7173548 5.0021483,2.8608256 3.7173548,2.8608256 H 1.1477675 v 1.7130582 h 2.5695873 c 0.856529,0 1.4560993,1.0278348 2.0556697,2.2269755 z"
     id="path2"
     style="fill:#ffffff;fill-opacity:0.9;stroke-width:0.85653" />
  <path
     fill="#444"
     d="M 14.852232,3.7173548 12.282645,1.1477675 v 1.7130581 h -1.713057 c -2.3126292,0 -3.3404642,2.5695872 -4.2826462,4.8822156 C 5.6017186,9.5417523 4.8308425,11.426117 3.7173548,11.426117 H 1.1477675 v 1.713057 h 2.5695873 c 2.2269755,0 3.2548102,-2.398281 4.1969922,-4.7965623 0.7708762,-1.884364 1.5417524,-3.7687279 2.655241,-3.7687279 h 1.713057 v 1.713058 z"
     id="path3"
     style="fill:#ffffff;fill-opacity:0.9;stroke-width:0.85653" />
</svg>
