<?xml version="1.0" encoding="UTF-8" standalone="no"?>
<svg
   height="128px"
   viewBox="0 0 128 128"
   width="128px"
   version="1.1"
   id="svg9"
   sodipodi:docname="folder-virt.svg"
   inkscape:version="1.4.2 (ebf0e940d0, 2025-05-08)"
   xmlns:inkscape="http://www.inkscape.org/namespaces/inkscape"
   xmlns:sodipodi="http://sodipodi.sourceforge.net/DTD/sodipodi-0.dtd"
   xmlns:xlink="http://www.w3.org/1999/xlink"
   xmlns="http://www.w3.org/2000/svg"
   xmlns:svg="http://www.w3.org/2000/svg">
  <defs
     id="defs9">
    <linearGradient
       id="linearGradient1"
       inkscape:collect="always">
      <stop
         style="stop-color:#ffffff;stop-opacity:1;"
         offset="0"
         id="stop7" />
      <stop
         style="stop-color:#e5e5e5;stop-opacity:1;"
         offset="1"
         id="stop8" />
    </linearGradient>
    <linearGradient
       id="linearGradient11"
       inkscape:collect="always">
      <stop
         style="stop-color:#8541ff;stop-opacity:1;"
         offset="0"
         id="stop11" />
      <stop
         style="stop-color:#521f99;stop-opacity:1;"
         offset="1"
         id="stop12" />
    </linearGradient>
    <linearGradient
       id="linearGradient9"
       inkscape:collect="always">
      <stop
         style="stop-color:#3b1e73;stop-opacity:1;"
         offset="0"
         id="stop9" />
      <stop
         style="stop-color:#351966;stop-opacity:1;"
         offset="1"
         id="stop10" />
    </linearGradient>
    <linearGradient
       inkscape:collect="always"
       xlink:href="#linearGradient9"
       id="linearGradient10"
       x1="36.376762"
       y1="11.998122"
       x2="36.376762"
       y2="40.001877"
       gradientUnits="userSpaceOnUse" />
    <linearGradient
       inkscape:collect="always"
       xlink:href="#linearGradient11"
       id="linearGradient12"
       x1="40.843311"
       y1="45.835487"
       x2="83.848625"
       y2="120.32288"
       gradientUnits="userSpaceOnUse" />
    <linearGradient
       inkscape:collect="always"
       xlink:href="#linearGradient20"
       id="linearGradient21"
       x1="11.999996"
       y1="42.983021"
       x2="116"
       y2="42.983021"
       gradientUnits="userSpaceOnUse"
       gradientTransform="translate(4e-6,0.016005)" />
    <linearGradient
       id="linearGradient20"
       inkscape:collect="always">
      <stop
         style="stop-color:#ffffff;stop-opacity:0.5;"
         offset="0"
         id="stop20" />
      <stop
         style="stop-color:#ffffff;stop-opacity:0;"
         offset="1"
         id="stop21" />
    </linearGradient>
    <linearGradient
       inkscape:collect="always"
       xlink:href="#linearGradient1"
       id="linearGradient28"
       gradientUnits="userSpaceOnUse"
       x1="20.91357"
       y1="3.4700665"
       x2="42.91357"
       y2="41.575184"
       gradientTransform="matrix(0.73336076,0,0,0.73336076,40.595639,59.482719)" />
  </defs>
  <sodipodi:namedview
     id="namedview9"
     pagecolor="#ffffff"
     bordercolor="#000000"
     borderopacity="0.25"
     inkscape:showpageshadow="2"
     inkscape:pageopacity="0.0"
     inkscape:pagecheckerboard="0"
     inkscape:deskcolor="#d1d1d1"
     inkscape:zoom="2.9168155"
     inkscape:cx="60.168358"
     inkscape:cy="73.024845"
     inkscape:window-width="1366"
     inkscape:window-height="697"
     inkscape:window-x="0"
     inkscape:window-y="0"
     inkscape:window-maximized="1"
     inkscape:current-layer="svg9" />
  <linearGradient
     id="a"
     gradientTransform="matrix(0.45451 0 0 0.455522 -1210.292114 616.172607)"
     gradientUnits="userSpaceOnUse"
     x1="2689.251953"
     x2="2918.069824"
     y1="-1106.802979"
     y2="-1106.802979">
    <stop
       offset="0"
       stop-color="#62a0ea"
       id="stop1" />
    <stop
       offset="0.0576991"
       stop-color="#afd4ff"
       id="stop2" />
    <stop
       offset="0.122204"
       stop-color="#62a0ea"
       id="stop3" />
    <stop
       offset="0.873306"
       stop-color="#62a0ea"
       id="stop4" />
    <stop
       offset="0.955997"
       stop-color="#c0d5ea"
       id="stop5" />
    <stop
       offset="1"
       stop-color="#62a0ea"
       id="stop6" />
  </linearGradient>
  <path
     d="m 21.976562 12 c -5.527343 0 -9.976562 4.460938 -9.976562 10 v 86.03125 c 0 5.542969 4.449219 10 9.976562 10 h 84.042969 c 5.53125 0 9.980469 -4.457031 9.980469 -10 v -72.085938 c 0 -6.628906 -5.359375 -12 -11.972656 -12 h -46.027344 c -2.453125 0 -4.695312 -1.386718 -5.796875 -3.582031 l -1.503906 -2.992187 c -1.65625 -3.292969 -5.019531 -5.371094 -8.699219 -5.371094 z m 0 0"
     fill="#438de6"
     id="path6"
     style="fill:url(#linearGradient10)"
     inkscape:label="Fondo" />
  <path
     d="m 65.976562 32 c -2.746093 0 -5.226562 1.101562 -7.027343 2.890625 c -2.273438 2.253906 -5.382813 5.109375 -8.632813 5.109375 h -28.339844 c -5.527343 0 -9.976562 4.460938 -9.976562 10 v 55.976562 c 0 5.539063 4.449219 10 9.976562 10 h 84.042969 c 5.53125 0 9.980469 -4.460937 9.980469 -10 v -63.976562 c 0 -5.539062 -4.449219 -10 -9.980469 -10 z m 0 0"
     fill="#a4caee"
     id="path8"
     style="fill:url(#linearGradient12)"
     inkscape:label="Cara" />
  <path
     id="path1"
     style="display:inline;fill:url(#linearGradient28);stroke-width:0.733361"
     d="m 49.333701,59.865234 v 5.133349 h 7.332662 v -5.133349 z m 10.998993,0 v 5.133349 h 7.335088 v -5.133349 z m 11.001419,0 v 5.133349 h 7.33266 V 59.865234 Z M 48.965129,66.4656 a 1.1008695,1.1008695 0 0 0 0,2.201738 h 8.067382 a 1.1008695,1.1008695 0 0 0 0,-2.201738 z m 11.001418,0 a 1.1008695,1.1008695 0 0 0 0,2.201738 h 8.067382 a 1.1008695,1.1008695 0 0 0 0,-2.201738 z m 10.998992,0 a 1.1008695,1.1008695 0 0 0 0,2.201738 h 8.067384 a 1.1008695,1.1008695 0 0 0 0,-2.201738 z M 52.89819,70.13678 a 1.4667216,1.4667216 0 0 0 -1.365175,1.462168 v 4.034904 a 1.4667216,1.4667216 0 0 0 1.467018,1.467018 h 9.531975 v 3.300182 H 49.333701 a 1.4667216,1.4667216 0 0 0 -1.467016,1.464592 v 8.802104 a 1.4667216,1.4667216 0 0 0 1.467016,1.467018 h 29.333072 a 1.4667216,1.4667216 0 0 0 1.467018,-1.467018 V 81.865644 A 1.4667216,1.4667216 0 0 0 78.666773,80.401052 H 65.466043 V 77.10087 h 9.534399 a 1.4667216,1.4667216 0 0 0 1.467018,-1.467018 v -4.034904 a 1.4670175,1.4670175 0 0 0 -2.934035,0 v 2.567886 h -8.067382 v -2.567886 a 1.4670175,1.4670175 0 0 0 -2.934035,0 v 2.567886 H 54.46705 V 71.598948 A 1.4667216,1.4667216 0 0 0 52.89819,70.13678 Z M 50.798295,83.332662 H 77.199756 V 89.20073 H 50.798295 Z m 2.934033,1.467018 a 1.4670173,1.4670173 0 0 0 0,2.934033 h 4.401053 a 1.4670173,1.4670173 0 0 0 0,-2.934033 z m 16.134767,0 a 1.4670173,1.4670173 0 0 0 0,2.934033 h 4.398626 a 1.4670173,1.4670173 0 0 0 0,-2.934033 z"
     inkscape:label="Icono" />
  <path
     id="path19-9"
     style="display:inline;fill:url(#linearGradient21);fill-opacity:1;stroke-width:4;stroke-linecap:round;enable-background:new;stop-color:#000000"
     inkscape:label="Brillo"
     d="m 65.97852,32 c -2.74656,0 -5.228077,1.100887 -7.029301,2.888672 C 56.67526,37.145735 53.564017,40 50.316406,40 H 21.978516 C 16.450855,40 12,44.460038 12,50 v 3.998047 C 12.000861,48.45883 16.45139,44 21.978516,44 h 28.33789 c 3.247611,0 6.358853,-2.854265 8.632813,-5.111328 C 60.750442,37.100887 63.23196,36 65.97852,36 h 40.04296 C 111.54919,36 116,40.460038 116,46 v -4 c 0,-5.539962 -4.45082,-10 -9.97852,-10 z" />
</svg>
