<?xml version="1.0" encoding="UTF-8" standalone="no"?>
<svg
   width="64"
   height="64"
   version="1.1"
   viewBox="0 0 16.933 16.933"
   id="svg30"
   sodipodi:docname="folder-heroic.svg"
   inkscape:version="1.4.2 (ebf0e940d0, 2025-05-08)"
   xmlns:inkscape="http://www.inkscape.org/namespaces/inkscape"
   xmlns:sodipodi="http://sodipodi.sourceforge.net/DTD/sodipodi-0.dtd"
   xmlns:xlink="http://www.w3.org/1999/xlink"
   xmlns="http://www.w3.org/2000/svg"
   xmlns:svg="http://www.w3.org/2000/svg"
   xmlns:rdf="http://www.w3.org/1999/02/22-rdf-syntax-ns#"
   xmlns:cc="http://creativecommons.org/ns#"
   xmlns:dc="http://purl.org/dc/elements/1.1/">
  <sodipodi:namedview
     id="namedview30"
     pagecolor="#ffffff"
     bordercolor="#000000"
     borderopacity="0.25"
     inkscape:showpageshadow="2"
     inkscape:pageopacity="0.0"
     inkscape:pagecheckerboard="0"
     inkscape:deskcolor="#d1d1d1"
     inkscape:zoom="7.9999999"
     inkscape:cx="25.3125"
     inkscape:cy="34.3125"
     inkscape:window-width="1366"
     inkscape:window-height="697"
     inkscape:window-x="0"
     inkscape:window-y="0"
     inkscape:window-maximized="1"
     inkscape:current-layer="svg30" />
  <defs
     id="defs8">
    <linearGradient
       id="linearGradient35"
       x1="104.68911"
       x2="128.50089"
       y1="13.907892"
       y2="55.151108"
       gradientTransform="matrix(0.26458,0,0,0.26458,-20.108,-0.13539)"
       gradientUnits="userSpaceOnUse"
       inkscape:label="oscuro">
      <stop
         stop-color="#ffc937"
         offset="0"
         id="stop35"
         style="stop-color:#2e3a40;stop-opacity:1;" />
      <stop
         stop-color="#fce798"
         offset="1"
         id="stop34"
         style="stop-color:#1d2226;stop-opacity:1;" />
    </linearGradient>
    <linearGradient
       id="linearGradient19"
       x1="165.899"
       y1="22.4219"
       x2="164.147"
       y2="227.229"
       gradientUnits="userSpaceOnUse"
       inkscape:label="Celeste">
      <stop
         offset="0"
         stop-color="#18DFEC"
         id="stop19" />
      <stop
         stop-color="#4B93FF"
         id="stop18"
         offset="1" />
    </linearGradient>
    <style
       type="text/css"
       id="style1" />
    <linearGradient
       id="linearGradient1911"
       x1="25.085"
       x2="25.085"
       y1="24.031"
       y2="26.412"
       gradientTransform="translate(-17.897 -21.385)"
       gradientUnits="userSpaceOnUse">
      <stop
         stop-color="#fcbc19"
         stop-opacity=".99608"
         offset="0"
         id="stop1"
         style="stop-color:#070a0b;stop-opacity:1;" />
      <stop
         stop-color="#f4b61f"
         offset="1"
         id="stop2"
         style="stop-color:#070a0b;stop-opacity:1;" />
    </linearGradient>
    <linearGradient
       id="linearGradient4625"
       x1=".52918"
       x2="16.404"
       y1="5.0665"
       y2="5.0665"
       gradientUnits="userSpaceOnUse">
      <stop
         stop-color="#b78815"
         offset="0"
         id="stop3" />
      <stop
         stop-color="#e2b24b"
         stop-opacity="0"
         offset="1"
         id="stop4" />
    </linearGradient>
    <linearGradient
       id="linearGradient1951"
       x1="104.68911"
       x2="128.50089"
       y1="13.907892"
       y2="55.151108"
       gradientTransform="matrix(0.26458,0,0,0.26458,-20.108,-0.13539)"
       gradientUnits="userSpaceOnUse"
       inkscape:label="oscuro">
      <stop
         stop-color="#fce798"
         offset="0"
         id="stop5"
         style="stop-color:#161c1f;stop-opacity:1;" />
      <stop
         stop-color="#ffc937"
         offset="1"
         id="stop6"
         style="stop-color:#07090b;stop-opacity:1;" />
    </linearGradient>
    <linearGradient
       id="linearGradient11110"
       x1=".52917"
       x2="16.404"
       y1="5.3815"
       y2="5.3815"
       gradientUnits="userSpaceOnUse">
      <stop
         stop-color="#fff"
         offset="0"
         id="stop7" />
      <stop
         stop-color="#fff"
         stop-opacity="0"
         offset="1"
         id="stop8" />
    </linearGradient>
    <linearGradient
       id="paint0_linear_2798_8229"
       x1="165.899"
       y1="22.4219"
       x2="164.147"
       y2="227.229"
       gradientUnits="userSpaceOnUse"
       inkscape:label="Celeste">
      <stop
         stop-color="#4B93FF"
         id="stop10" />
      <stop
         offset="1"
         stop-color="#18DFEC"
         id="stop11" />
    </linearGradient>
    <linearGradient
       inkscape:collect="always"
       xlink:href="#linearGradient35"
       id="linearGradient13"
       x1="8.4662905"
       y1="0.52901816"
       x2="8.4662905"
       y2="16.403898"
       gradientUnits="userSpaceOnUse" />
    <linearGradient
       inkscape:collect="always"
       xlink:href="#linearGradient19"
       id="linearGradient18"
       gradientUnits="userSpaceOnUse"
       gradientTransform="matrix(0.26458,0,0,0.26458,-20.108,-0.13539)"
       x1="104.68911"
       y1="13.907892"
       x2="128.50089"
       y2="55.151108" />
    <linearGradient
       inkscape:collect="always"
       xlink:href="#linearGradient1951"
       id="linearGradient29"
       x1="93.371727"
       y1="128.21858"
       x2="162.63651"
       y2="128.21858"
       gradientUnits="userSpaceOnUse" />
    <linearGradient
       inkscape:collect="always"
       xlink:href="#linearGradient1951"
       id="linearGradient31"
       x1="41.78664"
       y1="131.99998"
       x2="214.21228"
       y2="131.99998"
       gradientUnits="userSpaceOnUse" />
  </defs>
  <metadata
     id="metadata8">
    <rdf:RDF>
      <cc:Work
         rdf:about="">
        <dc:format>image/svg+xml</dc:format>
        <dc:type
           rdf:resource="http://purl.org/dc/dcmitype/StillImage" />
      </cc:Work>
    </rdf:RDF>
  </metadata>
  <path
     d="m1.1975 2.2489c-0.3653 0-0.66145 0.32575-0.66145 0.72759v2.9636c-0.0026 0.02629-0.0072 0.052-0.0072 0.07906v7.9373c0 0.40184 0.29614 0.72759 0.66144 0.72759h14.552c0.36531 0 0.66144-0.32575 0.66144-0.72759v-9.393c0-0.40184-0.29614-0.72759-0.66144-0.72759v5.16e-4h-8.1993l-0.89864-1.1095s-0.36607-0.478-1.0583-0.478h-1.3229z"
     color="#000000"
     color-rendering="auto"
     dominant-baseline="auto"
     fill="url(#linearGradient1911)"
     image-rendering="auto"
     shape-rendering="auto"
     solid-color="#000000"
     stop-color="#000000"
     style="font-feature-settings:normal;font-variant-alternates:normal;font-variant-caps:normal;font-variant-east-asian:normal;font-variant-ligatures:normal;font-variant-numeric:normal;font-variant-position:normal;font-variation-settings:normal;inline-size:0;isolation:auto;mix-blend-mode:normal;shape-margin:0;shape-padding:0;text-decoration-color:#000000;text-decoration-line:none;text-decoration-style:solid;text-indent:0;text-orientation:mixed;text-transform:none;white-space:normal;fill:url(#linearGradient13);fill-opacity:1"
     id="path8"
     inkscape:label="Fondo" />
  <path
     d="m0.52916 13.674v0.28215c0 0.20092 0.07357 0.3825 0.19327 0.51417s0.28553 0.21342 0.46818 0.21342h14.552c0.18265 0 0.34796-0.08175 0.46766-0.21342s0.19378-0.31325 0.19378-0.51417v-0.28215c0 0.20092-0.07409 0.3825-0.19378 0.51417-0.1197 0.13167-0.28501 0.21342-0.46766 0.21342h-14.552c-0.18265 0-0.34848-0.08176-0.46818-0.21342s-0.19327-0.31325-0.19327-0.51417z"
     fill="#e4a729"
     fill-opacity=".99608"
     stroke-width=".26458"
     id="path28"
     inkscape:label="Barra"
     style="fill:#262d33;fill-opacity:1" />
  <path
     d="m7.542 4.0979s-0.35919 0.47868-1.1575 0.79218c-0.03271 0.00587-0.06509 0.011575-0.10077 0.017052h-4.9608c-0.21986 0-0.41824 0.088552-0.56171 0.23202-0.13937 0.13936-0.22042 0.33333-0.2253 0.54569v0.51675c-0.0026 0.026291-0.0067 0.052014-0.0067 0.079064v7.3953c0 0.20092 0.07357 0.3825 0.19327 0.51417 0.1197 0.13167 0.28553 0.21342 0.46818 0.21342h14.552c0.18265 0 0.34796-0.08175 0.46766-0.21342 0.1197-0.13167 0.19378-0.31325 0.19378-0.51417v-8.851c0-0.20092-0.07408-0.38302-0.19378-0.51469-0.11945-0.13137-0.28449-0.21202-0.46665-0.21239h-7.4821z"
     fill="url(#linearGradient1951)"
     id="path29"
     inkscape:label="Cara"
     style="fill:url(#linearGradient18)" />
  <path
     d="m7.542 4.0979s-0.35919 0.47868-1.1575 0.79218c-0.03271 0.00587-0.06509 0.011575-0.10077 0.017052h-4.9608c-0.21986 0-0.41824 0.088552-0.56171 0.23202-0.13937 0.13936-0.22041 0.33333-0.2253 0.54569v0.38446c0.0049-0.21236 0.08593-0.40633 0.2253-0.54569 0.14347-0.14347 0.34185-0.23202 0.56171-0.23202h4.9608c0.03568-0.00548 0.06806-0.011184 0.10077-0.017052 0.75911-0.26303 1.2883-0.79218 1.2883-0.79218h8.0707c0.18216 3.704e-4 0.34718 0.081016 0.46663 0.21239 0.1197 0.13167 0.19378 0.31377 0.19378 0.51469v-0.38446c0-0.20092-0.07408-0.38302-0.19378-0.51469-0.11945-0.13137-0.28447-0.21202-0.46663-0.21239h-7.4821zm-7.0062 2.1037c-0.0026 0.026291-0.0067 0.052013-0.0067 0.079063v0.38447c0-0.02705 0.0041-0.052773 0.0067-0.079063z"
     fill="url(#linearGradient11110)"
     opacity=".3"
     id="path30"
     inkscape:label="Destello" />
  <g
     id="g11"
     transform="matrix(-0.03519893,0,0,0.03519893,12.972108,4.935176)"
     style="display:inline">
    <path
       fill-rule="evenodd"
       clip-rule="evenodd"
       d="m 72.3901,202.231 c 0.4093,1.905 1.4499,3.617 2.9532,4.857 l 47.1847,38.933 c 3.17,2.615 7.741,2.641 10.94,0.062 l 48.321,-38.962 c 1.562,-1.259 2.638,-3.022 3.043,-4.988 L 214.033,60.6054 c 0.824,-3.9943 -1.253,-8.0218 -4.984,-9.667 l -73.571,-32.4335 -4.014,-1.7695 c -2.224,-0.9804 -4.758,-0.9804 -6.982,0 l -4.014,1.7695 -73.5176,32.4101 c -3.756,1.6558 -5.8319,5.7224 -4.9699,9.7355 z"
       fill="#070a0b"
       id="path1"
       style="display:inline;fill:url(#linearGradient31)" />
    <path
       fill-rule="evenodd"
       clip-rule="evenodd"
       d="m 76.599,191.563 c 0.3784,1.762 1.3404,3.344 2.7302,4.491 l 43.6208,35.992 c 2.93,2.418 7.156,2.441 10.113,0.057 l 44.672,-36.019 c 1.444,-1.164 2.439,-2.794 2.813,-4.611 L 207.543,60.635 c 0.762,-3.6926 -1.158,-7.4159 -4.608,-8.9368 L 134.92,21.7141 131.211,20.0786 c -2.056,-0.9063 -4.399,-0.9063 -6.455,0 l -3.709,1.6355 -67.9662,29.9624 c -3.4722,1.5307 -5.3913,5.2902 -4.5945,9.0002 z"
       fill="url(#paint0_linear_2798_8229)"
       id="path6"
       style="display:inline;fill:#e0ebec;fill-opacity:1" />
    <path
       id="path7"
       d="m 127.54901,38.283009 16.1931,28.025956 -10.79051,109.226355 -4.94748,3.94918 -4.94749,-3.94918 -11.70072,-109.226355 z m 29.43533,134.903361 5.65217,10.35008 -5.65217,10.33539 -22.18294,-3.68492 -4.55109,-6.65047 4.55109,-6.50367 z m -57.96044,0 22.18293,3.84641 4.53642,6.50367 -4.53642,6.65047 -22.18293,3.68492 -5.652171,-10.33539 z m 28.96554,14.38734 4.81535,4.30152 2.83343,20.94974 -7.64878,5.32918 -7.6341,-5.32918 2.73066,-20.94974 z"
       style="fill:url(#linearGradient29)" />
  </g>
</svg>
