<?xml version="1.0" encoding="UTF-8" standalone="no"?>
<svg
   width="64"
   height="64"
   version="1.1"
   viewBox="0 0 16.933 16.933"
   id="svg30"
   sodipodi:docname="folder.steam.svg"
   inkscape:version="1.4.2 (ebf0e940d0, 2025-05-08)"
   xmlns:inkscape="http://www.inkscape.org/namespaces/inkscape"
   xmlns:sodipodi="http://sodipodi.sourceforge.net/DTD/sodipodi-0.dtd"
   xmlns="http://www.w3.org/2000/svg"
   xmlns:svg="http://www.w3.org/2000/svg"
   xmlns:rdf="http://www.w3.org/1999/02/22-rdf-syntax-ns#"
   xmlns:cc="http://creativecommons.org/ns#"
   xmlns:dc="http://purl.org/dc/elements/1.1/">
  <sodipodi:namedview
     id="namedview30"
     pagecolor="#ffffff"
     bordercolor="#000000"
     borderopacity="0.25"
     inkscape:showpageshadow="2"
     inkscape:pageopacity="0.0"
     inkscape:pagecheckerboard="0"
     inkscape:deskcolor="#d1d1d1"
     inkscape:zoom="8.625"
     inkscape:cx="19.188406"
     inkscape:cy="33.217391"
     inkscape:window-width="1366"
     inkscape:window-height="697"
     inkscape:window-x="0"
     inkscape:window-y="0"
     inkscape:window-maximized="1"
     inkscape:current-layer="svg30" />
  <defs
     id="defs8">
    <style
       type="text/css"
       id="style1" />
    <linearGradient
       id="linearGradient1911"
       x1="25.085"
       x2="25.085"
       y1="24.031"
       y2="26.412"
       gradientTransform="translate(-17.897 -21.385)"
       gradientUnits="userSpaceOnUse">
      <stop
         stop-color="#fcbc19"
         stop-opacity=".99608"
         offset="0"
         id="stop1"
         style="stop-color:#284b88;stop-opacity:1;" />
      <stop
         stop-color="#f4b61f"
         offset="1"
         id="stop2"
         style="stop-color:#1e3c6e;stop-opacity:1;" />
    </linearGradient>
    <linearGradient
       id="linearGradient4625"
       x1=".52918"
       x2="16.404"
       y1="5.0665"
       y2="5.0665"
       gradientUnits="userSpaceOnUse">
      <stop
         stop-color="#b78815"
         offset="0"
         id="stop3" />
      <stop
         stop-color="#e2b24b"
         stop-opacity="0"
         offset="1"
         id="stop4" />
    </linearGradient>
    <linearGradient
       id="linearGradient1951"
       x1="104.68911"
       x2="128.50089"
       y1="13.907892"
       y2="55.151108"
       gradientTransform="matrix(0.26458,0,0,0.26458,-20.108,-0.13539)"
       gradientUnits="userSpaceOnUse">
      <stop
         stop-color="#fce798"
         offset="0"
         id="stop5"
         style="stop-color:#2371cd;stop-opacity:1;" />
      <stop
         stop-color="#ffc937"
         offset="1"
         id="stop6"
         style="stop-color:#6c2996;stop-opacity:1;" />
    </linearGradient>
    <linearGradient
       id="linearGradient11110"
       x1=".52917"
       x2="16.404"
       y1="5.3815"
       y2="5.3815"
       gradientUnits="userSpaceOnUse">
      <stop
         stop-color="#fff"
         offset="0"
         id="stop7" />
      <stop
         stop-color="#fff"
         stop-opacity="0"
         offset="1"
         id="stop8" />
    </linearGradient>
  </defs>
  <metadata
     id="metadata8">
    <rdf:RDF>
      <cc:Work
         rdf:about="">
        <dc:format>image/svg+xml</dc:format>
        <dc:type
           rdf:resource="http://purl.org/dc/dcmitype/StillImage" />
      </cc:Work>
    </rdf:RDF>
  </metadata>
  <path
     d="m1.1975 2.2489c-0.3653 0-0.66145 0.32575-0.66145 0.72759v2.9636c-0.0026 0.02629-0.0072 0.052-0.0072 0.07906v7.9373c0 0.40184 0.29614 0.72759 0.66144 0.72759h14.552c0.36531 0 0.66144-0.32575 0.66144-0.72759v-9.393c0-0.40184-0.29614-0.72759-0.66144-0.72759v5.16e-4h-8.1993l-0.89864-1.1095s-0.36607-0.478-1.0583-0.478h-1.3229z"
     color="#000000"
     color-rendering="auto"
     dominant-baseline="auto"
     fill="url(#linearGradient1911)"
     image-rendering="auto"
     shape-rendering="auto"
     solid-color="#000000"
     stop-color="#000000"
     style="font-feature-settings:normal;font-variant-alternates:normal;font-variant-caps:normal;font-variant-east-asian:normal;font-variant-ligatures:normal;font-variant-numeric:normal;font-variant-position:normal;font-variation-settings:normal;inline-size:0;isolation:auto;mix-blend-mode:normal;shape-margin:0;shape-padding:0;text-decoration-color:#000000;text-decoration-line:none;text-decoration-style:solid;text-indent:0;text-orientation:mixed;text-transform:none;white-space:normal"
     id="path8"
     inkscape:label="Fondo" />
  <path
     d="m0.52916 13.674v0.28215c0 0.20092 0.07357 0.3825 0.19327 0.51417s0.28553 0.21342 0.46818 0.21342h14.552c0.18265 0 0.34796-0.08175 0.46766-0.21342s0.19378-0.31325 0.19378-0.51417v-0.28215c0 0.20092-0.07409 0.3825-0.19378 0.51417-0.1197 0.13167-0.28501 0.21342-0.46766 0.21342h-14.552c-0.18265 0-0.34848-0.08176-0.46818-0.21342s-0.19327-0.31325-0.19327-0.51417z"
     fill="#e4a729"
     fill-opacity=".99608"
     stroke-width=".26458"
     id="path28"
     inkscape:label="Barra"
     style="fill:#1e3c6e;fill-opacity:1" />
  <path
     d="m7.542 4.0979s-0.35919 0.47868-1.1575 0.79218c-0.03271 0.00587-0.06509 0.011575-0.10077 0.017052h-4.9608c-0.21986 0-0.41824 0.088552-0.56171 0.23202-0.13937 0.13936-0.22042 0.33333-0.2253 0.54569v0.51675c-0.0026 0.026291-0.0067 0.052014-0.0067 0.079064v7.3953c0 0.20092 0.07357 0.3825 0.19327 0.51417 0.1197 0.13167 0.28553 0.21342 0.46818 0.21342h14.552c0.18265 0 0.34796-0.08175 0.46766-0.21342 0.1197-0.13167 0.19378-0.31325 0.19378-0.51417v-8.851c0-0.20092-0.07408-0.38302-0.19378-0.51469-0.11945-0.13137-0.28449-0.21202-0.46665-0.21239h-7.4821z"
     fill="url(#linearGradient1951)"
     id="path29"
     inkscape:label="Cara" />
  <path
     d="m7.542 4.0979s-0.35919 0.47868-1.1575 0.79218c-0.03271 0.00587-0.06509 0.011575-0.10077 0.017052h-4.9608c-0.21986 0-0.41824 0.088552-0.56171 0.23202-0.13937 0.13936-0.22041 0.33333-0.2253 0.54569v0.38446c0.0049-0.21236 0.08593-0.40633 0.2253-0.54569 0.14347-0.14347 0.34185-0.23202 0.56171-0.23202h4.9608c0.03568-0.00548 0.06806-0.011184 0.10077-0.017052 0.75911-0.26303 1.2883-0.79218 1.2883-0.79218h8.0707c0.18216 3.704e-4 0.34718 0.081016 0.46663 0.21239 0.1197 0.13167 0.19378 0.31377 0.19378 0.51469v-0.38446c0-0.20092-0.07408-0.38302-0.19378-0.51469-0.11945-0.13137-0.28447-0.21202-0.46663-0.21239h-7.4821zm-7.0062 2.1037c-0.0026 0.026291-0.0067 0.052013-0.0067 0.079063v0.38447c0-0.02705 0.0041-0.052773 0.0067-0.079063z"
     fill="url(#linearGradient11110)"
     opacity=".3"
     id="path30"
     inkscape:label="Destello" />
  <path
     d="m 13.518843,8.3868628 c -7.1e-5,0.2229237 -0.08868,0.4367936 -0.246307,0.5944871 -0.157694,0.1576934 -0.371493,0.2463069 -0.594488,0.2464495 -0.46431,0 -0.83566,-0.3765537 -0.83566,-0.8409366 0,-0.2230664 0.08861,-0.4369362 0.246307,-0.5946297 0.157693,-0.1577647 0.371563,-0.2463069 0.59463,-0.2463069 0.223066,0 0.436935,0.088542 0.594629,0.2463069 0.157693,0.1576935 0.246308,0.3715633 0.246308,0.5946297 z m -0.845998,-1.562883 c -0.412983,-8.984e-4 -0.809498,0.1620349 -1.102429,0.453112 -0.293002,0.2910769 -0.458607,0.6865224 -0.460462,1.0995052 l -0.974818,1.3979251 c -0.04106,-0.00527 -0.08256,-0.00527 -0.118627,-0.00527 -0.2105201,8.622e-4 -0.4170469,0.057887 -0.5982655,0.165179 L 5.002934,8.1598754 C 4.9461516,7.8997384 4.8021316,7.666834 4.5947846,7.4998729 4.3874306,7.3328405 4.1292113,7.2417319 3.8629574,7.2415893 3.552618,7.2423023 3.2551748,7.3658478 3.0357514,7.5853496 2.816328,7.8047801 2.6927824,8.1022732 2.6921765,8.4125984 2.6928501,8.7229238 2.8163991,9.0203456 3.0358083,9.2398473 3.2552247,9.4592779 3.5526322,9.5828947 3.8629574,9.5836077 4.0735267,9.5827535 4.2800609,9.525792 4.4612373,9.4185 l 4.4153447,1.774479 c 0.056746,0.260137 0.2007533,0.493042 0.408135,0.660074 0.207312,0.167032 0.4655948,0.25814 0.731792,0.258213 0.603541,0 1.104139,-0.464169 1.160529,-1.05217 l 1.501225,-1.098721 c 0.205315,1.426e-4 0.408562,-0.040208 0.598265,-0.1186975 0.189703,-0.078491 0.362011,-0.1935525 0.507157,-0.3386988 0.145146,-0.1452177 0.26028,-0.3175256 0.338771,-0.5072282 0.07849,-0.1896314 0.118839,-0.3929504 0.118697,-0.5981941 1.42e-4,-0.2053152 -0.04021,-0.408563 -0.118697,-0.5982656 C 14.043965,7.6095883 13.928831,7.4372803 13.783685,7.2921339 13.638539,7.1469876 13.466231,7.0318542 13.276528,6.953364 13.086825,6.8748594 12.883578,6.8345235 12.678263,6.8346662 Z m 0,0.5157046 c 0.277674,1.425e-4 0.543942,0.1105711 0.740275,0.3069033 0.196332,0.1963325 0.30669,0.4626007 0.306903,0.7402751 C 13.71981,8.6645373 13.609456,8.930734 13.41312,9.1270666 13.216787,9.3234705 12.950519,9.4338274 12.672845,9.4339699 12.395241,9.4337561 12.129045,9.323328 11.932712,9.1269953 11.736451,8.9306627 11.626095,8.664466 11.62588,8.3868628 11.626095,8.1091884 11.736451,7.8429916 11.932712,7.646659 12.129045,7.4503263 12.395241,7.3398982 12.672845,7.3396844 Z M 3.8575109,7.5460689 c 0.3300512,0 0.6137854,0.1857103 0.7583756,0.4539032 L 4.1877689,7.8298742 C 3.8422121,7.7059722 3.4604044,7.8761415 3.3265004,8.2166937 3.1869358,8.5571746 3.346825,8.9440652 3.6821162,9.093489 L 4.0431785,9.2378513 C 3.9823825,9.252394 3.920018,9.2593804 3.8575109,9.2585961 3.7443167,9.2588105 3.6321918,9.2367107 3.5275737,9.1934376 3.4229557,9.1502358 3.3278976,9.0867878 3.2478604,9.0067292 3.1678232,8.9267418 3.1043749,8.831641 3.0611591,8.7270586 3.0179431,8.6224049 2.9958075,8.5102657 2.9960287,8.3971285 2.9958075,8.28392 3.0179431,8.1717809 3.0611591,8.0671985 3.1043749,7.9625448 3.1678232,7.8675153 3.2478604,7.7874567 3.3278976,7.7073981 3.4229557,7.6439499 3.5275737,7.6007482 3.6321918,7.5575465 3.7443167,7.5353753 3.8575109,7.5356605 Z m 6.1537941,2.5276571 c 0.113208,-2.14e-4 0.225276,0.02182 0.329929,0.06502 0.104657,0.0432 0.199684,0.10665 0.279744,0.186638 0.08006,0.08006 0.143506,0.175087 0.186707,0.279741 0.04319,0.104578 0.06531,0.216721 0.06509,0.32993 2.14e-4,0.113137 -0.02189,0.225276 -0.06515,0.329858 -0.04319,0.104657 -0.106645,0.199684 -0.186708,0.279671 -0.07999,0.08006 -0.175088,0.143506 -0.279671,0.186637 -0.104657,0.0432 -0.216792,0.06531 -0.32993,0.06509 -0.15641,7.01e-4 -0.3099693,-0.04177 -0.4437798,-0.122761 -0.1338115,-0.08099 -0.2426713,-0.197259 -0.3146032,-0.336132 0.1393727,0.05675 0.2837348,0.113565 0.4233201,0.170098 0.1684578,0.06644 0.3562359,0.06424 0.5230559,-0.0062 0.166817,-0.07043 0.299346,-0.203461 0.36921,-0.370566 0.03321,-0.08326 0.04976,-0.172307 0.04855,-0.26199 -0.0011,-0.08968 -0.02003,-0.178224 -0.05547,-0.260636 -0.03543,-0.08241 -0.08676,-0.156981 -0.151064,-0.219502 C 10.346224,10.3261 10.27023,10.27684 10.186892,10.24369 L 9.8310787,10.099557 c 0.061807,-0.01555 0.1236169,-0.02096 0.1856403,-0.02096 z"
     fill="#ffffff"
     id="path5"
     style="stroke-width:0.07129" />
</svg>
