<?xml version="1.0" encoding="UTF-8" standalone="no"?>
<svg
   width="64"
   height="64"
   version="1.1"
   viewBox="0 0 16.933 16.933"
   id="svg15"
   sodipodi:docname="folder-github.svg"
   inkscape:version="1.4.2 (ebf0e940d0, 2025-05-08)"
   xmlns:inkscape="http://www.inkscape.org/namespaces/inkscape"
   xmlns:sodipodi="http://sodipodi.sourceforge.net/DTD/sodipodi-0.dtd"
   xmlns="http://www.w3.org/2000/svg"
   xmlns:svg="http://www.w3.org/2000/svg">
  <sodipodi:namedview
     id="namedview15"
     pagecolor="#ffffff"
     bordercolor="#000000"
     borderopacity="0.25"
     inkscape:showpageshadow="2"
     inkscape:pageopacity="0.0"
     inkscape:pagecheckerboard="0"
     inkscape:deskcolor="#d1d1d1"
     inkscape:zoom="6.0104076"
     inkscape:cx="33.358802"
     inkscape:cy="34.024315"
     inkscape:window-width="1366"
     inkscape:window-height="697"
     inkscape:window-x="0"
     inkscape:window-y="0"
     inkscape:window-maximized="1"
     inkscape:current-layer="svg15" />
  <defs
     id="defs10">
    <linearGradient
       id="linearGradient1911"
       x1="24.48975"
       x2="25.680248"
       y1="24.190496"
       y2="26.252504"
       gradientTransform="translate(-35.822,-21.385)"
       gradientUnits="userSpaceOnUse">
      <stop
         stop-color="#fcbc19"
         stop-opacity=".99608"
         offset="0"
         id="stop1"
         style="stop-color:#1e1e1e;stop-opacity:1;" />
      <stop
         stop-color="#f4b61f"
         offset="1"
         id="stop2"
         style="stop-color:#30164e;stop-opacity:1;" />
    </linearGradient>
    <linearGradient
       id="linearGradient4625"
       x1=".52918"
       x2="16.404"
       y1="5.0665"
       y2="5.0665"
       gradientTransform="translate(-17.925)"
       gradientUnits="userSpaceOnUse">
      <stop
         stop-color="#b78815"
         offset="0"
         id="stop3" />
      <stop
         stop-color="#e2b24b"
         stop-opacity="0"
         offset="1"
         id="stop4" />
    </linearGradient>
    <linearGradient
       id="linearGradient1951"
       x1="104.68909"
       x2="128.50087"
       y1="13.907892"
       y2="55.1511"
       gradientTransform="matrix(0.26458,0,0,0.27178129,-38.033,-0.25061021)"
       gradientUnits="userSpaceOnUse">
      <stop
         stop-color="#fce798"
         offset="0"
         id="stop5"
         style="stop-color:#383838;stop-opacity:1;" />
      <stop
         stop-color="#ffc937"
         offset="1"
         id="stop6"
         style="stop-color:#1e1e1e;stop-opacity:1;" />
    </linearGradient>
    <linearGradient
       id="linearGradient11110"
       x1=".52917"
       x2="16.404"
       y1="5.3815"
       y2="5.3815"
       gradientTransform="translate(-17.925)"
       gradientUnits="userSpaceOnUse">
      <stop
         stop-color="#fff"
         offset="0"
         id="stop7" />
      <stop
         stop-color="#fff"
         stop-opacity="0"
         offset="1"
         id="stop8" />
    </linearGradient>
    <linearGradient
       id="linearGradient25933"
       x1="8.4665"
       x2="8.4665"
       y1="5.7517"
       y2="13.481"
       gradientUnits="userSpaceOnUse">
      <stop
         stop-color="#c68d00"
         offset="0"
         id="stop9" />
      <stop
         stop-color="#a67100"
         offset="1"
         id="stop10" />
    </linearGradient>
    <mask
       id="mask0_510_11969"
       maskUnits="userSpaceOnUse"
       x="17"
       y="34"
       width="224"
       height="138">
      <path
         fill-rule="evenodd"
         clip-rule="evenodd"
         d="M 104.425,42.3784 C 100.056,37.0733 93.5437,34 86.6712,34 H 29 C 22.3726,34 17,39.3726 17,46 V 58.1371 68.2 160 c 0,6.627 5.3726,12 12,12 h 200 c 6.627,0 12,-5.373 12,-12 V 70.1371 c 0,-6.6274 -5.373,-12 -12,-12 H 117.404 Z"
         fill="url(#paint0_linear_510_11969)"
         id="path2" />
    </mask>
    <linearGradient
       id="paint0_linear_510_11969"
       x1="17"
       y1="34"
       x2="197.76801"
       y2="215.142"
       gradientUnits="userSpaceOnUse">
      <stop
         stop-color="#05815D"
         id="stop9-3" />
      <stop
         offset="1"
         stop-color="#0C575F"
         id="stop10-6" />
    </linearGradient>
    <filter
       id="filter0_f_510_11969"
       x="-20"
       y="25"
       width="298"
       height="184"
       filterUnits="userSpaceOnUse"
       color-interpolation-filters="sRGB">
      <feFlood
         flood-opacity="0"
         result="BackgroundImageFix"
         id="feFlood5" />
      <feBlend
         mode="normal"
         in="SourceGraphic"
         in2="BackgroundImageFix"
         result="shape"
         id="feBlend5" />
      <feGaussianBlur
         stdDeviation="18.5"
         result="effect1_foregroundBlur_510_11969"
         id="feGaussianBlur5" />
    </filter>
    <filter
       id="filter1_ii_510_11969"
       x="17"
       y="62"
       width="224"
       height="148"
       filterUnits="userSpaceOnUse"
       color-interpolation-filters="sRGB">
      <feFlood
         flood-opacity="0"
         result="BackgroundImageFix"
         id="feFlood6" />
      <feBlend
         mode="normal"
         in="SourceGraphic"
         in2="BackgroundImageFix"
         result="shape"
         id="feBlend6" />
      <feColorMatrix
         in="SourceAlpha"
         type="matrix"
         values="0 0 0 0 0 0 0 0 0 0 0 0 0 0 0 0 0 0 127 0"
         result="hardAlpha"
         id="feColorMatrix6" />
      <feOffset
         dy="4"
         id="feOffset6" />
      <feComposite
         in2="hardAlpha"
         operator="arithmetic"
         k2="-1"
         k3="1"
         id="feComposite6"
         k1="0"
         k4="0" />
      <feColorMatrix
         type="matrix"
         values="0 0 0 0 1 0 0 0 0 1 0 0 0 0 1 0 0 0 0.25 0"
         id="feColorMatrix7" />
      <feBlend
         mode="normal"
         in2="shape"
         result="effect1_innerShadow_510_11969"
         id="feBlend7" />
      <feColorMatrix
         in="SourceAlpha"
         type="matrix"
         values="0 0 0 0 0 0 0 0 0 0 0 0 0 0 0 0 0 0 127 0"
         result="hardAlpha"
         id="feColorMatrix8" />
      <feOffset
         dy="-4"
         id="feOffset8" />
      <feComposite
         in2="hardAlpha"
         operator="arithmetic"
         k2="-1"
         k3="1"
         id="feComposite8"
         k1="0"
         k4="0" />
      <feColorMatrix
         type="matrix"
         values="0 0 0 0 0 0 0 0 0 0 0 0 0 0 0 0 0 0 0.9 0"
         id="feColorMatrix9" />
      <feBlend
         mode="normal"
         in2="effect1_innerShadow_510_11969"
         result="effect2_innerShadow_510_11969"
         id="feBlend9" />
    </filter>
    <linearGradient
       id="paint1_linear_510_11969"
       x1="17"
       y1="62"
       x2="241"
       y2="210"
       gradientUnits="userSpaceOnUse">
      <stop
         stop-color="#383838"
         id="stop11" />
      <stop
         offset="1"
         stop-color="#1E1E1E"
         id="stop12" />
    </linearGradient>
  </defs>
  <path
     d="m-16.728 2.2489c-0.3653 0-0.66145 0.32575-0.66145 0.72759v2.9636c-0.0026 0.02629-0.0072 0.052-0.0072 0.07906v7.9373c0 0.40184 0.29614 0.72759 0.66144 0.72759h14.552c0.36531 0 0.66144-0.32575 0.66144-0.72759v-9.393c0-0.40184-0.29614-0.72759-0.66144-0.72759v5.16e-4h-8.1993l-0.89864-1.1095s-0.36607-0.478-1.0583-0.478h-1.3229z"
     color="#000000"
     color-rendering="auto"
     dominant-baseline="auto"
     fill="url(#linearGradient1911)"
     image-rendering="auto"
     shape-rendering="auto"
     solid-color="#000000"
     stop-color="#000000"
     style="font-feature-settings:normal;font-variant-alternates:normal;font-variant-caps:normal;font-variant-east-asian:normal;font-variant-ligatures:normal;font-variant-numeric:normal;font-variant-position:normal;font-variation-settings:normal;inline-size:0;isolation:auto;mix-blend-mode:normal;shape-margin:0;shape-padding:0;text-decoration-color:#000000;text-decoration-line:none;text-decoration-style:solid;text-indent:0;text-orientation:mixed;text-transform:none;white-space:normal;fill:#1e1e1e;fill-opacity:1"
     id="path10"
     inkscape:label="Base"
     transform="translate(17.925,4e-5)" />
  <path
     d="m -10.383,4.0979008 c 0,0 -0.35919,0.4917086 -1.1575,0.8137414 -0.03271,0.00603 -0.06509,0.01189 -0.10077,0.017516 h -4.9608 c -0.21986,0 -0.41824,0.090962 -0.56171,0.2383351 -0.13937,0.1431531 -0.22042,0.3424025 -0.2253,0.5605425 v 0.5308148 c -0.0026,0.027006 -0.0067,0.053426 -0.0067,0.081212 v 7.5965844 c 0,0.206388 0.07357,0.39291 0.19327,0.528164 0.1197,0.135254 0.28553,0.219229 0.46818,0.219229 h 14.552 c 0.18265,0 0.34796,-0.08397 0.46766,-0.219229 0.1197,-0.135254 0.19378,-0.321776 0.19378,-0.528164 V 4.8447415 c 0,-0.2063886 -0.07408,-0.3934449 -0.19378,-0.5286987 C -1.83412,4.1810972 -1.99916,4.0982521 -2.18132,4.097872 h -7.4821 z"
     fill="url(#linearGradient1951)"
     id="path13"
     style="fill:url(#linearGradient1951);stroke-width:1.01352"
     inkscape:label="Cara"
     transform="translate(17.925,4e-5)" />
  <path
     d="m 0.52922,13.67434 v 0.28215 c 0,0.20092 0.07357,0.3825 0.19327,0.51417 0.1197,0.13167 0.28553,0.21342 0.46818,0.21342 h 14.552 c 0.18265,0 0.34796,-0.08175 0.46766,-0.21342 0.1197,-0.13167 0.19378,-0.31325 0.19378,-0.51417 v -0.28215 c 0,0.20092 -0.07409,0.3825 -0.19378,0.51417 -0.1197,0.13167 -0.28501,0.21342 -0.46766,0.21342 h -14.552 c -0.18265,0 -0.34848,-0.08176 -0.46818,-0.21342 -0.1197,-0.13166 -0.19327,-0.31325 -0.19327,-0.51417 z"
     fill="#e4a729"
     fill-opacity=".99608"
     stroke-width="0.26458"
     id="path28"
     style="fill:#141414;fill-opacity:1"
     inkscape:label="Linea" />
  <path
     d="m-10.383 4.0979s-0.35919 0.47868-1.1575 0.79218c-0.03271 0.00587-0.06509 0.011575-0.10077 0.017052h-4.9608c-0.21986 0-0.41824 0.088552-0.56171 0.23202-0.13937 0.13936-0.22041 0.33333-0.2253 0.54569v0.38446c0.0049-0.21236 0.08593-0.40633 0.2253-0.54569 0.14347-0.14347 0.34185-0.23202 0.56171-0.23202h4.9608c0.03568-0.00548 0.06806-0.011184 0.10077-0.017052 0.75911-0.26303 1.2883-0.79218 1.2883-0.79218h8.0707c0.18216 3.704e-4 0.34718 0.081016 0.46663 0.21239 0.1197 0.13167 0.19378 0.31377 0.19378 0.51469v-0.38446c0-0.20092-0.07408-0.38302-0.19378-0.51469-0.11945-0.13137-0.28447-0.21202-0.46663-0.21239h-7.4821zm-7.0062 2.1037c-0.0026 0.02629-0.0067 0.05201-0.0067 0.07906v0.38446c0-0.02705 0.0041-0.05277 0.0067-0.07906z"
     fill="url(#linearGradient11110)"
     opacity=".3"
     id="path14"
     inkscape:label="Brillo"
     transform="translate(17.925,4e-5)" />
  <path
     fill-rule="evenodd"
     clip-rule="evenodd"
     d="M 82.8857,136.631 C 82.8857,111.982 102.871,92 127.517,92 c 24.648,0 44.63,19.982 44.63,44.631 0,19.713 -12.771,36.437 -30.495,42.345 -2.263,0.438 -3.066,-0.954 -3.066,-2.141 0,-0.488 0.006,-1.342 0.013,-2.484 0.016,-2.302 0.039,-5.773 0.039,-9.764 0,-4.164 -1.427,-6.88 -3.027,-8.265 9.938,-1.105 20.379,-4.88 20.379,-22.022 0,-4.873 -1.732,-8.854 -4.594,-11.979 0.464,-1.125 1.992,-5.664 -0.437,-11.812 0,0 -3.743,-1.199 -12.261,4.575 -3.567,-0.989 -7.388,-1.485 -11.181,-1.502 -3.793,0.017 -7.611,0.513 -11.171,1.502 -8.529,-5.774 -12.277,-4.575 -12.277,-4.575 -2.423,6.148 -0.896,10.687 -0.432,11.812 -2.855,3.125 -4.5988,7.106 -4.5988,11.979 0,17.102 10.4208,20.929 20.3338,22.057 -1.276,1.114 -2.433,3.084 -2.833,5.968 -2.547,1.141 -9.007,3.113 -12.988,-3.709 0,0 -2.36,-4.286 -6.8416,-4.6 0,0 -4.3546,-0.057 -0.3052,2.713 0,0 2.9252,1.372 4.9558,6.53 0,0 2.62,7.966 15.036,5.266 0.011,2.025 0.028,3.986 0.041,5.527 v 0.003 0.002 c 0.011,1.295 0.02,2.292 0.02,2.778 0,1.178 -0.819,2.56 -3.05,2.147 C 95.6739,173.08 82.8857,156.35 82.8857,136.631 Z m 16.1393,19.586 c 0.3178,0.152 0.6666,0.086 0.7649,-0.136 0.1123,-0.223 -0.0724,-0.528 -0.3969,-0.674 -0.323,-0.152 -0.6725,-0.088 -0.7686,0.139 -0.105,0.223 0.0769,0.525 0.4006,0.671 z m 2.573,1.88 c -0.213,0.197 -0.629,0.106 -0.912,-0.206 -0.292,-0.311 -0.346,-0.728 -0.13,-0.928 0.219,-0.196 0.623,-0.104 0.915,0.206 0.292,0.315 0.349,0.728 0.127,0.928 z m 0.762,2.185 c 0.277,0.397 0.724,0.575 0.997,0.385 0.28,-0.194 0.28,-0.67 0.007,-1.074 -0.28,-0.393 -0.721,-0.565 -0.998,-0.374 -0.279,0.19 -0.279,0.666 -0.006,1.063 z m 3.408,2.869 c -0.244,0.269 -0.765,0.197 -1.147,-0.171 -0.39,-0.36 -0.499,-0.871 -0.253,-1.14 0.247,-0.271 0.771,-0.195 1.156,0.17 0.387,0.359 0.505,0.874 0.244,1.141 z m 2.211,1.802 c 0.505,0.148 1.007,-0.011 1.115,-0.36 0.105,-0.356 -0.226,-0.762 -0.73,-0.915 -0.509,-0.159 -1.013,0.007 -1.118,0.359 -0.102,0.353 0.228,0.763 0.733,0.916 z m 4.768,-0.093 c 0.012,0.368 -0.417,0.673 -0.947,0.68 -0.534,0.012 -0.965,-0.286 -0.971,-0.648 0,-0.372 0.419,-0.674 0.952,-0.683 0.531,-0.01 0.966,0.285 0.966,0.651 z m 2.566,0.248 c 0.527,-0.099 0.896,-0.467 0.833,-0.827 -0.068,-0.365 -0.54,-0.58 -1.068,-0.489 -0.517,0.096 -0.892,0.464 -0.828,0.832 0.066,0.357 0.545,0.578 1.063,0.484 z"
     fill="#ffffff"
     id="path5"
     style="display:inline"
     transform="matrix(0.07047533,0,0,0.07047533,-0.66253101,-0.1157406)"
     inkscape:label="Icono" />
</svg>
