<?xml version="1.0" encoding="UTF-8" standalone="no"?>
<svg
   height="128px"
   viewBox="0 0 128 128"
   width="128px"
   version="1.1"
   id="svg9"
   sodipodi:docname="folder-root.svg"
   inkscape:version="1.4.2 (ebf0e940d0, 2025-05-08)"
   xmlns:inkscape="http://www.inkscape.org/namespaces/inkscape"
   xmlns:sodipodi="http://sodipodi.sourceforge.net/DTD/sodipodi-0.dtd"
   xmlns:xlink="http://www.w3.org/1999/xlink"
   xmlns="http://www.w3.org/2000/svg"
   xmlns:svg="http://www.w3.org/2000/svg">
  <defs
     id="defs9">
    <linearGradient
       id="linearGradient1"
       inkscape:collect="always">
      <stop
         style="stop-color:#09759f;stop-opacity:0.99607843;"
         offset="0"
         id="stop7" />
      <stop
         style="stop-color:#1f5e90;stop-opacity:0.99607843;"
         offset="1"
         id="stop8" />
    </linearGradient>
    <linearGradient
       id="linearGradient9"
       inkscape:collect="always">
      <stop
         style="stop-color:#4ad2e3;stop-opacity:1;"
         offset="0"
         id="stop9" />
      <stop
         style="stop-color:#8660c5;stop-opacity:1;"
         offset="1"
         id="stop10" />
    </linearGradient>
    <linearGradient
       inkscape:collect="always"
       xlink:href="#linearGradient20"
       id="linearGradient21"
       x1="11.999996"
       y1="42.983021"
       x2="116"
       y2="42.983021"
       gradientUnits="userSpaceOnUse"
       gradientTransform="translate(4e-6,0.016005)" />
    <linearGradient
       id="linearGradient20"
       inkscape:collect="always">
      <stop
         style="stop-color:#ffffff;stop-opacity:0.5;"
         offset="0"
         id="stop20" />
      <stop
         style="stop-color:#ffffff;stop-opacity:0;"
         offset="1"
         id="stop21" />
    </linearGradient>
    <linearGradient
       inkscape:collect="always"
       xlink:href="#linearGradient9"
       id="linearGradient10"
       x1="38"
       y1="28.95496"
       x2="90"
       y2="119.0216"
       gradientUnits="userSpaceOnUse" />
    <linearGradient
       inkscape:collect="always"
       xlink:href="#linearGradient40"
       id="linearGradient41"
       x1="24.75"
       y1="25.808657"
       x2="38.25"
       y2="49.191341"
       gradientUnits="userSpaceOnUse"
       gradientTransform="matrix(1.1851851,0,0,1.1851851,26.814812,31.555553)" />
    <linearGradient
       id="linearGradient40"
       inkscape:collect="always">
      <stop
         style="stop-color:#fefefe;stop-opacity:1;"
         offset="0"
         id="stop40" />
      <stop
         style="stop-color:#e5e5e5;stop-opacity:1;"
         offset="1"
         id="stop41" />
    </linearGradient>
    <linearGradient
       inkscape:collect="always"
       xlink:href="#linearGradient1"
       id="linearGradient8"
       x1="64"
       y1="13.015625"
       x2="64"
       y2="117.01562"
       gradientUnits="userSpaceOnUse" />
  </defs>
  <sodipodi:namedview
     id="namedview9"
     pagecolor="#ffffff"
     bordercolor="#000000"
     borderopacity="0.25"
     inkscape:showpageshadow="2"
     inkscape:pageopacity="0.0"
     inkscape:pagecheckerboard="0"
     inkscape:deskcolor="#d1d1d1"
     inkscape:zoom="1.4584078"
     inkscape:cx="-48.34039"
     inkscape:cy="98.052139"
     inkscape:window-width="1366"
     inkscape:window-height="697"
     inkscape:window-x="0"
     inkscape:window-y="0"
     inkscape:window-maximized="1"
     inkscape:current-layer="svg9" />
  <linearGradient
     id="a"
     gradientTransform="matrix(0.45451 0 0 0.455522 -1210.292114 616.172607)"
     gradientUnits="userSpaceOnUse"
     x1="2689.251953"
     x2="2918.069824"
     y1="-1106.802979"
     y2="-1106.802979">
    <stop
       offset="0"
       stop-color="#62a0ea"
       id="stop1" />
    <stop
       offset="0.0576991"
       stop-color="#afd4ff"
       id="stop2" />
    <stop
       offset="0.122204"
       stop-color="#62a0ea"
       id="stop3" />
    <stop
       offset="0.873306"
       stop-color="#62a0ea"
       id="stop4" />
    <stop
       offset="0.955997"
       stop-color="#c0d5ea"
       id="stop5" />
    <stop
       offset="1"
       stop-color="#62a0ea"
       id="stop6" />
  </linearGradient>
  <path
     d="m 21.976562 12 c -5.527343 0 -9.976562 4.460938 -9.976562 10 v 86.03125 c 0 5.542969 4.449219 10 9.976562 10 h 84.042969 c 5.53125 0 9.980469 -4.457031 9.980469 -10 v -72.085938 c 0 -6.628906 -5.359375 -12 -11.972656 -12 h -46.027344 c -2.453125 0 -4.695312 -1.386718 -5.796875 -3.582031 l -1.503906 -2.992187 c -1.65625 -3.292969 -5.019531 -5.371094 -8.699219 -5.371094 z m 0 0"
     fill="#438de6"
     id="path6"
     inkscape:label="Fondo"
     style="fill:url(#linearGradient8);fill-opacity:1" />
  <path
     d="m 65.976562 32 c -2.746093 0 -5.226562 1.101562 -7.027343 2.890625 c -2.273438 2.253906 -5.382813 5.109375 -8.632813 5.109375 h -28.339844 c -5.527343 0 -9.976562 4.460938 -9.976562 10 v 55.976562 c 0 5.539063 4.449219 10 9.976562 10 h 84.042969 c 5.53125 0 9.980469 -4.460937 9.980469 -10 v -63.976562 c 0 -5.539062 -4.449219 -10 -9.980469 -10 z m 0 0"
     fill="#a4caee"
     id="path8"
     style="fill:url(#linearGradient10)"
     inkscape:label="Cara" />
  <path
     id="path19-9"
     style="display:inline;fill:url(#linearGradient21);fill-opacity:1;stroke-width:4;stroke-linecap:round;enable-background:new;stop-color:#000000"
     inkscape:label="Brillo"
     d="m 65.97852,32 c -2.74656,0 -5.228077,1.100887 -7.029301,2.888672 C 56.67526,37.145735 53.564017,40 50.316406,40 H 21.978516 C 16.450855,40 12,44.460038 12,50 v 3.998047 C 12.000861,48.45883 16.45139,44 21.978516,44 h 28.33789 c 3.247611,0 6.358853,-2.854265 8.632813,-5.111328 C 60.750442,37.100887 63.23196,36 65.97852,36 h 40.04296 C 111.54919,36 116,40.460038 116,46 v -4 c 0,-5.539962 -4.45082,-10 -9.97852,-10 z" />
  <path
     id="path39"
     d="M 64.740741,60 48.148148,92 h 3.555555 L 68.296297,60 Z M 63.555555,89.62963 V 92 h 16.592593 v -2.37037 z"
     style="fill:url(#linearGradient41);fill-opacity:1;stroke-width:1.18519"
     inkscape:label="Icono" />
</svg>
