<?xml version="1.0" encoding="UTF-8" standalone="no"?>
<svg
   width="64"
   height="64"
   version="1.1"
   viewBox="0 0 16.933 16.933"
   id="svg30"
   sodipodi:docname="folder-rust.svg"
   inkscape:version="1.4.2 (ebf0e940d0, 2025-05-08)"
   xmlns:inkscape="http://www.inkscape.org/namespaces/inkscape"
   xmlns:sodipodi="http://sodipodi.sourceforge.net/DTD/sodipodi-0.dtd"
   xmlns="http://www.w3.org/2000/svg"
   xmlns:svg="http://www.w3.org/2000/svg"
   xmlns:rdf="http://www.w3.org/1999/02/22-rdf-syntax-ns#"
   xmlns:cc="http://creativecommons.org/ns#"
   xmlns:dc="http://purl.org/dc/elements/1.1/">
  <sodipodi:namedview
     id="namedview30"
     pagecolor="#ffffff"
     bordercolor="#000000"
     borderopacity="0.25"
     inkscape:showpageshadow="2"
     inkscape:pageopacity="0.0"
     inkscape:pagecheckerboard="0"
     inkscape:deskcolor="#d1d1d1"
     inkscape:zoom="6.098796"
     inkscape:cx="22.7094"
     inkscape:cy="27.628404"
     inkscape:window-width="1366"
     inkscape:window-height="697"
     inkscape:window-x="0"
     inkscape:window-y="0"
     inkscape:window-maximized="1"
     inkscape:current-layer="svg30" />
  <defs
     id="defs8">
    <style
       type="text/css"
       id="style1" />
    <linearGradient
       id="linearGradient1911"
       x1="25.085"
       x2="25.085"
       y1="24.031"
       y2="26.412"
       gradientTransform="translate(-17.897 -21.385)"
       gradientUnits="userSpaceOnUse">
      <stop
         stop-color="#fcbc19"
         stop-opacity=".99608"
         offset="0"
         id="stop1"
         style="stop-color:#f74c00;stop-opacity:1;" />
      <stop
         stop-color="#f4b61f"
         offset="1"
         id="stop2"
         style="stop-color:#cc3b00;stop-opacity:1;" />
    </linearGradient>
    <linearGradient
       id="linearGradient4625"
       x1=".52918"
       x2="16.404"
       y1="5.0665"
       y2="5.0665"
       gradientUnits="userSpaceOnUse">
      <stop
         stop-color="#b78815"
         offset="0"
         id="stop3" />
      <stop
         stop-color="#e2b24b"
         stop-opacity="0"
         offset="1"
         id="stop4" />
    </linearGradient>
    <linearGradient
       id="linearGradient1951"
       x1="104.68911"
       x2="128.50089"
       y1="13.907892"
       y2="55.151108"
       gradientTransform="matrix(0.26458,0,0,0.26458,-20.108,-0.13539)"
       gradientUnits="userSpaceOnUse">
      <stop
         stop-color="#fce798"
         offset="0"
         id="stop5"
         style="stop-color:#f59300;stop-opacity:1;" />
      <stop
         stop-color="#ffc937"
         offset="1"
         id="stop6"
         style="stop-color:#f74c00;stop-opacity:1;" />
    </linearGradient>
    <linearGradient
       id="linearGradient11110"
       x1=".52917"
       x2="16.404"
       y1="5.3815"
       y2="5.3815"
       gradientUnits="userSpaceOnUse">
      <stop
         stop-color="#fff"
         offset="0"
         id="stop7" />
      <stop
         stop-color="#fff"
         stop-opacity="0"
         offset="1"
         id="stop8" />
    </linearGradient>
  </defs>
  <metadata
     id="metadata8">
    <rdf:RDF>
      <cc:Work
         rdf:about="">
        <dc:format>image/svg+xml</dc:format>
        <dc:type
           rdf:resource="http://purl.org/dc/dcmitype/StillImage" />
      </cc:Work>
    </rdf:RDF>
  </metadata>
  <path
     d="m1.1975 2.2489c-0.3653 0-0.66145 0.32575-0.66145 0.72759v2.9636c-0.0026 0.02629-0.0072 0.052-0.0072 0.07906v7.9373c0 0.40184 0.29614 0.72759 0.66144 0.72759h14.552c0.36531 0 0.66144-0.32575 0.66144-0.72759v-9.393c0-0.40184-0.29614-0.72759-0.66144-0.72759v5.16e-4h-8.1993l-0.89864-1.1095s-0.36607-0.478-1.0583-0.478h-1.3229z"
     color="#000000"
     color-rendering="auto"
     dominant-baseline="auto"
     fill="url(#linearGradient1911)"
     image-rendering="auto"
     shape-rendering="auto"
     solid-color="#000000"
     stop-color="#000000"
     style="font-feature-settings:normal;font-variant-alternates:normal;font-variant-caps:normal;font-variant-east-asian:normal;font-variant-ligatures:normal;font-variant-numeric:normal;font-variant-position:normal;font-variation-settings:normal;inline-size:0;isolation:auto;mix-blend-mode:normal;shape-margin:0;shape-padding:0;text-decoration-color:#000000;text-decoration-line:none;text-decoration-style:solid;text-indent:0;text-orientation:mixed;text-transform:none;white-space:normal"
     id="path8"
     inkscape:label="Fondo" />
  <path
     d="m0.52916 13.674v0.28215c0 0.20092 0.07357 0.3825 0.19327 0.51417s0.28553 0.21342 0.46818 0.21342h14.552c0.18265 0 0.34796-0.08175 0.46766-0.21342s0.19378-0.31325 0.19378-0.51417v-0.28215c0 0.20092-0.07409 0.3825-0.19378 0.51417-0.1197 0.13167-0.28501 0.21342-0.46766 0.21342h-14.552c-0.18265 0-0.34848-0.08176-0.46818-0.21342s-0.19327-0.31325-0.19327-0.51417z"
     fill="#e4a729"
     fill-opacity=".99608"
     stroke-width=".26458"
     id="path28"
     inkscape:label="Barra"
     style="fill:#cc3b00;fill-opacity:1" />
  <path
     d="m7.542 4.0979s-0.35919 0.47868-1.1575 0.79218c-0.03271 0.00587-0.06509 0.011575-0.10077 0.017052h-4.9608c-0.21986 0-0.41824 0.088552-0.56171 0.23202-0.13937 0.13936-0.22042 0.33333-0.2253 0.54569v0.51675c-0.0026 0.026291-0.0067 0.052014-0.0067 0.079064v7.3953c0 0.20092 0.07357 0.3825 0.19327 0.51417 0.1197 0.13167 0.28553 0.21342 0.46818 0.21342h14.552c0.18265 0 0.34796-0.08175 0.46766-0.21342 0.1197-0.13167 0.19378-0.31325 0.19378-0.51417v-8.851c0-0.20092-0.07408-0.38302-0.19378-0.51469-0.11945-0.13137-0.28449-0.21202-0.46665-0.21239h-7.4821z"
     fill="url(#linearGradient1951)"
     id="path29"
     inkscape:label="Cara" />
  <path
     d="m7.542 4.0979s-0.35919 0.47868-1.1575 0.79218c-0.03271 0.00587-0.06509 0.011575-0.10077 0.017052h-4.9608c-0.21986 0-0.41824 0.088552-0.56171 0.23202-0.13937 0.13936-0.22041 0.33333-0.2253 0.54569v0.38446c0.0049-0.21236 0.08593-0.40633 0.2253-0.54569 0.14347-0.14347 0.34185-0.23202 0.56171-0.23202h4.9608c0.03568-0.00548 0.06806-0.011184 0.10077-0.017052 0.75911-0.26303 1.2883-0.79218 1.2883-0.79218h8.0707c0.18216 3.704e-4 0.34718 0.081016 0.46663 0.21239 0.1197 0.13167 0.19378 0.31377 0.19378 0.51469v-0.38446c0-0.20092-0.07408-0.38302-0.19378-0.51469-0.11945-0.13137-0.28447-0.21202-0.46663-0.21239h-7.4821zm-7.0062 2.1037c-0.0026 0.026291-0.0067 0.052013-0.0067 0.079063v0.38447c0-0.02705 0.0041-0.052773 0.0067-0.079063z"
     fill="url(#linearGradient11110)"
     opacity=".3"
     id="path30"
     inkscape:label="Destello" />
  <path
     d="m 11.986735,9.3367665 -0.299626,-0.185577 c -0.0024,-0.02921 -0.0054,-0.05835 -0.0086,-0.08737 l 0.258017,-0.240206 c 0.02621,-0.02442 0.038,-0.06062 0.03087,-0.09555 -0.0069,-0.0352 -0.03154,-0.06408 -0.06501,-0.07645 l -0.3297,-0.122832 c -0.0082,-0.02855 -0.01694,-0.05689 -0.0258,-0.0853 l 0.205472,-0.285319 c 0.02097,-0.02895 0.02522,-0.06674 0.01164,-0.09961 -0.01369,-0.03293 -0.04345,-0.05656 -0.07844,-0.06235 l -0.347466,-0.05656 c -0.01347,-0.02635 -0.02755,-0.05223 -0.04179,-0.07778 l 0.14611,-0.320717 c 0.0149,-0.03267 0.01185,-0.07033 -0.008,-0.100341 -0.0198,-0.02974 -0.0535,-0.04717 -0.08944,-0.04578 l -0.352856,0.01225 c -0.01817,-0.02276 -0.03679,-0.04538 -0.0557,-0.06754 l 0.08123,-0.343294 c 0.0082,-0.03486 -0.002,-0.07166 -0.02754,-0.09691 -0.02522,-0.02525 -0.06174,-0.03569 -0.09694,-0.0275 l -0.343276,0.08121 c -0.02222,-0.01885 -0.04485,-0.03747 -0.06773,-0.05569 l 0.01237,-0.352829 c 0.0014,-0.0357 -0.01603,-0.06961 -0.04577,-0.0894 -0.02987,-0.01993 -0.0676,-0.02294 -0.100409,-0.0081 l -0.320053,0.146047 c -0.02589,-0.01419 -0.051839,-0.02825 -0.077779,-0.04183 L 9.893747,6.2040525 c -0.00568,-0.03522 -0.029346,-0.06511 -0.062413,-0.07848 -0.032941,-0.01372 -0.070927,-0.0093 -0.09961,0.0116 l -0.2853091,0.205423 c -0.028078,-0.0089 -0.05636,-0.01754 -0.084638,-0.02573 l -0.1228341,-0.32964 c -0.012516,-0.03358 -0.041454,-0.05821 -0.076452,-0.06518 -0.035066,-0.0069 -0.070997,0.0048 -0.095549,0.03085 l -0.2402724,0.257973 c -0.029012,-0.0032 -0.058221,-0.0061 -0.087365,-0.0085 l -0.185644,-0.30029 c -0.018764,-0.03036 -0.052032,-0.04886 -0.088032,-0.04886 -0.036063,0 -0.068935,0.0185 -0.087365,0.04886 l -0.1856428,0.300283 c -0.029209,0.0024 -0.058422,0.0053 -0.087365,0.0085 L 7.8649831,5.9528985 c -0.024355,-0.02607 -0.060484,-0.03774 -0.095549,-0.03085 -0.035133,0.007 -0.064077,0.0316 -0.076452,0.06518 l -0.1228322,0.329627 c -0.028546,0.0082 -0.056824,0.01684 -0.084638,0.02573 l -0.285319,-0.205426 c -0.029012,-0.02095 -0.066805,-0.02539 -0.099676,-0.0116 -0.032935,0.01364 -0.056625,0.04354 -0.062348,0.07848 l -0.056625,0.347373 c -0.026217,0.01358 -0.052168,0.02757 -0.077851,0.04183 L 6.5835753,6.4472015 c -0.032538,-0.01488 -0.070278,-0.0118 -0.1003062,0.0081 -0.029763,0.01978 -0.047163,0.0537 -0.0458,0.0894 l 0.012291,0.352829 c -0.022797,0.01821 -0.045386,0.03685 -0.067709,0.05569 l -0.343321,-0.0812 c -0.03488,-0.0081 -0.071669,0.0022 -0.096922,0.0275 -0.025386,0.02532 -0.035692,0.06183 -0.027507,0.09691 l 0.080538,0.343294 c -0.018764,0.02222 -0.037328,0.04478 -0.055561,0.06754 L 5.58641,7.3950225 c -0.035558,-0.0011 -0.06962,0.01603 -0.089408,0.04578 -0.019927,0.02961 -0.022929,0.06754 -0.00812,0.100341 l 0.1460669,0.320717 c -0.01419,0.02575 -0.028258,0.05163 -0.04184,0.07778 l -0.3474131,0.05656 c -0.035286,0.0057 -0.065049,0.02934 -0.07849,0.06235 -0.01366,0.03307 -0.00921,0.071 0.011597,0.09961 l 0.2054348,0.285318 c -0.00894,0.02815 -0.0176,0.05649 -0.025798,0.0853 l -0.3296684,0.122833 c -0.033442,0.01252 -0.058082,0.04145 -0.065041,0.07645 -0.00696,0.03507 0.0047,0.07093 0.030847,0.09555 l 0.2579979,0.240206 c -0.00321,0.02901 -0.00609,0.05822 -0.00853,0.08737 l -0.2996354,0.185578 c -0.030376,0.01882 -0.048872,0.05197 -0.048872,0.08803 0,0.03613 0.018499,0.069 0.048872,0.08743 l 0.2996311,0.185578 c 0.00245,0.02921 0.00533,0.05835 0.00853,0.08737 L 4.9945887,10.025383 c -0.026143,0.02435 -0.037814,0.06055 -0.030847,0.09555 0.00696,0.0352 0.031598,0.06401 0.06504,0.07645 l 0.3296669,0.122832 c 0.00819,0.02855 0.016845,0.0569 0.025798,0.0853 l -0.2054389,0.285253 c -0.020893,0.02907 -0.025325,0.06687 -0.011598,0.09967 0.013721,0.03307 0.043543,0.0567 0.079174,0.06235 l 0.3474063,0.05649 c 0.013578,0.02641 0.027507,0.0523 0.04184,0.07785 L 5.4895713,11.30718 c -0.014884,0.03254 -0.011801,0.07027 0.00812,0.100347 0.019927,0.02981 0.05385,0.04725 0.089408,0.04577 l 0.3521838,-0.01231 c 0.018356,0.02289 0.036862,0.04531 0.0557,0.06767 l -0.080538,0.343273 c -0.00819,0.03479 0.00212,0.07099 0.027507,0.0962 0.025186,0.02548 0.061836,0.03561 0.096922,0.02742 l 0.3433141,-0.08051 c 0.022316,0.01899 0.044914,0.03739 0.067709,0.05556 l -0.012291,0.352857 c -0.00137,0.03567 0.016049,0.0696 0.0458,0.08937 0.029622,0.0198 0.06757,0.02289 0.1003061,0.008 L 6.903835,12.25479 c 0.025817,0.01429 0.051768,0.02827 0.077851,0.04185 l 0.056624,0.347401 c 0.00572,0.03533 0.029345,0.06521 0.062413,0.07912 0.032935,0.01368 0.070932,0.0094 0.099608,-0.01144 l 0.2853188,-0.205404 c 0.028146,0.0089 0.056492,0.01776 0.085303,0.02589 l 0.1228314,0.329567 c 0.012516,0.03347 0.041454,0.05829 0.076452,0.06507 0.035066,0.0071 0.070997,-0.0047 0.095616,-0.03087 l 0.2402055,-0.257971 c 0.029012,0.0035 0.058221,0.0061 0.087365,0.0088 l 0.1856427,0.299558 c 0.018703,0.03028 0.051967,0.0489 0.087365,0.0489 0.035465,0 0.068935,-0.01858 0.088097,-0.0489 l 0.1856427,-0.299559 c 0.029209,-0.0026 0.058354,-0.0054 0.087365,-0.0088 l 0.2402094,0.257946 c 0.024354,0.02621 0.060551,0.03793 0.095616,0.03087 0.035133,-0.0069 0.064009,-0.03161 0.076387,-0.06507 l 0.1228969,-0.329567 c 0.028479,-0.0082 0.056824,-0.01694 0.085303,-0.02589 l 0.2853186,0.205404 c 0.028947,0.02082 0.066806,0.02528 0.09961,0.01144 0.033004,-0.01347 0.056695,-0.04351 0.062413,-0.07911 L 9.95191,12.296622 c 0.026214,-0.01347 0.052165,-0.02769 0.077853,-0.04185 l 0.320118,0.146049 c 0.03247,0.0149 0.07027,0.01185 0.100273,-0.008 0.02974,-0.0198 0.04711,-0.0537 0.04585,-0.08937 l -0.01231,-0.352857 c 0.02276,-0.01817 0.04539,-0.03659 0.06767,-0.05556 l 0.343276,0.08051 c 0.03487,0.0082 0.07166,-0.0019 0.09694,-0.02742 0.02536,-0.02528 0.03567,-0.06169 0.02749,-0.09621 L 10.9385,11.508641 c 0.01899,-0.02236 0.03747,-0.04478 0.05556,-0.06767 l 0.352921,0.01231 c 0.03553,0.0015 0.0696,-0.01597 0.08937,-0.04577 0.02001,-0.02975 0.02301,-0.06767 0.0082,-0.100346 l -0.146049,-0.320052 c 0.01429,-0.02589 0.02822,-0.05184 0.04172,-0.07785 l 0.347398,-0.0565 c 0.0354,-0.0057 0.06516,-0.02927 0.07853,-0.06235 0.01369,-0.033 0.0094,-0.071 -0.01164,-0.09967 l -0.205538,-0.285227 c 0.0089,-0.02821 0.01756,-0.05649 0.02582,-0.0853 l 0.329633,-0.122828 c 0.03353,-0.01258 0.05823,-0.04139 0.06507,-0.07645 0.0071,-0.03507 -0.0047,-0.07093 -0.03087,-0.09555 L 11.680652,9.785175 c 0.003,-0.02901 0.0059,-0.05822 0.0086,-0.08737 l 0.299644,-0.185578 c 0.03041,-0.01876 0.0489,-0.05197 0.0489,-0.08743 0,-0.03533 -0.01837,-0.06887 -0.04884,-0.08803 z M 9.9801206,11.827781 C 9.8654073,11.803101 9.7930797,11.68992 9.8176318,11.575267 c 0.02449,-0.114646 0.1372041,-0.187706 0.2519162,-0.163086 0.114646,0.02449 0.18764,0.137801 0.163088,0.252515 -0.02455,0.114646 -0.137204,0.187639 -0.2518501,0.163077 z M 9.8783871,11.138506 c -0.1044033,-0.02242 -0.2074675,0.04405 -0.2292931,0.148782 l -0.1064621,0.496778 c -0.3283694,0.148845 -0.696263,0.232086 -1.0784622,0.232086 -0.3931119,0 -0.7643988,-0.08669 -1.0988898,-0.242266 L 7.2588137,11.27704 C 7.2364566,11.172574 7.1339202,11.105702 7.0295207,11.128259 l -0.4388905,0.09416 C 6.5094062,11.138506 6.4336449,11.049078 6.3640253,10.954925 h 2.1363375 c 0.024155,0 0.040256,-0.0044 0.040256,-0.02635 v -0.757543 c 0,-0.02196 -0.01611,-0.02635 -0.040256,-0.02635 H 7.8758288 V 9.6662665 h 0.675037 c 0.061615,0 0.3297003,0.01764 0.415003,0.3603755 0.026815,0.105063 0.08597,0.447671 0.126225,0.557528 0.04019,0.122897 0.2034102,0.368558 0.3774753,0.368558 h 1.0647549 c 0.01205,0 0.02495,-0.0014 0.0386,-0.0038 -0.0738,0.100273 -0.154969,0.19516 -0.241669,0.283856 l -0.4490728,-0.09622 z m -2.9553245,0.67903 c -0.1147134,0.02468 -0.2272967,-0.04831 -0.2519163,-0.163154 -0.024487,-0.114579 0.048374,-0.227894 0.1631526,-0.252447 0.1146459,-0.02455 0.2272966,0.04851 0.2518494,0.163087 0.024487,0.114646 -0.048374,0.227964 -0.1630857,0.252514 z M 6.1108049,8.5349065 c 0.047509,0.107128 -8.183e-4,0.232753 -0.1078407,0.280462 -0.1071546,0.04758 -0.2320609,-7.99e-4 -0.2798357,-0.107794 -0.047782,-0.106995 8.173e-4,-0.232753 0.1078387,-0.280528 0.1071607,-0.04744 0.2320609,8.65e-4 0.2798359,0.107859 z m -0.2491216,0.589668 0.4572952,-0.20341 c 0.097605,-0.04332 0.141967,-0.157632 0.098291,-0.255243 L 6.3230777,8.4529975 H 6.693034 V 10.1182 H 5.949049 C 5.884273,9.8903035 5.849394,9.6500315 5.849394,9.4016425 c 0,-0.09489 0.00513,-0.188373 0.014946,-0.280528 z m 2.0066932,-0.161756 v -0.49139 H 8.748819 c 0.045514,0 0.3214493,0.05263 0.3214493,0.258704 0,0.17127 -0.2115938,0.232686 -0.3855928,0.232686 H 7.8655819 Z m 3.2010515,0.442217 c 0,0.06527 -0.0024,0.129684 -0.0071,0.193829 h -0.268217 c -0.02681,0 -0.03759,0.01764 -0.03759,0.04385 v 0.122831 c 0,0.2893785 -0.163154,0.3528565 -0.306478,0.3685595 -0.136513,0.01537 -0.287358,-0.05702 -0.305789,-0.140597 C 10.063634,9.5410425 9.9298855,9.4448275 9.7182915,9.2769495 9.981054,9.1104025 10.254062,8.8640755 10.254062,8.5330445 c 0,-0.355517 -0.243665,-0.579354 -0.4095458,-0.689276 C 9.6111628,7.6902625 9.3531251,7.6595215 9.2835255,7.6595215 H 6.5124137 C 6.8884582,7.2405255 7.3996764,6.9429375 7.973042,6.8337475 l 0.3269721,0.342568 c 0.073659,0.07712 0.1958251,0.08058 0.2736745,0.0063 l 0.3658308,-0.349444 c 0.7643987,0.142633 1.4128206,0.618985 1.7882326,1.276189 l -0.250519,0.565048 c -0.04319,0.09761 9.31e-4,0.212326 0.09827,0.25531 l 0.481943,0.214255 c 0.0084,0.0853 0.01265,0.172004 0.01265,0.259302 z M 8.2983507,6.5455405 c 0.084638,-0.08121 0.219046,-0.0778 0.2996247,0.0069 0.080511,0.08463 0.077784,0.219073 -0.00704,0.300283 -0.084638,0.08122 -0.2191127,0.0778 -0.2996246,-0.007 -0.080514,-0.08463 -0.077786,-0.219068 0.00704,-0.300286 z m 2.4844293,1.999613 c 0.04744,-0.107128 0.172674,-0.155634 0.279796,-0.107859 0.107193,0.04751 0.155644,0.173333 0.107867,0.280528 -0.04745,0.107128 -0.172673,0.155568 -0.279795,0.107794 -0.107194,-0.04751 -0.155625,-0.173333 -0.107868,-0.280463 z"
     fill="#ffffff"
     id="path5"
     style="stroke-width:0.0665387" />
</svg>
