<?xml version="1.0" encoding="UTF-8" standalone="no"?>
<svg
   width="64"
   height="64"
   version="1.1"
   viewBox="0 0 16.933 16.933"
   id="svg30"
   sodipodi:docname="folder-matlab.svg"
   inkscape:version="1.4.2 (ebf0e940d0, 2025-05-08)"
   xmlns:inkscape="http://www.inkscape.org/namespaces/inkscape"
   xmlns:sodipodi="http://sodipodi.sourceforge.net/DTD/sodipodi-0.dtd"
   xmlns:xlink="http://www.w3.org/1999/xlink"
   xmlns="http://www.w3.org/2000/svg"
   xmlns:svg="http://www.w3.org/2000/svg"
   xmlns:rdf="http://www.w3.org/1999/02/22-rdf-syntax-ns#"
   xmlns:cc="http://creativecommons.org/ns#"
   xmlns:dc="http://purl.org/dc/elements/1.1/">
  <sodipodi:namedview
     id="namedview30"
     pagecolor="#ffffff"
     bordercolor="#000000"
     borderopacity="0.25"
     inkscape:showpageshadow="2"
     inkscape:pageopacity="0.0"
     inkscape:pagecheckerboard="0"
     inkscape:deskcolor="#d1d1d1"
     inkscape:zoom="5.6568543"
     inkscape:cx="5.7452426"
     inkscape:cy="38.448931"
     inkscape:window-width="1366"
     inkscape:window-height="697"
     inkscape:window-x="0"
     inkscape:window-y="0"
     inkscape:window-maximized="1"
     inkscape:current-layer="svg30" />
  <defs
     id="defs8">
    <linearGradient
       id="linearGradient1"
       inkscape:collect="always">
      <stop
         style="stop-color:#e6e6e6;stop-opacity:1;"
         offset="0"
         id="stop9" />
      <stop
         style="stop-color:#b2b2b2;stop-opacity:1;"
         offset="1"
         id="stop10" />
    </linearGradient>
    <style
       type="text/css"
       id="style1" />
    <linearGradient
       id="linearGradient1911"
       x1="25.085"
       x2="25.085"
       y1="24.031"
       y2="26.412"
       gradientTransform="translate(-17.897 -21.385)"
       gradientUnits="userSpaceOnUse">
      <stop
         stop-color="#fcbc19"
         stop-opacity=".99608"
         offset="0"
         id="stop1" />
      <stop
         stop-color="#f4b61f"
         offset="1"
         id="stop2" />
    </linearGradient>
    <linearGradient
       id="linearGradient4625"
       x1=".52918"
       x2="16.404"
       y1="5.0665"
       y2="5.0665"
       gradientUnits="userSpaceOnUse">
      <stop
         stop-color="#b78815"
         offset="0"
         id="stop3" />
      <stop
         stop-color="#e2b24b"
         stop-opacity="0"
         offset="1"
         id="stop4" />
    </linearGradient>
    <linearGradient
       id="linearGradient1951"
       x1="104.68911"
       x2="128.50089"
       y1="13.907892"
       y2="55.151108"
       gradientTransform="matrix(0.26458,0,0,0.27177348,-20.108,-0.25048544)"
       gradientUnits="userSpaceOnUse">
      <stop
         stop-color="#fce798"
         offset="0"
         id="stop5"
         style="stop-color:#40383e;stop-opacity:1;" />
      <stop
         stop-color="#ffc937"
         offset="1"
         id="stop6"
         style="stop-color:#1a1a1a;stop-opacity:1;" />
    </linearGradient>
    <linearGradient
       id="linearGradient11110"
       x1=".52917"
       x2="16.404"
       y1="5.3815"
       y2="5.3815"
       gradientUnits="userSpaceOnUse">
      <stop
         stop-color="#fff"
         offset="0"
         id="stop7" />
      <stop
         stop-color="#fff"
         stop-opacity="0"
         offset="1"
         id="stop8" />
    </linearGradient>
    <clipPath
       id="clip0_2043_38317">
      <rect
         width="256"
         height="256"
         fill="#ffffff"
         id="rect29"
         x="0"
         y="0" />
    </clipPath>
    <mask
       id="mask0_2043_38317"
       maskUnits="userSpaceOnUse"
       x="17"
       y="34"
       width="224"
       height="138">
      <path
         fill-rule="evenodd"
         clip-rule="evenodd"
         d="M 104.425,42.3784 C 100.056,37.0733 93.5437,34 86.6712,34 H 29 C 22.3726,34 17,39.3726 17,46 V 58.1371 68.2 160 c 0,6.627 5.3726,12 12,12 h 200 c 6.627,0 12,-5.373 12,-12 V 70.1371 c 0,-6.6274 -5.373,-12 -12,-12 H 117.404 Z"
         fill="url(#paint0_linear_2043_38317)"
         id="path2" />
    </mask>
    <linearGradient
       id="paint0_linear_2043_38317"
       x1="17"
       y1="34"
       x2="197.76801"
       y2="215.142"
       gradientUnits="userSpaceOnUse">
      <stop
         stop-color="#05815D"
         id="stop11" />
      <stop
         offset="1"
         stop-color="#0C575F"
         id="stop12" />
    </linearGradient>
    <filter
       id="filter0_f_2043_38317"
       x="-20"
       y="25"
       width="298"
       height="184"
       filterUnits="userSpaceOnUse"
       color-interpolation-filters="sRGB">
      <feFlood
         flood-opacity="0"
         result="BackgroundImageFix"
         id="feFlood7" />
      <feBlend
         mode="normal"
         in="SourceGraphic"
         in2="BackgroundImageFix"
         result="shape"
         id="feBlend7" />
      <feGaussianBlur
         stdDeviation="18.5"
         result="effect1_foregroundBlur_2043_38317"
         id="feGaussianBlur7" />
    </filter>
    <filter
       id="filter1_ii_2043_38317"
       x="17"
       y="62"
       width="224"
       height="148"
       filterUnits="userSpaceOnUse"
       color-interpolation-filters="sRGB">
      <feFlood
         flood-opacity="0"
         result="BackgroundImageFix"
         id="feFlood8" />
      <feBlend
         mode="normal"
         in="SourceGraphic"
         in2="BackgroundImageFix"
         result="shape"
         id="feBlend8" />
      <feColorMatrix
         in="SourceAlpha"
         type="matrix"
         values="0 0 0 0 0 0 0 0 0 0 0 0 0 0 0 0 0 0 127 0"
         result="hardAlpha"
         id="feColorMatrix8" />
      <feOffset
         dy="-4"
         id="feOffset8" />
      <feComposite
         in2="hardAlpha"
         operator="arithmetic"
         k2="-1"
         k3="1"
         id="feComposite8"
         k1="0"
         k4="0" />
      <feColorMatrix
         type="matrix"
         values="0 0 0 0 0 0 0 0 0 0 0 0 0 0 0 0 0 0 0.25 0"
         id="feColorMatrix9" />
      <feBlend
         mode="normal"
         in2="shape"
         result="effect1_innerShadow_2043_38317"
         id="feBlend9" />
      <feColorMatrix
         in="SourceAlpha"
         type="matrix"
         values="0 0 0 0 0 0 0 0 0 0 0 0 0 0 0 0 0 0 127 0"
         result="hardAlpha"
         id="feColorMatrix10" />
      <feOffset
         dy="4"
         id="feOffset10" />
      <feComposite
         in2="hardAlpha"
         operator="arithmetic"
         k2="-1"
         k3="1"
         id="feComposite10"
         k1="0"
         k4="0" />
      <feColorMatrix
         type="matrix"
         values="0 0 0 0 1 0 0 0 0 1 0 0 0 0 1 0 0 0 0.25 0"
         id="feColorMatrix11" />
      <feBlend
         mode="normal"
         in2="effect1_innerShadow_2043_38317"
         result="effect2_innerShadow_2043_38317"
         id="feBlend11" />
    </filter>
    <linearGradient
       id="paint1_linear_2043_38317"
       x1="17"
       y1="62"
       x2="241"
       y2="210"
       gradientUnits="userSpaceOnUse">
      <stop
         stop-color="#5F585E"
         id="stop13" />
      <stop
         offset="1"
         stop-color="#010101"
         id="stop14" />
    </linearGradient>
    <linearGradient
       id="paint2_linear_2043_38317"
       x1="130.597"
       y1="133.146"
       x2="123.753"
       y2="111.047"
       gradientUnits="userSpaceOnUse">
      <stop
         stop-color="#551122"
         id="stop15" />
      <stop
         offset="0.23"
         stop-color="#552233"
         id="stop16" />
      <stop
         offset="0.36"
         stop-color="#553344"
         id="stop17" />
      <stop
         offset="0.51"
         stop-color="#664455"
         id="stop18" />
      <stop
         offset="0.66"
         stop-color="#556688"
         id="stop19" />
      <stop
         offset="0.84"
         stop-color="#2299DD"
         id="stop20" />
    </linearGradient>
    <linearGradient
       id="paint3_linear_2043_38317"
       x1="179.942"
       y1="146.96001"
       x2="111.123"
       y2="130.061"
       gradientUnits="userSpaceOnUse">
      <stop
         offset="0.081"
         stop-color="#CC3333"
         id="stop21" />
      <stop
         offset="0.189"
         stop-color="#DE5239"
         id="stop22" />
      <stop
         offset="0.313"
         stop-color="#F06E3E"
         id="stop23" />
      <stop
         offset="0.421"
         stop-color="#FA8042"
         id="stop24" />
      <stop
         offset="0.5"
         stop-color="#FE8643"
         id="stop25" />
      <stop
         offset="0.58"
         stop-color="#FA7F42"
         id="stop26" />
      <stop
         offset="0.696"
         stop-color="#EF6C3E"
         id="stop27" />
      <stop
         offset="0.833"
         stop-color="#DC4C37"
         id="stop28" />
      <stop
         offset="0.916"
         stop-color="#CF3633"
         id="stop29" />
    </linearGradient>
    <linearGradient
       inkscape:collect="always"
       xlink:href="#linearGradient1"
       id="linearGradient10"
       x1="8.4662905"
       y1="0.38779327"
       x2="8.4662905"
       y2="16.262674"
       gradientUnits="userSpaceOnUse" />
  </defs>
  <metadata
     id="metadata8">
    <rdf:RDF>
      <cc:Work
         rdf:about="">
        <dc:format>image/svg+xml</dc:format>
        <dc:type
           rdf:resource="http://purl.org/dc/dcmitype/StillImage" />
      </cc:Work>
    </rdf:RDF>
  </metadata>
  <path
     d="m 1.1975,2.2488995 c -0.3653,0 -0.66145,0.3183509 -0.66145,0.7110636 v 2.8962854 c -0.0026,0.025693 -0.0072,0.050819 -0.0072,0.077264 v 7.7570135 c 0,0.392713 0.29614,0.711064 0.66144,0.711064 h 14.552 c 0.36531,0 0.66144,-0.318351 0.66144,-0.711064 V 4.5108772 c 0,-0.3927127 -0.29614,-0.7110637 -0.66144,-0.7110637 v 5.043e-4 H 7.54299 L 6.64435,2.7160188 c 0,0 -0.36607,-0.4671428 -1.0583,-0.4671428 h -1.3229 z"
     color="#000000"
     color-rendering="auto"
     dominant-baseline="auto"
     fill="url(#linearGradient1911)"
     image-rendering="auto"
     shape-rendering="auto"
     solid-color="#000000"
     stop-color="#000000"
     style="font-variant-ligatures:normal;font-variant-position:normal;font-variant-caps:normal;font-variant-numeric:normal;font-variant-alternates:normal;font-variant-east-asian:normal;font-feature-settings:normal;font-variation-settings:normal;text-indent:0;text-decoration-line:none;text-decoration-style:solid;text-decoration-color:#000000;text-transform:none;text-orientation:mixed;white-space:normal;shape-padding:0;shape-margin:0;inline-size:0;isolation:auto;mix-blend-mode:normal;fill:url(#linearGradient10);fill-opacity:1;stroke-width:0.988578"
     id="path8"
     inkscape:label="Fondo" />
  <path
     d="m 7.542,4.0979007 c 0,0 -0.35919,0.4916945 -1.1575,0.813718 -0.03271,0.00603 -0.06509,0.01189 -0.10077,0.017516 h -4.9608 c -0.21986,0 -0.41824,0.09096 -0.56171,0.2383283 C 0.62185,5.3106115 0.5408,5.5098552 0.53592,5.727989 v 0.5307995 c -0.0026,0.027006 -0.0067,0.053428 -0.0067,0.081214 v 7.5963655 c 0,0.206383 0.07357,0.3929 0.19327,0.528149 0.1197,0.13525 0.28553,0.219223 0.46818,0.219223 h 14.552 c 0.18265,0 0.34796,-0.08397 0.46766,-0.219223 0.1197,-0.135249 0.19378,-0.321766 0.19378,-0.528149 V 4.8447241 c 0,-0.2063827 -0.07408,-0.3934337 -0.19378,-0.5286836 C 16.09088,4.1810988 15.92584,4.0982561 15.74368,4.097876 h -7.4821 z"
     fill="url(#linearGradient1951)"
     id="path29"
     inkscape:label="Cara"
     style="fill:url(#linearGradient1951);stroke-width:1.0135" />
  <path
     d="m0.52916 13.674v0.28215c0 0.20092 0.07357 0.3825 0.19327 0.51417s0.28553 0.21342 0.46818 0.21342h14.552c0.18265 0 0.34796-0.08175 0.46766-0.21342s0.19378-0.31325 0.19378-0.51417v-0.28215c0 0.20092-0.07409 0.3825-0.19378 0.51417-0.1197 0.13167-0.28501 0.21342-0.46766 0.21342h-14.552c-0.18265 0-0.34848-0.08176-0.46818-0.21342s-0.19327-0.31325-0.19327-0.51417z"
     fill="#e4a729"
     fill-opacity=".99608"
     stroke-width=".26458"
     id="path28"
     inkscape:label="Barra"
     style="fill:#1a1a1a;fill-opacity:1" />
  <path
     d="m7.542 4.0979s-0.35919 0.47868-1.1575 0.79218c-0.03271 0.00587-0.06509 0.011575-0.10077 0.017052h-4.9608c-0.21986 0-0.41824 0.088552-0.56171 0.23202-0.13937 0.13936-0.22041 0.33333-0.2253 0.54569v0.38446c0.0049-0.21236 0.08593-0.40633 0.2253-0.54569 0.14347-0.14347 0.34185-0.23202 0.56171-0.23202h4.9608c0.03568-0.00548 0.06806-0.011184 0.10077-0.017052 0.75911-0.26303 1.2883-0.79218 1.2883-0.79218h8.0707c0.18216 3.704e-4 0.34718 0.081016 0.46663 0.21239 0.1197 0.13167 0.19378 0.31377 0.19378 0.51469v-0.38446c0-0.20092-0.07408-0.38302-0.19378-0.51469-0.11945-0.13137-0.28447-0.21202-0.46663-0.21239h-7.4821zm-7.0062 2.1037c-0.0026 0.026291-0.0067 0.052013-0.0067 0.079063v0.38447c0-0.02705 0.0041-0.052773 0.0067-0.079063z"
     fill="url(#linearGradient11110)"
     opacity=".3"
     id="path30"
     inkscape:label="Destello" />
  <g
     id="g1"
     inkscape:label="Icono"
     transform="matrix(0.07065251,0,0,0.07065251,-0.62320499,-0.15328713)">
    <path
       d="m 74,141.481 30.471,-12.311 c 3.093,-4.087 6.576,-7.864 10.399,-11.278 2.524,-1.338 7.264,-0.612 15.943,-11.394 C 139.225,95.9846 141.901,87 145.838,87 c 6.233,0 10.821,13.458 17.779,33.835 4.961,15.566 10.781,30.844 17.433,45.765 -7.263,-6.768 -13.457,-14.07 -20.53,-13.879 -6.576,0.153 -13.878,7.953 -21.869,17.969 -6.347,8.029 -14.758,13.535 -18.046,13.42 0,0 -8.488,-24.01 -15.599,-27.909 -1.475,-0.603 -3.072,-0.848 -4.66,-0.715 -1.5883,0.132 -3.1224,0.639 -4.4771,1.479 L 74,141.443 Z"
       fill="#4499dd"
       id="path6" />
    <path
       d="m 142.055,89.7559 c -2.561,3.4409 -5.658,9.7492 -11.24,16.7461 -8.679,10.781 -13.382,10.055 -15.943,11.393 -3.842,3.395 -7.326,7.174 -10.399,11.279 l 12.616,9.213 c 10.706,-14.604 16.44,-30.433 20.913,-40.6788 1.121,-2.7622 2.477,-5.4228 4.053,-7.9523 z"
       fill="url(#paint2_linear_2043_38317)"
       id="path7"
       style="fill:url(#paint2_linear_2043_38317)" />
    <path
       d="m 145.876,87 c -8.334,0 -14.031,43.891 -44.808,68.398 8.641,-1.415 16.134,20.033 19.575,28.712 15.293,-2.599 27.527,-31.848 39.877,-31.389 7.072,0.268 13.266,7.111 20.53,13.879 C 164.457,131.732 156.697,87 145.876,87 Z"
       fill="url(#paint3_linear_2043_38317)"
       id="path8-3"
       style="fill:url(#paint3_linear_2043_38317)" />
  </g>
</svg>
