<?xml version="1.0" encoding="UTF-8" standalone="no"?>
<svg
   width="64"
   height="64"
   version="1.1"
   viewBox="0 0 16.933 16.933"
   id="svg30"
   sodipodi:docname="folder-Arduino.svg"
   inkscape:version="1.4.2 (ebf0e940d0, 2025-05-08)"
   xmlns:inkscape="http://www.inkscape.org/namespaces/inkscape"
   xmlns:sodipodi="http://sodipodi.sourceforge.net/DTD/sodipodi-0.dtd"
   xmlns="http://www.w3.org/2000/svg"
   xmlns:svg="http://www.w3.org/2000/svg"
   xmlns:rdf="http://www.w3.org/1999/02/22-rdf-syntax-ns#"
   xmlns:cc="http://creativecommons.org/ns#"
   xmlns:dc="http://purl.org/dc/elements/1.1/">
  <sodipodi:namedview
     id="namedview30"
     pagecolor="#ffffff"
     bordercolor="#000000"
     borderopacity="0.25"
     inkscape:showpageshadow="2"
     inkscape:pageopacity="0.0"
     inkscape:pagecheckerboard="0"
     inkscape:deskcolor="#d1d1d1"
     inkscape:zoom="8.625"
     inkscape:cx="24.405797"
     inkscape:cy="31.710145"
     inkscape:window-width="1366"
     inkscape:window-height="697"
     inkscape:window-x="0"
     inkscape:window-y="0"
     inkscape:window-maximized="1"
     inkscape:current-layer="svg30" />
  <defs
     id="defs8">
    <style
       type="text/css"
       id="style1" />
    <linearGradient
       id="linearGradient1911"
       x1="25.085"
       x2="25.085"
       y1="24.031"
       y2="26.412"
       gradientTransform="translate(-17.897 -21.385)"
       gradientUnits="userSpaceOnUse">
      <stop
         stop-color="#fcbc19"
         stop-opacity=".99608"
         offset="0"
         id="stop1" />
      <stop
         stop-color="#f4b61f"
         offset="1"
         id="stop2"
         style="stop-color:#029398;stop-opacity:1;" />
    </linearGradient>
    <linearGradient
       id="linearGradient4625"
       x1=".52918"
       x2="16.404"
       y1="5.0665"
       y2="5.0665"
       gradientUnits="userSpaceOnUse">
      <stop
         stop-color="#b78815"
         offset="0"
         id="stop3" />
      <stop
         stop-color="#e2b24b"
         stop-opacity="0"
         offset="1"
         id="stop4" />
    </linearGradient>
    <linearGradient
       id="linearGradient1951"
       x1="104.68911"
       x2="128.50089"
       y1="13.907892"
       y2="55.151108"
       gradientTransform="matrix(0.26458,0,0,0.26458,-20.108,-0.13539)"
       gradientUnits="userSpaceOnUse">
      <stop
         stop-color="#fce798"
         offset="0"
         id="stop5"
         style="stop-color:#07a7ad;stop-opacity:1;" />
      <stop
         stop-color="#ffc937"
         offset="1"
         id="stop6"
         style="stop-color:#029196;stop-opacity:1;" />
    </linearGradient>
    <linearGradient
       id="linearGradient11110"
       x1=".52917"
       x2="16.404"
       y1="5.3815"
       y2="5.3815"
       gradientUnits="userSpaceOnUse">
      <stop
         stop-color="#fff"
         offset="0"
         id="stop7" />
      <stop
         stop-color="#fff"
         stop-opacity="0"
         offset="1"
         id="stop8" />
    </linearGradient>
  </defs>
  <metadata
     id="metadata8">
    <rdf:RDF>
      <cc:Work
         rdf:about="">
        <dc:format>image/svg+xml</dc:format>
        <dc:type
           rdf:resource="http://purl.org/dc/dcmitype/StillImage" />
      </cc:Work>
    </rdf:RDF>
  </metadata>
  <path
     d="m1.1975 2.2489c-0.3653 0-0.66145 0.32575-0.66145 0.72759v2.9636c-0.0026 0.02629-0.0072 0.052-0.0072 0.07906v7.9373c0 0.40184 0.29614 0.72759 0.66144 0.72759h14.552c0.36531 0 0.66144-0.32575 0.66144-0.72759v-9.393c0-0.40184-0.29614-0.72759-0.66144-0.72759v5.16e-4h-8.1993l-0.89864-1.1095s-0.36607-0.478-1.0583-0.478h-1.3229z"
     color="#000000"
     color-rendering="auto"
     dominant-baseline="auto"
     fill="url(#linearGradient1911)"
     image-rendering="auto"
     shape-rendering="auto"
     solid-color="#000000"
     stop-color="#000000"
     style="font-feature-settings:normal;font-variant-alternates:normal;font-variant-caps:normal;font-variant-east-asian:normal;font-variant-ligatures:normal;font-variant-numeric:normal;font-variant-position:normal;font-variation-settings:normal;inline-size:0;isolation:auto;mix-blend-mode:normal;shape-margin:0;shape-padding:0;text-decoration-color:#000000;text-decoration-line:none;text-decoration-style:solid;text-indent:0;text-orientation:mixed;text-transform:none;white-space:normal;fill:#029398;fill-opacity:1"
     id="path8"
     inkscape:label="Fondo" />
  <path
     d="m0.52916 13.674v0.28215c0 0.20092 0.07357 0.3825 0.19327 0.51417s0.28553 0.21342 0.46818 0.21342h14.552c0.18265 0 0.34796-0.08175 0.46766-0.21342s0.19378-0.31325 0.19378-0.51417v-0.28215c0 0.20092-0.07409 0.3825-0.19378 0.51417-0.1197 0.13167-0.28501 0.21342-0.46766 0.21342h-14.552c-0.18265 0-0.34848-0.08176-0.46818-0.21342s-0.19327-0.31325-0.19327-0.51417z"
     fill="#e4a729"
     fill-opacity=".99608"
     stroke-width=".26458"
     id="path28"
     style="fill:#016e72;fill-opacity:1"
     inkscape:label="Linea" />
  <path
     d="m7.542 4.0979s-0.35919 0.47868-1.1575 0.79218c-0.03271 0.00587-0.06509 0.011575-0.10077 0.017052h-4.9608c-0.21986 0-0.41824 0.088552-0.56171 0.23202-0.13937 0.13936-0.22042 0.33333-0.2253 0.54569v0.51675c-0.0026 0.026291-0.0067 0.052014-0.0067 0.079064v7.3953c0 0.20092 0.07357 0.3825 0.19327 0.51417 0.1197 0.13167 0.28553 0.21342 0.46818 0.21342h14.552c0.18265 0 0.34796-0.08175 0.46766-0.21342 0.1197-0.13167 0.19378-0.31325 0.19378-0.51417v-8.851c0-0.20092-0.07408-0.38302-0.19378-0.51469-0.11945-0.13137-0.28449-0.21202-0.46665-0.21239h-7.4821z"
     fill="url(#linearGradient1951)"
     id="path29"
     inkscape:label="Cara" />
  <path
     d="m7.542 4.0979s-0.35919 0.47868-1.1575 0.79218c-0.03271 0.00587-0.06509 0.011575-0.10077 0.017052h-4.9608c-0.21986 0-0.41824 0.088552-0.56171 0.23202-0.13937 0.13936-0.22041 0.33333-0.2253 0.54569v0.38446c0.0049-0.21236 0.08593-0.40633 0.2253-0.54569 0.14347-0.14347 0.34185-0.23202 0.56171-0.23202h4.9608c0.03568-0.00548 0.06806-0.011184 0.10077-0.017052 0.75911-0.26303 1.2883-0.79218 1.2883-0.79218h8.0707c0.18216 3.704e-4 0.34718 0.081016 0.46663 0.21239 0.1197 0.13167 0.19378 0.31377 0.19378 0.51469v-0.38446c0-0.20092-0.07408-0.38302-0.19378-0.51469-0.11945-0.13137-0.28447-0.21202-0.46663-0.21239h-7.4821zm-7.0062 2.1037c-0.0026 0.026291-0.0067 0.052013-0.0067 0.079063v0.38447c0-0.02705 0.0041-0.052773 0.0067-0.079063z"
     fill="url(#linearGradient11110)"
     opacity=".3"
     id="path30"
     inkscape:label="Destello" />
  <g
     id="g1"
     inkscape:label="Icono"
     transform="matrix(0.27965795,0,0,0.27965795,6.0719375,6.8800204)">
    <path
       fill-rule="evenodd"
       clip-rule="evenodd"
       d="M -11.112281,10.693188 V 7.743407 c 0.06186,-0.030691 0.06186,-0.092073 0.06186,-0.1534554 0.927717,-4.025556 3.4635392,-6.4530603 7.4837508,-7.40554153 0.3401681,-0.09233776 0.7112654,-0.0613821 1.0514335,-0.18441095 h 1.97917661 c 0.0309292,0.06138212 0.12369027,0.03069106 0.18554864,0.03069106 1.97925595,0.21510201 3.77283105,0.92179017 5.34998125,2.15102012 1.3607253,1.0141279 2.4121587,2.30474 3.3707252,3.6871607 0.123558,0.1844109 0.1857339,0.1844109 0.3092919,0 C 9.2361572,5.0701096 9.8237852,4.3020394 10.504016,3.5950866 12.143077,1.8435795 14.122386,0.61461409 16.53428,0.18441007 16.874528,0.09207231 17.276422,0.12302795 17.616669,-8.8e-7 h 1.917398 c 0.03069,0.06138212 0.09287,0.03069106 0.154513,0.03069106 0.587628,0.06138213 1.144301,0.18441095 1.700973,0.33813084 4.143823,1.19827428 7.081698,4.97777278 6.834318,9.24912188 -0.185734,3.5953521 -2.010265,6.1763121 -5.195521,7.8047901 -1.576886,0.860673 -3.308814,1.075775 -5.102389,1.044819 -2.350247,-0.03069 -4.391203,-0.829717 -6.154087,-2.365858 C 10.534971,15.02592 9.5764047,13.735572 8.6794849,12.383313 8.5559269,12.199167 8.493751,12.229858 8.370193,12.414269 c -0.5566723,0.829717 -1.1443003,1.659169 -1.8245307,2.458195 -1.205947,1.351995 -2.597628,2.458196 -4.3295563,3.04212 -2.13366382,0.737379 -4.2983891,0.76807 -6.4631143,0.184411 -3.1233977,-0.891364 -5.2571937,-2.857973 -6.4323177,-5.869137 -0.185575,-0.491586 -0.278336,-1.044819 -0.432955,-1.53667 z m 9.8340244,4.517143 C 0.48444218,15.271713 1.9996811,14.688053 3.2984951,13.489779 4.6282647,12.260549 5.5868312,10.724144 6.5456623,9.21843 6.576618,9.1263568 6.576618,9.0649747 6.5147067,8.9726369 5.7106538,7.7127159 4.8756452,6.4530595 3.7625651,5.4079759 1.6287425,3.3799846 -0.87623018,2.7039875 -3.6903624,3.5950866 c -2.3193712,0.7683349 -3.8037338,2.3968132 -4.1439019,4.8550085 -0.3401681,2.3047399 0.5566459,4.1483199 2.4121058,5.5312699 1.2369821,0.891099 2.6286101,1.259657 4.1439019,1.228966 z m 19.6061116,0 c 0.680231,0 1.360725,-0.03069 2.010265,-0.215102 2.44285,-0.73738 4.050955,-2.243094 4.515025,-4.762671 0.463806,-2.489151 -0.494761,-4.4864513 -2.597628,-5.8998276 -2.319291,-1.5977873 -5.690281,-1.4443319 -8.040529,0.3071752 -1.57715,1.1675833 -2.628583,2.734944 -3.680017,4.3634224 -0.06191,0.092338 -0.03096,0.1537199 0,0.245793 0.835009,1.321303 1.670017,2.642606 2.752406,3.779498 1.360461,1.444332 2.999523,2.274049 5.040478,2.181712 z"
       fill="#ffffff"
       id="path5"
       style="stroke-width:0.264578" />
    <path
       fill-rule="evenodd"
       clip-rule="evenodd"
       d="m -1.3087625,8.2352577 c 0.9895751,0 2.01007936,0.030956 2.9996809,0 0.2473805,0 0.2783362,0.061647 0.2783362,0.3074398 -0.030956,0.2767487 -0.030956,0.5532328 0,0.8297169 0.030956,0.2457931 -0.030956,0.3071752 -0.3092918,0.3071752 H -2.298364 c -0.6803362,0 -1.3606988,-0.030691 -2.041035,0 -0.2164778,0 -0.2783097,-0.061382 -0.2783097,-0.3071752 0.030929,-0.2764841 0.030929,-0.5529682 0,-0.860408 0,-0.215102 0.061832,-0.2767487 0.2783097,-0.2767487 0.9896015,0.030956 2.0101058,0 3.0306365,0 z M 18.173871,6.2686485 c 0.247116,0 0.494496,0.030691 0.711186,0 0.154513,0 0.216425,0.061647 0.216425,0.215102 -0.03096,0.4304686 0,0.8606727 -0.03096,1.2906121 0,0.215102 0.06191,0.2767487 0.278336,0.2767487 0.401894,-0.030691 0.835009,0 1.267858,-0.030691 0.185734,0 0.247381,0.030691 0.247381,0.2457931 v 1.4133763 c 0,0.1537199 -0.06165,0.2151021 -0.216425,0.2151021 -0.43285,-0.030691 -0.865964,0 -1.32977,-0.030691 -0.185469,0 -0.24738,0.061382 -0.24738,0.2457932 0.03096,0.430204 0,0.860408 0.03096,1.290612 0,0.184411 -0.06191,0.276748 -0.247381,0.276748 -0.46407,-0.03096 -0.927611,-0.03096 -1.391681,0 -0.185469,0 -0.24738,-0.06165 -0.24738,-0.246057 0.03096,-0.460895 0,-0.891099 0.03096,-1.351994 0,-0.1537201 -0.06191,-0.2151022 -0.216425,-0.2151022 -0.433114,0.030691 -0.865964,0 -1.298814,0.030691 -0.247645,0 -0.278336,-0.092073 -0.278336,-0.2764842 0,-0.430204 0.03069,-0.860408 0,-1.2906121 -0.03096,-0.245793 0.09287,-0.3071752 0.309027,-0.3071752 0.433115,0.030691 0.835009,0 1.268123,0.030691 0.154514,0 0.216425,-0.061647 0.216425,-0.215102 -0.03096,-0.430204 0,-0.8910991 -0.03096,-1.3213031 0,-0.184411 0.06191,-0.2460577 0.24738,-0.2460577 0.247381,0.030691 0.46407,0 0.711451,0 z"
       fill="#ffffff"
       id="path6"
       style="stroke-width:0.264578" />
  </g>
</svg>
