<?xml version="1.0" encoding="UTF-8" standalone="no"?>
<svg
   width="64"
   height="64"
   version="1.1"
   viewBox="0 0 16.933 16.933"
   id="svg30"
   sodipodi:docname="folder-minecraft.svg"
   inkscape:version="1.4.2 (ebf0e940d0, 2025-05-08)"
   xmlns:inkscape="http://www.inkscape.org/namespaces/inkscape"
   xmlns:sodipodi="http://sodipodi.sourceforge.net/DTD/sodipodi-0.dtd"
   xmlns="http://www.w3.org/2000/svg"
   xmlns:svg="http://www.w3.org/2000/svg"
   xmlns:rdf="http://www.w3.org/1999/02/22-rdf-syntax-ns#"
   xmlns:cc="http://creativecommons.org/ns#"
   xmlns:dc="http://purl.org/dc/elements/1.1/">
  <sodipodi:namedview
     id="namedview30"
     pagecolor="#ffffff"
     bordercolor="#000000"
     borderopacity="0.25"
     inkscape:showpageshadow="2"
     inkscape:pageopacity="0.0"
     inkscape:pagecheckerboard="0"
     inkscape:deskcolor="#d1d1d1"
     inkscape:zoom="4"
     inkscape:cx="-21.875"
     inkscape:cy="7.125"
     inkscape:window-width="1366"
     inkscape:window-height="697"
     inkscape:window-x="0"
     inkscape:window-y="0"
     inkscape:window-maximized="1"
     inkscape:current-layer="svg30" />
  <defs
     id="defs8">
    <style
       type="text/css"
       id="style1" />
    <linearGradient
       id="linearGradient1911"
       x1="25.085"
       x2="25.085"
       y1="24.031"
       y2="26.412"
       gradientTransform="translate(-17.897 -21.385)"
       gradientUnits="userSpaceOnUse">
      <stop
         stop-color="#fcbc19"
         stop-opacity=".99608"
         offset="0"
         id="stop1"
         style="stop-color:#066231;stop-opacity:1;" />
      <stop
         stop-color="#f4b61f"
         offset="1"
         id="stop2"
         style="stop-color:#064d27;stop-opacity:1;" />
    </linearGradient>
    <linearGradient
       id="linearGradient4625"
       x1=".52918"
       x2="16.404"
       y1="5.0665"
       y2="5.0665"
       gradientUnits="userSpaceOnUse">
      <stop
         stop-color="#b78815"
         offset="0"
         id="stop3" />
      <stop
         stop-color="#e2b24b"
         stop-opacity="0"
         offset="1"
         id="stop4" />
    </linearGradient>
    <linearGradient
       id="linearGradient1951"
       x1="104.68911"
       x2="128.50089"
       y1="13.907892"
       y2="55.151108"
       gradientTransform="matrix(0.26458,0,0,0.26458,-20.108,-0.13539)"
       gradientUnits="userSpaceOnUse">
      <stop
         stop-color="#fce798"
         offset="0"
         id="stop5"
         style="stop-color:#4caf50;stop-opacity:1;" />
      <stop
         stop-color="#ffc937"
         offset="1"
         id="stop6"
         style="stop-color:#088242;stop-opacity:1;" />
    </linearGradient>
    <linearGradient
       id="linearGradient11110"
       x1=".52917"
       x2="16.404"
       y1="5.3815"
       y2="5.3815"
       gradientUnits="userSpaceOnUse">
      <stop
         stop-color="#fff"
         offset="0"
         id="stop7" />
      <stop
         stop-color="#fff"
         stop-opacity="0"
         offset="1"
         id="stop8" />
    </linearGradient>
    <filter
       id="filter2_i_740_16384"
       x="65"
       y="74"
       width="16"
       height="8"
       filterUnits="userSpaceOnUse"
       color-interpolation-filters="sRGB">
      <feFlood
         flood-opacity="0"
         result="BackgroundImageFix"
         id="feFlood26" />
      <feBlend
         mode="normal"
         in="SourceGraphic"
         in2="BackgroundImageFix"
         result="shape"
         id="feBlend27" />
      <feColorMatrix
         in="SourceAlpha"
         type="matrix"
         values="0 0 0 0 0 0 0 0 0 0 0 0 0 0 0 0 0 0 127 0"
         result="hardAlpha"
         id="feColorMatrix27" />
      <feOffset
         dy="4"
         id="feOffset27" />
      <feComposite
         in2="hardAlpha"
         operator="arithmetic"
         k2="-1"
         k3="1"
         id="feComposite27"
         k1="0"
         k4="0" />
      <feColorMatrix
         type="matrix"
         values="0 0 0 0 1 0 0 0 0 1 0 0 0 0 1 0 0 0 0.25 0"
         id="feColorMatrix28" />
      <feBlend
         mode="normal"
         in2="shape"
         result="effect1_innerShadow_740_16384"
         id="feBlend28" />
    </filter>
    <filter
       id="filter3_i_740_16384"
       x="177"
       y="62"
       width="16"
       height="4"
       filterUnits="userSpaceOnUse"
       color-interpolation-filters="sRGB">
      <feFlood
         flood-opacity="0"
         result="BackgroundImageFix"
         id="feFlood28" />
      <feBlend
         mode="normal"
         in="SourceGraphic"
         in2="BackgroundImageFix"
         result="shape"
         id="feBlend29" />
      <feColorMatrix
         in="SourceAlpha"
         type="matrix"
         values="0 0 0 0 0 0 0 0 0 0 0 0 0 0 0 0 0 0 127 0"
         result="hardAlpha"
         id="feColorMatrix29" />
      <feOffset
         dy="4"
         id="feOffset29" />
      <feComposite
         in2="hardAlpha"
         operator="arithmetic"
         k2="-1"
         k3="1"
         id="feComposite29"
         k1="0"
         k4="0" />
      <feColorMatrix
         type="matrix"
         values="0 0 0 0 1 0 0 0 0 1 0 0 0 0 1 0 0 0 0.25 0"
         id="feColorMatrix30" />
      <feBlend
         mode="normal"
         in2="shape"
         result="effect1_innerShadow_740_16384"
         id="feBlend30" />
    </filter>
    <filter
       id="filter4_i_740_16384"
       x="193"
       y="178"
       width="16"
       height="32"
       filterUnits="userSpaceOnUse"
       color-interpolation-filters="sRGB">
      <feFlood
         flood-opacity="0"
         result="BackgroundImageFix"
         id="feFlood30" />
      <feBlend
         mode="normal"
         in="SourceGraphic"
         in2="BackgroundImageFix"
         result="shape"
         id="feBlend31" />
      <feColorMatrix
         in="SourceAlpha"
         type="matrix"
         values="0 0 0 0 0 0 0 0 0 0 0 0 0 0 0 0 0 0 127 0"
         result="hardAlpha"
         id="feColorMatrix31" />
      <feOffset
         dy="-4"
         id="feOffset31" />
      <feComposite
         in2="hardAlpha"
         operator="arithmetic"
         k2="-1"
         k3="1"
         id="feComposite31"
         k1="0"
         k4="0" />
      <feColorMatrix
         type="matrix"
         values="0 0 0 0 0 0 0 0 0 0 0 0 0 0 0 0 0 0 0.25 0"
         id="feColorMatrix32" />
      <feBlend
         mode="normal"
         in2="shape"
         result="effect1_innerShadow_740_16384"
         id="feBlend32" />
    </filter>
    <filter
       id="filter5_i_740_16384"
       x="225"
       y="194"
       width="16"
       height="16"
       filterUnits="userSpaceOnUse"
       color-interpolation-filters="sRGB">
      <feFlood
         flood-opacity="0"
         result="BackgroundImageFix"
         id="feFlood32" />
      <feBlend
         mode="normal"
         in="SourceGraphic"
         in2="BackgroundImageFix"
         result="shape"
         id="feBlend33" />
      <feColorMatrix
         in="SourceAlpha"
         type="matrix"
         values="0 0 0 0 0 0 0 0 0 0 0 0 0 0 0 0 0 0 127 0"
         result="hardAlpha"
         id="feColorMatrix33" />
      <feOffset
         dy="-4"
         id="feOffset33" />
      <feComposite
         in2="hardAlpha"
         operator="arithmetic"
         k2="-1"
         k3="1"
         id="feComposite33"
         k1="0"
         k4="0" />
      <feColorMatrix
         type="matrix"
         values="0 0 0 0 0 0 0 0 0 0 0 0 0 0 0 0 0 0 0.25 0"
         id="feColorMatrix34" />
      <feBlend
         mode="normal"
         in2="shape"
         result="effect1_innerShadow_740_16384"
         id="feBlend34" />
    </filter>
    <filter
       id="filter6_i_740_16384"
       x="49"
       y="194"
       width="32"
       height="16"
       filterUnits="userSpaceOnUse"
       color-interpolation-filters="sRGB">
      <feFlood
         flood-opacity="0"
         result="BackgroundImageFix"
         id="feFlood34" />
      <feBlend
         mode="normal"
         in="SourceGraphic"
         in2="BackgroundImageFix"
         result="shape"
         id="feBlend35" />
      <feColorMatrix
         in="SourceAlpha"
         type="matrix"
         values="0 0 0 0 0 0 0 0 0 0 0 0 0 0 0 0 0 0 127 0"
         result="hardAlpha"
         id="feColorMatrix35" />
      <feOffset
         dy="-4"
         id="feOffset35" />
      <feComposite
         in2="hardAlpha"
         operator="arithmetic"
         k2="-1"
         k3="1"
         id="feComposite35"
         k1="0"
         k4="0" />
      <feColorMatrix
         type="matrix"
         values="0 0 0 0 0 0 0 0 0 0 0 0 0 0 0 0 0 0 0.25 0"
         id="feColorMatrix36" />
      <feBlend
         mode="normal"
         in2="shape"
         result="effect1_innerShadow_740_16384"
         id="feBlend36" />
    </filter>
    <linearGradient
       id="paint2_linear_740_16384"
       x1="129"
       y1="98"
       x2="129"
       y2="194"
       gradientUnits="userSpaceOnUse">
      <stop
         stop-color="#404649"
         id="stop40" />
      <stop
         offset="1"
         stop-color="#323538"
         id="stop41" />
    </linearGradient>
  </defs>
  <metadata
     id="metadata8">
    <rdf:RDF>
      <cc:Work
         rdf:about="">
        <dc:format>image/svg+xml</dc:format>
        <dc:type
           rdf:resource="http://purl.org/dc/dcmitype/StillImage" />
      </cc:Work>
    </rdf:RDF>
  </metadata>
  <path
     d="m1.1975 2.2489c-0.3653 0-0.66145 0.32575-0.66145 0.72759v2.9636c-0.0026 0.02629-0.0072 0.052-0.0072 0.07906v7.9373c0 0.40184 0.29614 0.72759 0.66144 0.72759h14.552c0.36531 0 0.66144-0.32575 0.66144-0.72759v-9.393c0-0.40184-0.29614-0.72759-0.66144-0.72759v5.16e-4h-8.1993l-0.89864-1.1095s-0.36607-0.478-1.0583-0.478h-1.3229z"
     color="#000000"
     color-rendering="auto"
     dominant-baseline="auto"
     fill="url(#linearGradient1911)"
     image-rendering="auto"
     shape-rendering="auto"
     solid-color="#000000"
     stop-color="#000000"
     style="font-feature-settings:normal;font-variant-alternates:normal;font-variant-caps:normal;font-variant-east-asian:normal;font-variant-ligatures:normal;font-variant-numeric:normal;font-variant-position:normal;font-variation-settings:normal;inline-size:0;isolation:auto;mix-blend-mode:normal;shape-margin:0;shape-padding:0;text-decoration-color:#000000;text-decoration-line:none;text-decoration-style:solid;text-indent:0;text-orientation:mixed;text-transform:none;white-space:normal"
     id="path8"
     inkscape:label="Fondo" />
  <path
     d="m7.542 4.0979s-0.35919 0.47868-1.1575 0.79218c-0.03271 0.00587-0.06509 0.011575-0.10077 0.017052h-4.9608c-0.21986 0-0.41824 0.088552-0.56171 0.23202-0.13937 0.13936-0.22042 0.33333-0.2253 0.54569v0.51675c-0.0026 0.026291-0.0067 0.052014-0.0067 0.079064v7.3953c0 0.20092 0.07357 0.3825 0.19327 0.51417 0.1197 0.13167 0.28553 0.21342 0.46818 0.21342h14.552c0.18265 0 0.34796-0.08175 0.46766-0.21342 0.1197-0.13167 0.19378-0.31325 0.19378-0.51417v-8.851c0-0.20092-0.07408-0.38302-0.19378-0.51469-0.11945-0.13137-0.28449-0.21202-0.46665-0.21239h-7.4821z"
     fill="url(#linearGradient1951)"
     id="path29"
     inkscape:label="Cara" />
  <g
     id="g41"
     transform="matrix(0.07087143,0,0,0.070845,-0.67596429,-0.19341018)"
     inkscape:label="Diseño">
    <rect
       x="113"
       y="98"
       width="16"
       height="16"
       fill="#81c77f"
       id="rect5" />
    <rect
       x="65"
       y="71.995796"
       width="16"
       height="10.004204"
       fill="#81c77f"
       id="rect6"
       style="stroke-width:1.11827" />
    <rect
       x="225"
       y="82"
       width="16"
       height="16"
       fill="#81c77f"
       id="rect7" />
    <rect
       x="193"
       y="66"
       width="16"
       height="16"
       fill="#81c77f"
       id="rect8" />
    <rect
       x="177"
       y="60.573227"
       width="16"
       height="5.4267764"
       fill="#81c77f"
       id="rect9"
       style="stroke-width:1.16478" />
    <rect
       x="17"
       y="146"
       width="16"
       height="16"
       fill="#81c77f"
       id="rect10" />
    <rect
       x="129"
       y="66"
       width="48"
       height="16"
       fill="#81c77f"
       id="rect11" />
    <rect
       x="145"
       y="82"
       width="16"
       height="16"
       fill="#81c77f"
       id="rect12" />
    <rect
       x="65"
       y="130"
       width="16"
       height="48"
       fill="#81c77f"
       id="rect13" />
    <rect
       x="33"
       y="114"
       width="16"
       height="32"
       fill="#81c77f"
       id="rect14" />
    <rect
       x="193"
       y="178"
       width="16"
       height="32"
       fill="#81c77f"
       id="rect15" />
    <rect
       x="81"
       y="178"
       width="16"
       height="16"
       fill="#81c77f"
       id="rect16" />
    <rect
       x="145"
       y="130"
       width="16"
       height="16"
       fill="#81c77f"
       id="rect17" />
    <rect
       x="177"
       y="146"
       width="16"
       height="16"
       fill="#81c77f"
       id="rect18" />
    <rect
       x="209"
       y="130"
       width="16"
       height="16"
       fill="#81c77f"
       id="rect19" />
    <path
       d="m 225,194 h 16 l -0.005,5.82581 c -0.003,4.22775 -3.11428,10.17418 -9.33296,10.17418 L 225,210 Z"
       fill="#81c77f"
       id="path19"
       sodipodi:nodetypes="ccsscc" />
    <rect
       x="49"
       y="98"
       width="32"
       height="16"
       fill="#81c77f"
       id="rect20" />
    <rect
       x="49"
       y="194"
       width="32"
       height="16"
       fill="#81c77f"
       id="rect21"
       style="mix-blend-mode:lighten" />
    <rect
       x="177"
       y="82"
       width="16"
       height="48"
       fill="#81c77f"
       id="rect22" />
    <path
       fill-rule="evenodd"
       clip-rule="evenodd"
       d="m 81,98 h 32 v 32 H 81 Z m 64,32 h -32 v 16 H 97 v 48 h 16 v -16 h 32 v 16 h 16 v -48 h -16 z m 0,0 V 98 h 32 v 32 z"
       fill="url(#paint2_linear_740_16384)"
       id="path22"
       style="display:inline;fill:url(#paint2_linear_740_16384)" />
  </g>
  <path
     d="m7.542 4.0979s-0.35919 0.47868-1.1575 0.79218c-0.03271 0.00587-0.06509 0.011575-0.10077 0.017052h-4.9608c-0.21986 0-0.41824 0.088552-0.56171 0.23202-0.13937 0.13936-0.22041 0.33333-0.2253 0.54569v0.38446c0.0049-0.21236 0.08593-0.40633 0.2253-0.54569 0.14347-0.14347 0.34185-0.23202 0.56171-0.23202h4.9608c0.03568-0.00548 0.06806-0.011184 0.10077-0.017052 0.75911-0.26303 1.2883-0.79218 1.2883-0.79218h8.0707c0.18216 3.704e-4 0.34718 0.081016 0.46663 0.21239 0.1197 0.13167 0.19378 0.31377 0.19378 0.51469v-0.38446c0-0.20092-0.07408-0.38302-0.19378-0.51469-0.11945-0.13137-0.28447-0.21202-0.46663-0.21239h-7.4821zm-7.0062 2.1037c-0.0026 0.026291-0.0067 0.052013-0.0067 0.079063v0.38447c0-0.02705 0.0041-0.052773 0.0067-0.079063z"
     fill="url(#linearGradient11110)"
     opacity=".3"
     id="path30"
     inkscape:label="Destello" />
  <path
     d="m 0.52916,13.674 v 0.282234 c 0,0.20098 0.07357,0.382613 0.19327,0.514323 0.1197,0.131709 0.28553,0.213483 0.46818,0.213483 h 14.552 c 0.18265,0 0.34796,-0.08177 0.46766,-0.213483 0.1197,-0.13171 0.19378,-0.313343 0.19378,-0.514323 V 13.674 c 0,0.20098 -0.07409,0.382614 -0.19378,0.514323 -0.1197,0.131709 -0.28501,0.213483 -0.46766,0.213483 h -14.552 c -0.18265,0 -0.34848,-0.08178 -0.46818,-0.213483 C 0.60273,14.056624 0.52916,13.87498 0.52916,13.674 Z"
     fill="#e4a729"
     fill-opacity="0.99608"
     stroke-width="0.26458"
     id="path28"
     inkscape:label="Barra"
     style="display:inline;mix-blend-mode:hard-light;fill:#066231;fill-opacity:1" />
</svg>
