<?xml version="1.0" encoding="UTF-8" standalone="no"?>
<svg
   height="128"
   viewBox="0 0 128 128"
   width="128"
   version="1.1"
   id="svg5248"
   sodipodi:docname="folder.scripts.svg"
   inkscape:version="1.4.2 (ebf0e940d0, 2025-05-08)"
   xmlns:inkscape="http://www.inkscape.org/namespaces/inkscape"
   xmlns:sodipodi="http://sodipodi.sourceforge.net/DTD/sodipodi-0.dtd"
   xmlns:xlink="http://www.w3.org/1999/xlink"
   xmlns="http://www.w3.org/2000/svg"
   xmlns:svg="http://www.w3.org/2000/svg">
  <sodipodi:namedview
     id="namedview1"
     pagecolor="#ffffff"
     bordercolor="#000000"
     borderopacity="0.25"
     inkscape:showpageshadow="2"
     inkscape:pageopacity="0.0"
     inkscape:pagecheckerboard="0"
     inkscape:deskcolor="#d1d1d1"
     inkscape:zoom="2.9168155"
     inkscape:cx="44.911994"
     inkscape:cy="69.939289"
     inkscape:window-width="1366"
     inkscape:window-height="697"
     inkscape:window-x="0"
     inkscape:window-y="0"
     inkscape:window-maximized="1"
     inkscape:current-layer="svg5248" />
  <defs
     id="defs5252">
    <linearGradient
       id="linearGradient5"
       inkscape:collect="always">
      <stop
         style="stop-color:#41994b;stop-opacity:1;"
         offset="0"
         id="stop5" />
      <stop
         style="stop-color:#36803f;stop-opacity:1;"
         offset="1"
         id="stop6" />
    </linearGradient>
    <linearGradient
       id="linearGradient3"
       inkscape:collect="always">
      <stop
         style="stop-color:#5ce566;stop-opacity:1;"
         offset="0"
         id="stop3" />
      <stop
         style="stop-color:#52cc5c;stop-opacity:1;"
         offset="1"
         id="stop4" />
    </linearGradient>
    <linearGradient
       id="linearGradient1"
       inkscape:collect="always">
      <stop
         style="stop-color:#ffffff;stop-opacity:1;"
         offset="0"
         id="stop1" />
      <stop
         style="stop-color:#e5e5e5;stop-opacity:1;"
         offset="1"
         id="stop2" />
    </linearGradient>
    <linearGradient
       xlink:href="#linearGradient2023"
       id="linearGradient2025"
       x1="2689.252"
       y1="-1106.803"
       x2="2918.0698"
       y2="-1106.803"
       gradientUnits="userSpaceOnUse" />
    <linearGradient
       id="linearGradient2023">
      <stop
         style="stop-color:#62a0ea;stop-opacity:1;"
         offset="0"
         id="stop2019" />
      <stop
         style="stop-color:#afd4ff;stop-opacity:1;"
         offset="0.05769911"
         id="stop2795" />
      <stop
         style="stop-color:#62a0ea;stop-opacity:1;"
         offset="0.12220427"
         id="stop2797" />
      <stop
         style="stop-color:#62a0ea;stop-opacity:1;"
         offset="0.87330586"
         id="stop2793" />
      <stop
         style="stop-color:#c0d5ea;stop-opacity:1;"
         offset="0.95599729"
         id="stop2791" />
      <stop
         style="stop-color:#62a0ea;stop-opacity:1;"
         offset="1"
         id="stop2021" />
    </linearGradient>
    <linearGradient
       inkscape:collect="always"
       xlink:href="#linearGradient20"
       id="linearGradient21"
       x1="11.999996"
       y1="42.983021"
       x2="116"
       y2="42.983021"
       gradientUnits="userSpaceOnUse"
       gradientTransform="translate(5.1137135e-4)" />
    <linearGradient
       id="linearGradient20"
       inkscape:collect="always">
      <stop
         style="stop-color:#ffffff;stop-opacity:0.5;"
         offset="0"
         id="stop20" />
      <stop
         style="stop-color:#ffffff;stop-opacity:0;"
         offset="1"
         id="stop21" />
    </linearGradient>
    <linearGradient
       inkscape:collect="always"
       xlink:href="#linearGradient1"
       id="linearGradient2"
       x1="55.466667"
       y1="61.204697"
       x2="72.533333"
       y2="90.76503"
       gradientUnits="userSpaceOnUse" />
    <linearGradient
       inkscape:collect="always"
       xlink:href="#linearGradient3"
       id="linearGradient4"
       x1="2746.4565"
       y1="-1289.3297"
       x2="2860.8652"
       y2="-1091.1676"
       gradientUnits="userSpaceOnUse" />
    <linearGradient
       inkscape:collect="always"
       xlink:href="#linearGradient5"
       id="linearGradient6"
       x1="2803.6609"
       y1="-1324.3542"
       x2="2803.6609"
       y2="-1095.5364"
       gradientUnits="userSpaceOnUse" />
  </defs>
  <linearGradient
     id="a"
     gradientUnits="userSpaceOnUse"
     x1="11.999989"
     x2="115.99999"
     y1="64"
     y2="64">
    <stop
       offset="0"
       stop-color="#3d3846"
       id="stop5214" />
    <stop
       offset="0.05"
       stop-color="#77767b"
       id="stop5216" />
    <stop
       offset="0.1"
       stop-color="#5e5c64"
       id="stop5218" />
    <stop
       offset="0.899999"
       stop-color="#504e56"
       id="stop5220" />
    <stop
       offset="0.95"
       stop-color="#77767b"
       id="stop5222" />
    <stop
       offset="1"
       stop-color="#3d3846"
       id="stop5224" />
  </linearGradient>
  <linearGradient
     id="b"
     gradientUnits="userSpaceOnUse"
     x1="12"
     x2="112.04102"
     y1="60"
     y2="80.988281">
    <stop
       offset="0"
       stop-color="#77767b"
       id="stop5227" />
    <stop
       offset="0.384443"
       stop-color="#9a9996"
       id="stop5229" />
    <stop
       offset="0.720567"
       stop-color="#77767b"
       id="stop5231" />
    <stop
       offset="1"
       stop-color="#68666f"
       id="stop5233" />
  </linearGradient>
  <path
     id="rect1135"
     style="display:inline;stroke-width:8.79091;enable-background:new;fill:url(#linearGradient6);fill-opacity:1;stroke-linecap:round;stop-color:#000000"
     d="m 2711.2064,-1326.3316 c -12.1618,0 -21.9544,9.791 -21.9544,21.9528 v 188.867 c 0,12.1618 9.7926,21.9528 21.9544,21.9528 h 184.9089 c 12.1619,0 21.9545,-9.791 21.9545,-21.9528 v -158.2547 a 26.343462,26.343462 45 0 0 -26.3435,-26.3435 h -101.2664 a 14.283764,14.283764 31.638659 0 1 -12.7581,-7.8607 l -3.3076,-6.5699 a 21.425501,21.425501 31.638659 0 0 -19.1371,-11.791 z"
     transform="matrix(0.45451006,0,0,0.45552152,-1210.2921,616.15659)"
     inkscape:label="Fondo" />
  <path
     id="rect1586"
     style="display:inline;stroke-width:8.79091;enable-background:new;fill:url(#linearGradient4);fill-opacity:1;stroke-linecap:round;stop-color:#000000"
     d="m 2808.014,-1282.4259 c -6.0429,0 -11.5016,2.4179 -15.4646,6.3426 -5.0031,4.9549 -11.8483,11.2197 -18.9936,11.2197 h -62.3494 c -12.1618,0 -21.9544,9.791 -21.9544,21.9528 v 122.8867 c 0,12.1618 9.7926,21.9528 21.9544,21.9528 h 184.9089 c 12.1619,0 21.9545,-9.791 21.9545,-21.9528 v -109.7149 -13.1718 -17.5623 c 0,-12.1618 -9.7926,-21.9528 -21.9545,-21.9528 z"
     transform="matrix(0.45451006,0,0,0.45552152,-1210.2921,616.15659)"
     inkscape:label="Cara" />
  <path
     id="path3-8"
     style="color:#bebebe;fill:url(#linearGradient2);fill-opacity:1;stroke-width:2.13333;marker:none"
     d="m 64.000005,81.3182 h 6.4 v 2.133334 h -6.4 z m -7.47947,-8.757333 a 1.28,1.28 0 0 0 -0.89173,2.1952 l 3.36213,3.362133 -3.36213,3.362134 a 1.28,1.28 0 1 0 1.80906,1.809066 l 4.26667,-4.266666 a 1.28,1.28 0 0 0 0,-1.809067 L 57.437865,72.947 a 1.28,1.28 0 0 0 -0.91733,-0.386133 z m -4.89387,-12.576 c -2.57493,0 -4.69333,2.148267 -4.69333,4.712533 v 22.574934 c 0,2.564266 2.12053,4.712533 4.69333,4.712533 h 24.74667 c 2.5728,0 4.69333,-2.148267 4.69333,-4.712533 V 64.6974 c 0,-2.564266 -2.12053,-4.712533 -4.69333,-4.712533 z m 0,4.266667 h 24.74667 c 0.26453,0 0.42667,0.151466 0.42667,0.445866 v 22.574934 c 0,0.2944 -0.16214,0.445866 -0.42667,0.445866 h -24.74667 c -0.26453,0 -0.42666,-0.151466 -0.42666,-0.445866 V 64.6974 c 0,-0.2944 0.16213,-0.445866 0.42666,-0.445866 z"
     inkscape:label="Icono" />
  <path
     id="path19-9"
     style="display:inline;fill:url(#linearGradient21);fill-opacity:1;stroke-width:4;stroke-linecap:round;enable-background:new;stop-color:#000000"
     inkscape:label="Brillo"
     d="m 65.979027,31.984 c -2.74656,0 -5.228077,1.100887 -7.029301,2.888672 C 56.675767,37.129735 53.564524,39.984 50.316913,39.984 h -28.33789 c -5.527661,0 -9.978516,4.460038 -9.978516,10 v 3.998047 C 12.001368,48.44283 16.451897,43.984 21.979023,43.984 h 28.33789 c 3.247611,0 6.358853,-2.854265 8.632813,-5.111328 C 60.750949,37.084887 63.232467,35.984 65.979027,35.984 h 40.042963 c 5.52771,0 9.97852,4.460038 9.97852,10 v -4 c 0,-5.539962 -4.45082,-10 -9.97852,-10 z" />
</svg>
