<?xml version="1.0" encoding="UTF-8" standalone="no"?>
<svg
   width="64"
   height="64"
   version="1.1"
   viewBox="0 0 16.933 16.933"
   id="svg30"
   sodipodi:docname="folder-projects.svg"
   xml:space="preserve"
   inkscape:version="1.4.2 (ebf0e940d0, 2025-05-08)"
   xmlns:inkscape="http://www.inkscape.org/namespaces/inkscape"
   xmlns:sodipodi="http://sodipodi.sourceforge.net/DTD/sodipodi-0.dtd"
   xmlns:xlink="http://www.w3.org/1999/xlink"
   xmlns="http://www.w3.org/2000/svg"
   xmlns:svg="http://www.w3.org/2000/svg"
   xmlns:rdf="http://www.w3.org/1999/02/22-rdf-syntax-ns#"
   xmlns:cc="http://creativecommons.org/ns#"
   xmlns:dc="http://purl.org/dc/elements/1.1/"><sodipodi:namedview
     id="namedview30"
     pagecolor="#ffffff"
     bordercolor="#000000"
     borderopacity="0.25"
     inkscape:showpageshadow="2"
     inkscape:pageopacity="0.0"
     inkscape:pagecheckerboard="0"
     inkscape:deskcolor="#d1d1d1"
     inkscape:zoom="8.59375"
     inkscape:cx="37.76"
     inkscape:cy="31.127273"
     inkscape:window-width="1366"
     inkscape:window-height="697"
     inkscape:window-x="0"
     inkscape:window-y="0"
     inkscape:window-maximized="1"
     inkscape:current-layer="svg30" /><defs
     id="defs8"><linearGradient
       id="linearGradient1"
       inkscape:collect="always"><stop
         style="stop-color:#f12726;stop-opacity:1;"
         offset="0"
         id="stop9" /><stop
         style="stop-color:#991e1e;stop-opacity:1;"
         offset="1"
         id="stop10" /></linearGradient><style
       type="text/css"
       id="style1" /><linearGradient
       id="linearGradient1911"
       x1="25.085"
       x2="25.085"
       y1="24.031"
       y2="26.412"
       gradientTransform="translate(-17.897 -21.385)"
       gradientUnits="userSpaceOnUse"><stop
         stop-color="#f4b61f"
         offset="0"
         id="stop2"
         style="stop-color:#f12726;stop-opacity:1;" /><stop
         stop-color="#fcbc19"
         stop-opacity=".99608"
         offset="1"
         id="stop1"
         style="stop-color:#27313f;stop-opacity:1;" /></linearGradient><linearGradient
       id="linearGradient4625"
       x1=".52918"
       x2="16.404"
       y1="5.0665"
       y2="5.0665"
       gradientUnits="userSpaceOnUse"><stop
         stop-color="#b78815"
         offset="0"
         id="stop3" /><stop
         stop-color="#e2b24b"
         stop-opacity="0"
         offset="1"
         id="stop4" /></linearGradient><linearGradient
       id="linearGradient1951"
       x1="104.68911"
       x2="128.50089"
       y1="13.907892"
       y2="55.151108"
       gradientTransform="matrix(0.26458,0,0,0.26458,-20.108,-0.13539)"
       gradientUnits="userSpaceOnUse"><stop
         stop-color="#fce798"
         offset="0"
         id="stop5"
         style="stop-color:#fc4739;stop-opacity:1;" /><stop
         stop-color="#ffc937"
         offset="1"
         id="stop6"
         style="stop-color:#f02323;stop-opacity:1;" /></linearGradient><linearGradient
       id="linearGradient11110"
       x1=".52917"
       x2="16.404"
       y1="5.3815"
       y2="5.3815"
       gradientUnits="userSpaceOnUse"><stop
         stop-color="#fff"
         offset="0"
         id="stop7" /><stop
         stop-color="#fff"
         stop-opacity="0"
         offset="1"
         id="stop8" /></linearGradient><linearGradient
       id="_Linear1"
       x2="1"
       gradientTransform="matrix(2.54933e-15,-41.6338,41.6338,2.54933e-15,445.153,52.7218)"
       gradientUnits="userSpaceOnUse"><stop
         style="stop-color:rgb(16,117,246)"
         offset="0"
         id="stop3-3" /><stop
         style="stop-color:rgb(18,197,255)"
         offset="1"
         id="stop4-6" /></linearGradient><linearGradient
       id="_Linear2"
       x2="1"
       gradientTransform="matrix(.537445 25.5655 -25.5655 .537445 -484.295 31.0978)"
       gradientUnits="userSpaceOnUse"><stop
         style="stop-color:rgb(18,108,152)"
         offset="0"
         id="stop5-7" /><stop
         style="stop-color:rgb(11,79,148)"
         offset="1"
         id="stop6-5" /></linearGradient><linearGradient
       id="_Linear2-3"
       x2="0.75"
       gradientTransform="matrix(0.10664714,5.0730539,-5.0730539,0.10664714,-98.223833,9.3007412)"
       gradientUnits="userSpaceOnUse"
       x1="0.25"
       y1="-0.43301269"
       y2="0.43301269"><stop
         style="stop-color:#ffffff;stop-opacity:1;"
         offset="0"
         id="stop5-7-5" /><stop
         style="stop-color:rgb(11,79,148)"
         offset="1"
         id="stop6-5-6" /></linearGradient><linearGradient
       inkscape:collect="always"
       xlink:href="#linearGradient1"
       id="linearGradient10"
       x1="8.4662905"
       y1="0.52901816"
       x2="8.4662905"
       y2="16.403898"
       gradientUnits="userSpaceOnUse" /><mask
       id="mask0_2031_32554"
       maskUnits="userSpaceOnUse"
       x="17"
       y="34"
       width="224"
       height="138"><path
         fill-rule="evenodd"
         clip-rule="evenodd"
         d="M 104.425,42.3784 C 100.056,37.0733 93.5437,34 86.6712,34 H 29 C 22.3726,34 17,39.3726 17,46 V 58.1371 68.2 160 c 0,6.627 5.3726,12 12,12 h 200 c 6.627,0 12,-5.373 12,-12 V 70.1371 c 0,-6.6274 -5.373,-12 -12,-12 H 117.404 Z"
         fill="url(#paint0_linear_2031_32554)"
         id="path2" /></mask><linearGradient
       id="paint0_linear_2031_32554"
       x1="17"
       y1="34"
       x2="197.76801"
       y2="215.142"
       gradientUnits="userSpaceOnUse"><stop
         stop-color="#05815D"
         id="stop9-3" /><stop
         offset="1"
         stop-color="#0C575F"
         id="stop10-6" /></linearGradient><filter
       id="filter0_f_2031_32554"
       x="-20"
       y="25"
       width="298"
       height="184"
       filterUnits="userSpaceOnUse"
       color-interpolation-filters="sRGB"><feFlood
         flood-opacity="0"
         result="BackgroundImageFix"
         id="feFlood5" /><feBlend
         mode="normal"
         in="SourceGraphic"
         in2="BackgroundImageFix"
         result="shape"
         id="feBlend5" /><feGaussianBlur
         stdDeviation="18.5"
         result="effect1_foregroundBlur_2031_32554"
         id="feGaussianBlur5" /></filter><filter
       id="filter1_ii_2031_32554"
       x="17"
       y="62"
       width="224"
       height="148"
       filterUnits="userSpaceOnUse"
       color-interpolation-filters="sRGB"><feFlood
         flood-opacity="0"
         result="BackgroundImageFix"
         id="feFlood6" /><feBlend
         mode="normal"
         in="SourceGraphic"
         in2="BackgroundImageFix"
         result="shape"
         id="feBlend6" /><feColorMatrix
         in="SourceAlpha"
         type="matrix"
         values="0 0 0 0 0 0 0 0 0 0 0 0 0 0 0 0 0 0 127 0"
         result="hardAlpha"
         id="feColorMatrix6" /><feOffset
         dy="4"
         id="feOffset6" /><feComposite
         in2="hardAlpha"
         operator="arithmetic"
         k2="-1"
         k3="1"
         id="feComposite6"
         k1="0"
         k4="0" /><feColorMatrix
         type="matrix"
         values="0 0 0 0 1 0 0 0 0 1 0 0 0 0 1 0 0 0 0.25 0"
         id="feColorMatrix7" /><feBlend
         mode="normal"
         in2="shape"
         result="effect1_innerShadow_2031_32554"
         id="feBlend7" /><feColorMatrix
         in="SourceAlpha"
         type="matrix"
         values="0 0 0 0 0 0 0 0 0 0 0 0 0 0 0 0 0 0 127 0"
         result="hardAlpha"
         id="feColorMatrix8" /><feOffset
         dy="-4"
         id="feOffset8" /><feComposite
         in2="hardAlpha"
         operator="arithmetic"
         k2="-1"
         k3="1"
         id="feComposite8"
         k1="0"
         k4="0" /><feColorMatrix
         type="matrix"
         values="0 0 0 0 0 0 0 0 0 0 0 0 0 0 0 0 0 0 0.9 0"
         id="feColorMatrix9" /><feBlend
         mode="normal"
         in2="effect1_innerShadow_2031_32554"
         result="effect2_innerShadow_2031_32554"
         id="feBlend9" /></filter><linearGradient
       id="paint1_linear_2031_32554"
       x1="17"
       y1="62"
       x2="241"
       y2="210"
       gradientUnits="userSpaceOnUse"><stop
         stop-color="#FC4739"
         id="stop11" /><stop
         offset="1"
         stop-color="#F02323"
         id="stop12" /></linearGradient></defs><metadata
     id="metadata8"><rdf:RDF><cc:Work
         rdf:about=""><dc:format>image/svg+xml</dc:format><dc:type
           rdf:resource="http://purl.org/dc/dcmitype/StillImage" /></cc:Work></rdf:RDF></metadata><path
     d="m1.1975 2.2489c-0.3653 0-0.66145 0.32575-0.66145 0.72759v2.9636c-0.0026 0.02629-0.0072 0.052-0.0072 0.07906v7.9373c0 0.40184 0.29614 0.72759 0.66144 0.72759h14.552c0.36531 0 0.66144-0.32575 0.66144-0.72759v-9.393c0-0.40184-0.29614-0.72759-0.66144-0.72759v5.16e-4h-8.1993l-0.89864-1.1095s-0.36607-0.478-1.0583-0.478h-1.3229z"
     color="#000000"
     color-rendering="auto"
     dominant-baseline="auto"
     fill="url(#linearGradient1911)"
     image-rendering="auto"
     shape-rendering="auto"
     solid-color="#000000"
     stop-color="#000000"
     style="font-feature-settings:normal;font-variant-alternates:normal;font-variant-caps:normal;font-variant-east-asian:normal;font-variant-ligatures:normal;font-variant-numeric:normal;font-variant-position:normal;font-variation-settings:normal;inline-size:0;isolation:auto;mix-blend-mode:normal;shape-margin:0;shape-padding:0;text-decoration-color:#000000;text-decoration-line:none;text-decoration-style:solid;text-indent:0;text-orientation:mixed;text-transform:none;white-space:normal;fill:url(#linearGradient10);fill-opacity:1"
     id="path8"
     inkscape:label="Base" /><path
     d="m0.52916 13.674v0.28215c0 0.20092 0.07357 0.3825 0.19327 0.51417s0.28553 0.21342 0.46818 0.21342h14.552c0.18265 0 0.34796-0.08175 0.46766-0.21342s0.19378-0.31325 0.19378-0.51417v-0.28215c0 0.20092-0.07409 0.3825-0.19378 0.51417-0.1197 0.13167-0.28501 0.21342-0.46766 0.21342h-14.552c-0.18265 0-0.34848-0.08176-0.46818-0.21342s-0.19327-0.31325-0.19327-0.51417z"
     fill="#e4a729"
     fill-opacity=".99608"
     stroke-width=".26458"
     id="path28"
     style="fill:#991e1e;fill-opacity:1"
     inkscape:label="Linea" /><path
     d="m7.542 4.0979s-0.35919 0.47868-1.1575 0.79218c-0.03271 0.00587-0.06509 0.011575-0.10077 0.017052h-4.9608c-0.21986 0-0.41824 0.088552-0.56171 0.23202-0.13937 0.13936-0.22042 0.33333-0.2253 0.54569v0.51675c-0.0026 0.026291-0.0067 0.052014-0.0067 0.079064v7.3953c0 0.20092 0.07357 0.3825 0.19327 0.51417 0.1197 0.13167 0.28553 0.21342 0.46818 0.21342h14.552c0.18265 0 0.34796-0.08175 0.46766-0.21342 0.1197-0.13167 0.19378-0.31325 0.19378-0.51417v-8.851c0-0.20092-0.07408-0.38302-0.19378-0.51469-0.11945-0.13137-0.28449-0.21202-0.46665-0.21239h-7.4821z"
     fill="url(#linearGradient1951)"
     id="path29"
     inkscape:label="Cara" /><path
     d="m7.542 4.0979s-0.35919 0.47868-1.1575 0.79218c-0.03271 0.00587-0.06509 0.011575-0.10077 0.017052h-4.9608c-0.21986 0-0.41824 0.088552-0.56171 0.23202-0.13937 0.13936-0.22041 0.33333-0.2253 0.54569v0.38446c0.0049-0.21236 0.08593-0.40633 0.2253-0.54569 0.14347-0.14347 0.34185-0.23202 0.56171-0.23202h4.9608c0.03568-0.00548 0.06806-0.011184 0.10077-0.017052 0.75911-0.26303 1.2883-0.79218 1.2883-0.79218h8.0707c0.18216 3.704e-4 0.34718 0.081016 0.46663 0.21239 0.1197 0.13167 0.19378 0.31377 0.19378 0.51469v-0.38446c0-0.20092-0.07408-0.38302-0.19378-0.51469-0.11945-0.13137-0.28447-0.21202-0.46663-0.21239h-7.4821zm-7.0062 2.1037c-0.0026 0.026291-0.0067 0.052013-0.0067 0.079063v0.38447c0-0.02705 0.0041-0.052773 0.0067-0.079063z"
     fill="url(#linearGradient11110)"
     opacity=".3"
     id="path30"
     inkscape:label="Destello" /><path
     d="M 182.185,130.684 133.6,82.0995 c -0.665,-0.6656 -1.455,-1.1936 -2.324,-1.5538 C 130.406,80.1854 129.474,80 128.533,80 c -0.94,0 -1.872,0.1854 -2.742,0.5457 -0.869,0.3602 -1.659,0.8882 -2.324,1.5538 l -10.085,10.0848 12.797,12.7977 c 2.977,-1.044 6.385,-0.331 8.756,2.041 1.129,1.131 1.918,2.557 2.275,4.114 0.357,1.558 0.269,3.185 -0.254,4.695 l 12.335,12.334 c 2.984,-1.029 6.426,-0.365 8.808,2.024 0.792,0.792 1.421,1.733 1.849,2.768 0.428,1.035 0.649,2.143 0.649,3.264 -0.001,1.12 -0.221,2.228 -0.65,3.263 -0.429,1.035 -1.057,1.975 -1.85,2.767 -0.791,0.792 -1.732,1.42 -2.767,1.848 -1.034,0.429 -2.143,0.65 -3.263,0.649 -1.12,0 -2.23,-0.221 -3.264,-0.649 -1.035,-0.429 -1.976,-1.058 -2.767,-1.85 -2.504,-2.504 -3.123,-6.19 -1.857,-9.275 l -11.504,-11.503 v 30.272 c 0.835,0.413 1.598,0.958 2.26,1.614 0.792,0.791 1.42,1.731 1.849,2.766 0.429,1.034 0.649,2.143 0.649,3.263 0,1.12 -0.22,2.229 -0.649,3.264 -0.429,1.035 -1.057,1.975 -1.849,2.767 -0.791,0.792 -1.732,1.42 -2.766,1.848 -1.035,0.429 -2.144,0.649 -3.263,0.649 -1.12,0 -2.229,-0.22 -3.264,-0.649 -1.035,-0.428 -1.975,-1.056 -2.767,-1.848 -0.793,-0.792 -1.421,-1.732 -1.85,-2.766 -0.43,-1.035 -0.651,-2.145 -0.651,-3.265 0,-1.12 0.221,-2.229 0.651,-3.263 0.429,-1.035 1.057,-1.975 1.85,-2.766 0.824,-0.821 1.739,-1.444 2.793,-1.861 v -30.554 c -1.015,-0.417 -1.969,-1.032 -2.793,-1.86 -1.197,-1.196 -2.011,-2.721 -2.338,-4.382 -0.327,-1.66 -0.152,-3.381 0.502,-4.941 L 108.416,97.1433 75.1012,130.423 c -0.6661,0.666 -1.1945,1.456 -1.5551,2.325 -0.3605,0.87 -0.5461,1.802 -0.5461,2.744 0,0.941 0.1856,1.873 0.5461,2.743 0.3606,0.87 0.889,1.66 1.5551,2.325 l 48.5878,48.581 c 0.665,0.666 1.455,1.194 2.324,1.554 0.87,0.36 1.802,0.546 2.743,0.546 0.941,0 1.873,-0.186 2.743,-0.546 0.869,-0.36 1.659,-0.888 2.324,-1.554 l 48.362,-48.285 c 0.666,-0.666 1.194,-1.456 1.555,-2.325 0.36,-0.87 0.546,-1.802 0.546,-2.743 0,-0.942 -0.186,-1.874 -0.546,-2.744 -0.361,-0.87 -0.889,-1.66 -1.555,-2.325"
     fill="#ffffff"
     id="path5"
     style="display:inline"
     transform="matrix(0.07087,0,0,0.07087,-0.67561948,-0.19895916)"
     inkscape:label="Icono" /></svg>
