<?xml version="1.0" encoding="UTF-8" standalone="no"?>
<svg
   width="64"
   height="64"
   version="1.1"
   viewBox="0 0 16.933 16.933"
   id="svg30"
   sodipodi:docname="folder-python.svg"
   inkscape:version="1.4.2 (ebf0e940d0, 2025-05-08)"
   xmlns:inkscape="http://www.inkscape.org/namespaces/inkscape"
   xmlns:sodipodi="http://sodipodi.sourceforge.net/DTD/sodipodi-0.dtd"
   xmlns="http://www.w3.org/2000/svg"
   xmlns:svg="http://www.w3.org/2000/svg"
   xmlns:rdf="http://www.w3.org/1999/02/22-rdf-syntax-ns#"
   xmlns:cc="http://creativecommons.org/ns#"
   xmlns:dc="http://purl.org/dc/elements/1.1/">
  <sodipodi:namedview
     id="namedview30"
     pagecolor="#ffffff"
     bordercolor="#000000"
     borderopacity="0.25"
     inkscape:showpageshadow="2"
     inkscape:pageopacity="0.0"
     inkscape:pagecheckerboard="0"
     inkscape:deskcolor="#d1d1d1"
     inkscape:zoom="5.6568543"
     inkscape:cx="11.75565"
     inkscape:cy="45.519999"
     inkscape:window-width="1366"
     inkscape:window-height="697"
     inkscape:window-x="0"
     inkscape:window-y="0"
     inkscape:window-maximized="1"
     inkscape:current-layer="svg30" />
  <defs
     id="defs8">
    <style
       type="text/css"
       id="style1" />
    <linearGradient
       id="linearGradient1911"
       x1="25.085"
       x2="25.085"
       y1="24.031"
       y2="26.412"
       gradientTransform="matrix(1,0,0,0.97728619,-17.897,-20.848185)"
       gradientUnits="userSpaceOnUse">
      <stop
         stop-color="#fcbc19"
         stop-opacity=".99608"
         offset="0"
         id="stop1"
         style="stop-color:#ffda62;stop-opacity:1;" />
      <stop
         stop-color="#f4b61f"
         offset="1"
         id="stop2"
         style="stop-color:#ffcb33;stop-opacity:1;" />
    </linearGradient>
    <linearGradient
       id="linearGradient4625"
       x1=".52918"
       x2="16.404"
       y1="5.0665"
       y2="5.0665"
       gradientUnits="userSpaceOnUse">
      <stop
         stop-color="#b78815"
         offset="0"
         id="stop3" />
      <stop
         stop-color="#e2b24b"
         stop-opacity="0"
         offset="1"
         id="stop4" />
    </linearGradient>
    <linearGradient
       id="linearGradient1951"
       x1="104.68911"
       x2="128.50089"
       y1="13.907892"
       y2="55.151108"
       gradientTransform="matrix(0.26458,0,0,0.27177348,-20.108,-0.25048544)"
       gradientUnits="userSpaceOnUse">
      <stop
         stop-color="#fce798"
         offset="0"
         id="stop5"
         style="stop-color:#275377;stop-opacity:1;" />
      <stop
         stop-color="#ffc937"
         offset="1"
         id="stop6"
         style="stop-color:#1f4361;stop-opacity:1;" />
    </linearGradient>
    <linearGradient
       id="linearGradient11110"
       x1=".52917"
       x2="16.404"
       y1="5.3815"
       y2="5.3815"
       gradientUnits="userSpaceOnUse">
      <stop
         stop-color="#fff"
         offset="0"
         id="stop7" />
      <stop
         stop-color="#fff"
         stop-opacity="0"
         offset="1"
         id="stop8" />
    </linearGradient>
    <mask
       id="mask0_538_12151"
       maskUnits="userSpaceOnUse"
       x="17"
       y="34"
       width="224"
       height="138">
      <path
         fill-rule="evenodd"
         clip-rule="evenodd"
         d="M 104.425,42.3784 C 100.056,37.0733 93.5437,34 86.6712,34 H 29 C 22.3726,34 17,39.3726 17,46 V 58.1371 68.2 160 c 0,6.627 5.3726,12 12,12 h 200 c 6.627,0 12,-5.373 12,-12 V 70.1371 c 0,-6.6274 -5.373,-12 -12,-12 H 117.404 Z"
         fill="url(#paint0_linear_538_12151)"
         id="path2" />
    </mask>
    <linearGradient
       id="paint0_linear_538_12151"
       x1="17"
       y1="34"
       x2="197.76801"
       y2="215.142"
       gradientUnits="userSpaceOnUse">
      <stop
         stop-color="#05815D"
         id="stop10" />
      <stop
         offset="1"
         stop-color="#0C575F"
         id="stop11" />
    </linearGradient>
    <filter
       id="filter0_f_538_12151"
       x="-20"
       y="25"
       width="298"
       height="184"
       filterUnits="userSpaceOnUse"
       color-interpolation-filters="sRGB">
      <feFlood
         flood-opacity="0"
         result="BackgroundImageFix"
         id="feFlood6" />
      <feBlend
         mode="normal"
         in="SourceGraphic"
         in2="BackgroundImageFix"
         result="shape"
         id="feBlend6" />
      <feGaussianBlur
         stdDeviation="18.5"
         result="effect1_foregroundBlur_538_12151"
         id="feGaussianBlur6" />
    </filter>
    <filter
       id="filter1_ii_538_12151"
       x="17"
       y="62"
       width="224"
       height="148"
       filterUnits="userSpaceOnUse"
       color-interpolation-filters="sRGB">
      <feFlood
         flood-opacity="0"
         result="BackgroundImageFix"
         id="feFlood7" />
      <feBlend
         mode="normal"
         in="SourceGraphic"
         in2="BackgroundImageFix"
         result="shape"
         id="feBlend7" />
      <feColorMatrix
         in="SourceAlpha"
         type="matrix"
         values="0 0 0 0 0 0 0 0 0 0 0 0 0 0 0 0 0 0 127 0"
         result="hardAlpha"
         id="feColorMatrix7" />
      <feOffset
         dy="-4"
         id="feOffset7" />
      <feComposite
         in2="hardAlpha"
         operator="arithmetic"
         k2="-1"
         k3="1"
         id="feComposite7"
         k1="0"
         k4="0" />
      <feColorMatrix
         type="matrix"
         values="0 0 0 0 0 0 0 0 0 0 0 0 0 0 0 0 0 0 0.25 0"
         id="feColorMatrix8" />
      <feBlend
         mode="normal"
         in2="shape"
         result="effect1_innerShadow_538_12151"
         id="feBlend8" />
      <feColorMatrix
         in="SourceAlpha"
         type="matrix"
         values="0 0 0 0 0 0 0 0 0 0 0 0 0 0 0 0 0 0 127 0"
         result="hardAlpha"
         id="feColorMatrix9" />
      <feOffset
         dy="4"
         id="feOffset9" />
      <feComposite
         in2="hardAlpha"
         operator="arithmetic"
         k2="-1"
         k3="1"
         id="feComposite9"
         k1="0"
         k4="0" />
      <feColorMatrix
         type="matrix"
         values="0 0 0 0 1 0 0 0 0 1 0 0 0 0 1 0 0 0 0.25 0"
         id="feColorMatrix10" />
      <feBlend
         mode="normal"
         in2="effect1_innerShadow_538_12151"
         result="effect2_innerShadow_538_12151"
         id="feBlend10" />
    </filter>
    <linearGradient
       id="paint1_linear_538_12151"
       x1="17"
       y1="62"
       x2="241"
       y2="210"
       gradientUnits="userSpaceOnUse">
      <stop
         stop-color="#275377"
         id="stop12" />
      <stop
         offset="1"
         stop-color="#1F4361"
         id="stop13"
         style="stop-color:#1f4361;stop-opacity:1;" />
    </linearGradient>
    <linearGradient
       id="paint2_linear_538_12151"
       x1="84.611702"
       y1="90.601501"
       x2="139.21201"
       y2="145.384"
       gradientUnits="userSpaceOnUse">
      <stop
         stop-color="#387EB8"
         id="stop14" />
      <stop
         offset="1"
         stop-color="#366994"
         id="stop15" />
    </linearGradient>
    <linearGradient
       id="paint3_linear_538_12151"
       x1="118.199"
       y1="125.452"
       x2="176.84"
       y2="181.633"
       gradientUnits="userSpaceOnUse">
      <stop
         stop-color="#FFE052"
         id="stop16" />
      <stop
         offset="1"
         stop-color="#FFC331"
         id="stop17" />
    </linearGradient>
  </defs>
  <metadata
     id="metadata8">
    <rdf:RDF>
      <cc:Work
         rdf:about="">
        <dc:format>image/svg+xml</dc:format>
        <dc:type
           rdf:resource="http://purl.org/dc/dcmitype/StillImage" />
      </cc:Work>
    </rdf:RDF>
  </metadata>
  <path
     d="m 1.1975,2.2488995 c -0.3653,0 -0.66145,0.3183509 -0.66145,0.7110636 v 2.8962854 c -0.0026,0.025693 -0.0072,0.050819 -0.0072,0.077264 v 7.7570135 c 0,0.392713 0.29614,0.711064 0.66144,0.711064 h 14.552 c 0.36531,0 0.66144,-0.318351 0.66144,-0.711064 V 4.5108772 c 0,-0.3927127 -0.29614,-0.7110637 -0.66144,-0.7110637 v 5.043e-4 H 7.54299 L 6.64435,2.7160188 c 0,0 -0.36607,-0.4671428 -1.0583,-0.4671428 h -1.3229 z"
     color="#000000"
     color-rendering="auto"
     dominant-baseline="auto"
     fill="url(#linearGradient1911)"
     image-rendering="auto"
     shape-rendering="auto"
     solid-color="#000000"
     stop-color="#000000"
     style="font-variant-ligatures:normal;font-variant-position:normal;font-variant-caps:normal;font-variant-numeric:normal;font-variant-alternates:normal;font-variant-east-asian:normal;font-feature-settings:normal;font-variation-settings:normal;text-indent:0;text-decoration-line:none;text-decoration-style:solid;text-decoration-color:#000000;text-transform:none;text-orientation:mixed;white-space:normal;shape-padding:0;shape-margin:0;inline-size:0;isolation:auto;mix-blend-mode:normal;fill:url(#linearGradient1911);stroke-width:0.988578"
     id="path8"
     inkscape:label="Fondo" />
  <path
     d="m 7.542,4.0979007 c 0,0 -0.35919,0.4916945 -1.1575,0.813718 -0.03271,0.00603 -0.06509,0.01189 -0.10077,0.017516 h -4.9608 c -0.21986,0 -0.41824,0.09096 -0.56171,0.2383283 C 0.62185,5.3106115 0.5408,5.5098552 0.53592,5.727989 v 0.5307995 c -0.0026,0.027006 -0.0067,0.053428 -0.0067,0.081214 v 7.5963655 c 0,0.206383 0.07357,0.3929 0.19327,0.528149 0.1197,0.13525 0.28553,0.219223 0.46818,0.219223 h 14.552 c 0.18265,0 0.34796,-0.08397 0.46766,-0.219223 0.1197,-0.135249 0.19378,-0.321766 0.19378,-0.528149 V 4.8447241 c 0,-0.2063827 -0.07408,-0.3934337 -0.19378,-0.5286836 C 16.09088,4.1810988 15.92584,4.0982561 15.74368,4.097876 h -7.4821 z"
     fill="url(#linearGradient1951)"
     id="path29"
     inkscape:label="Cara"
     style="fill:url(#linearGradient1951);stroke-width:1.0135" />
  <path
     d="m0.52916 13.674v0.28215c0 0.20092 0.07357 0.3825 0.19327 0.51417s0.28553 0.21342 0.46818 0.21342h14.552c0.18265 0 0.34796-0.08175 0.46766-0.21342s0.19378-0.31325 0.19378-0.51417v-0.28215c0 0.20092-0.07409 0.3825-0.19378 0.51417-0.1197 0.13167-0.28501 0.21342-0.46766 0.21342h-14.552c-0.18265 0-0.34848-0.08176-0.46818-0.21342s-0.19327-0.31325-0.19327-0.51417z"
     fill="#e4a729"
     fill-opacity=".99608"
     stroke-width=".26458"
     id="path28"
     inkscape:label="Barra"
     style="fill:#17334d;fill-opacity:1" />
  <path
     d="m7.542 4.0979s-0.35919 0.47868-1.1575 0.79218c-0.03271 0.00587-0.06509 0.011575-0.10077 0.017052h-4.9608c-0.21986 0-0.41824 0.088552-0.56171 0.23202-0.13937 0.13936-0.22041 0.33333-0.2253 0.54569v0.38446c0.0049-0.21236 0.08593-0.40633 0.2253-0.54569 0.14347-0.14347 0.34185-0.23202 0.56171-0.23202h4.9608c0.03568-0.00548 0.06806-0.011184 0.10077-0.017052 0.75911-0.26303 1.2883-0.79218 1.2883-0.79218h8.0707c0.18216 3.704e-4 0.34718 0.081016 0.46663 0.21239 0.1197 0.13167 0.19378 0.31377 0.19378 0.51469v-0.38446c0-0.20092-0.07408-0.38302-0.19378-0.51469-0.11945-0.13137-0.28447-0.21202-0.46663-0.21239h-7.4821zm-7.0062 2.1037c-0.0026 0.026291-0.0067 0.052013-0.0067 0.079063v0.38447c0-0.02705 0.0041-0.052773 0.0067-0.079063z"
     fill="url(#linearGradient11110)"
     opacity=".3"
     id="path30"
     inkscape:label="Destello" />
  <g
     id="g1"
     inkscape:label="Icono"
     transform="matrix(0.07065251,0,0,0.07065251,-0.62320528,-0.15328713)">
    <path
       d="m 128.812,81 c -28.031,0 -26.281,12.1562 -26.281,12.1562 l 0.031,12.5938 h 26.75 v 3.781 H 91.9375 c 0,0 -17.9375,-2.034 -17.9375,26.25 0,28.285 15.6562,27.281 15.6562,27.281 H 99 v -13.124 c 0,0 -0.5037,-15.657 15.406,-15.657 15.91,0 26.532,0 26.532,0 0,0 14.906,0.241 14.906,-14.406 0,-14.647 0,-24.2188 0,-24.2188 0,0 2.263,-14.6562 -27.032,-14.6562 z m -14.75,8.4688 c 2.662,-1e-4 4.813,2.151 4.813,4.8124 0,2.6615 -2.151,4.8126 -4.813,4.8126 -2.661,0 -4.812,-2.1511 -4.812,-4.8126 0,-2.6614 2.151,-4.8124 4.812,-4.8124 z"
       fill="url(#paint2_linear_538_12151)"
       id="path5"
       style="fill:url(#paint2_linear_538_12151)" />
    <path
       d="m 129.608,190.846 c 28.032,0 26.282,-12.156 26.282,-12.156 l -0.032,-12.594 h -26.75 v -3.781 h 37.375 c 0,0 17.938,2.034 17.938,-26.25 0,-28.284 -15.656,-27.281 -15.656,-27.281 h -9.344 v 13.125 c 0,0 0.504,15.656 -15.406,15.656 -15.91,0 -26.532,0 -26.532,0 0,0 -14.906,-0.241 -14.906,14.406 0,14.647 0,24.219 0,24.219 0,0 -2.263,14.656 27.031,14.656 z m 14.75,-8.469 c -2.661,0 -4.812,-2.151 -4.812,-4.812 0,-2.661 2.151,-4.813 4.812,-4.813 2.662,0 4.813,2.152 4.813,4.813 0,2.661 -2.151,4.812 -4.813,4.812 z"
       fill="url(#paint3_linear_538_12151)"
       id="path6"
       style="fill:url(#paint3_linear_538_12151)" />
  </g>
</svg>
