<?xml version="1.0" encoding="UTF-8" standalone="no"?>
<svg
   height="128px"
   viewBox="0 0 128 128"
   width="128px"
   version="1.1"
   id="svg9"
   sodipodi:docname="folder-projects.svg"
   inkscape:version="1.4.2 (ebf0e940d0, 2025-05-08)"
   xmlns:inkscape="http://www.inkscape.org/namespaces/inkscape"
   xmlns:sodipodi="http://sodipodi.sourceforge.net/DTD/sodipodi-0.dtd"
   xmlns:xlink="http://www.w3.org/1999/xlink"
   xmlns="http://www.w3.org/2000/svg"
   xmlns:svg="http://www.w3.org/2000/svg">
  <defs
     id="defs9">
    <linearGradient
       id="linearGradient12"
       inkscape:collect="always">
      <stop
         style="stop-color:#b2381c;stop-opacity:1;"
         offset="0"
         id="stop11" />
      <stop
         style="stop-color:#993018;stop-opacity:1;"
         offset="1"
         id="stop12" />
    </linearGradient>
    <linearGradient
       id="linearGradient9"
       inkscape:collect="always">
      <stop
         style="stop-color:#ff5833;stop-opacity:1;"
         offset="0"
         id="stop9" />
      <stop
         style="stop-color:#cc3d1f;stop-opacity:1;"
         offset="1"
         id="stop10" />
    </linearGradient>
    <linearGradient
       inkscape:collect="always"
       xlink:href="#linearGradient12"
       id="linearGradient10"
       x1="51.218811"
       y1="11.970947"
       x2="51.218807"
       y2="40.029053"
       gradientUnits="userSpaceOnUse" />
    <linearGradient
       inkscape:collect="always"
       xlink:href="#linearGradient30"
       id="linearGradient31"
       x1="3.3038199"
       y1="8.0820665"
       x2="5.1490541"
       y2="11.278106"
       gradientUnits="userSpaceOnUse"
       gradientTransform="matrix(6.2816026,0,0,6.2816026,37.451202,13.181823)" />
    <linearGradient
       id="linearGradient30"
       inkscape:collect="always">
      <stop
         style="stop-color:#ffffff;stop-opacity:0.99607843;"
         offset="0"
         id="stop30" />
      <stop
         style="stop-color:#e5e5e5;stop-opacity:1;"
         offset="1"
         id="stop31" />
    </linearGradient>
    <linearGradient
       inkscape:collect="always"
       xlink:href="#linearGradient20"
       id="linearGradient21"
       x1="11.999996"
       y1="42.983021"
       x2="116"
       y2="42.983021"
       gradientUnits="userSpaceOnUse"
       gradientTransform="translate(-0.001954,0.016005)" />
    <linearGradient
       id="linearGradient20"
       inkscape:collect="always">
      <stop
         style="stop-color:#ffffff;stop-opacity:0.5;"
         offset="0"
         id="stop20" />
      <stop
         style="stop-color:#ffffff;stop-opacity:0;"
         offset="1"
         id="stop21" />
    </linearGradient>
    <linearGradient
       inkscape:collect="always"
       xlink:href="#linearGradient9"
       id="linearGradient11"
       gradientUnits="userSpaceOnUse"
       x1="39.321217"
       y1="37.989925"
       x2="85.507339"
       y2="117.98664" />
  </defs>
  <sodipodi:namedview
     id="namedview9"
     pagecolor="#ffffff"
     bordercolor="#000000"
     borderopacity="0.25"
     inkscape:showpageshadow="2"
     inkscape:pageopacity="0.0"
     inkscape:pagecheckerboard="0"
     inkscape:deskcolor="#d1d1d1"
     inkscape:zoom="2.0624999"
     inkscape:cx="64.000002"
     inkscape:cy="44.121213"
     inkscape:window-width="1366"
     inkscape:window-height="697"
     inkscape:window-x="0"
     inkscape:window-y="0"
     inkscape:window-maximized="1"
     inkscape:current-layer="svg9" />
  <linearGradient
     id="a"
     gradientTransform="matrix(0.45451 0 0 0.455522 -1210.292114 616.172607)"
     gradientUnits="userSpaceOnUse"
     x1="2689.251953"
     x2="2918.069824"
     y1="-1106.802979"
     y2="-1106.802979">
    <stop
       offset="0"
       stop-color="#62a0ea"
       id="stop1" />
    <stop
       offset="0.0576991"
       stop-color="#afd4ff"
       id="stop2" />
    <stop
       offset="0.122204"
       stop-color="#62a0ea"
       id="stop3" />
    <stop
       offset="0.873306"
       stop-color="#62a0ea"
       id="stop4" />
    <stop
       offset="0.955997"
       stop-color="#c0d5ea"
       id="stop5" />
    <stop
       offset="1"
       stop-color="#62a0ea"
       id="stop6" />
  </linearGradient>
  <path
     d="m 21.976562 12 c -5.527343 0 -9.976562 4.460938 -9.976562 10 v 86.03125 c 0 5.542969 4.449219 10 9.976562 10 h 84.042969 c 5.53125 0 9.980469 -4.457031 9.980469 -10 v -72.085938 c 0 -6.628906 -5.359375 -12 -11.972656 -12 h -46.027344 c -2.453125 0 -4.695312 -1.386718 -5.796875 -3.582031 l -1.503906 -2.992187 c -1.65625 -3.292969 -5.019531 -5.371094 -8.699219 -5.371094 z m 0 0"
     fill="#438de6"
     id="path6"
     style="fill:url(#linearGradient10)"
     inkscape:label="Fondo" />
  <path
     d="m 65.976562 32 c -2.746093 0 -5.226562 1.101562 -7.027343 2.890625 c -2.273438 2.253906 -5.382813 5.109375 -8.632813 5.109375 h -28.339844 c -5.527343 0 -9.976562 4.460938 -9.976562 10 v 55.976562 c 0 5.539063 4.449219 10 9.976562 10 h 84.042969 c 5.53125 0 9.980469 -4.460937 9.980469 -10 v -63.976562 c 0 -5.539062 -4.449219 -10 -9.980469 -10 z m 0 0"
     fill="#a4caee"
     id="path8"
     style="fill:url(#linearGradient11)"
     inkscape:label="Cara" />
  <path
     d="m 54.458186,58.055137 -2.049215,2.047969 3.338076,3.338076 c -0.281705,0.58211 -0.427546,1.220305 -0.430039,1.867229 0.0025,1.833573 1.166705,3.477682 2.896822,4.088457 v 12.093355 c -1.728869,0.61076 -2.891835,2.253641 -2.894328,4.087218 0,2.383266 1.96196,4.343984 4.343984,4.343984 2.383272,0 4.343988,-1.960718 4.343988,-4.343984 -0.0025,-1.833577 -1.166705,-3.477683 -2.896822,-4.088458 V 69.395621 c 0.142097,-0.05113 0.28295,-0.109692 0.41882,-0.174507 l 5.802368,5.801119 c -0.279212,0.582103 -0.425048,1.221552 -0.42879,1.867229 0,2.383275 1.961961,4.34399 4.345233,4.34399 2.382027,0 4.342745,-1.960714 4.342745,-4.34399 0,-2.382025 -1.961962,-4.342741 -4.342745,-4.342741 -0.646924,0.0025 -1.285123,0.148335 -1.867228,0.42879 l -5.803614,-5.802365 c 0.281704,-0.58211 0.427546,-1.220305 0.430039,-1.865982 0,-2.383272 -1.960715,-4.345233 -4.343986,-4.345233 -0.645678,0.0037 -1.285123,0.149577 -1.867228,0.430034 z"
     style="clip-rule:evenodd;fill:url(#linearGradient31);fill-rule:nonzero;stroke-width:1.24647;stroke-linejoin:round;stroke-miterlimit:2"
     id="path3"
     inkscape:label="Icono" />
  <path
     id="path19-9"
     style="display:inline;fill:url(#linearGradient21);fill-opacity:1;stroke-width:4;stroke-linecap:round;enable-background:new;stop-color:#000000"
     inkscape:label="Brillo"
     d="m 65.976562,32 c -2.74656,0 -5.228077,1.100887 -7.029301,2.888672 C 56.673302,37.145735 53.562059,40 50.314448,40 h -28.33789 c -5.527661,0 -9.978516,4.460038 -9.978516,10 v 3.998047 C 11.998903,48.45883 16.449432,44 21.976558,44 h 28.33789 c 3.247611,0 6.358853,-2.854265 8.632813,-5.111328 C 60.748484,37.100887 63.230002,36 65.976562,36 h 40.042958 c 5.52771,0 9.97852,4.460038 9.97852,10 v -4 c 0,-5.539962 -4.45082,-10 -9.97852,-10 z" />
</svg>
