<?xml version="1.0" encoding="UTF-8" standalone="no"?>
<svg
   height="128px"
   viewBox="0 0 128 128"
   width="128px"
   version="1.1"
   id="svg9"
   sodipodi:docname="folder-books.svg"
   inkscape:version="1.4.2 (ebf0e940d0, 2025-05-08)"
   xmlns:inkscape="http://www.inkscape.org/namespaces/inkscape"
   xmlns:sodipodi="http://sodipodi.sourceforge.net/DTD/sodipodi-0.dtd"
   xmlns:xlink="http://www.w3.org/1999/xlink"
   xmlns="http://www.w3.org/2000/svg"
   xmlns:svg="http://www.w3.org/2000/svg">
  <defs
     id="defs9">
    <linearGradient
       id="linearGradient8"
       inkscape:collect="always">
      <stop
         style="stop-color:#ffffff;stop-opacity:1;"
         offset="0"
         id="stop8" />
      <stop
         style="stop-color:#e5e5e5;stop-opacity:1;"
         offset="1"
         id="stop13" />
    </linearGradient>
    <linearGradient
       id="linearGradient11"
       inkscape:collect="always">
      <stop
         style="stop-color:#9ee847;stop-opacity:1;"
         offset="0"
         id="stop11" />
      <stop
         style="stop-color:#84c835;stop-opacity:1;"
         offset="1"
         id="stop12" />
    </linearGradient>
    <linearGradient
       id="linearGradient9"
       inkscape:collect="always">
      <stop
         style="stop-color:#84c835;stop-opacity:1;"
         offset="0"
         id="stop10" />
      <stop
         style="stop-color:#7ebf33;stop-opacity:0.99607843;"
         offset="1"
         id="stop9" />
    </linearGradient>
    <linearGradient
       inkscape:collect="always"
       xlink:href="#linearGradient9"
       id="linearGradient10"
       x1="36.376762"
       y1="11.998122"
       x2="36.376762"
       y2="40.001877"
       gradientUnits="userSpaceOnUse" />
    <linearGradient
       inkscape:collect="always"
       xlink:href="#linearGradient11"
       id="linearGradient12"
       x1="40.843311"
       y1="45.835487"
       x2="83.848625"
       y2="120.32288"
       gradientUnits="userSpaceOnUse" />
    <linearGradient
       inkscape:collect="always"
       xlink:href="#linearGradient20"
       id="linearGradient21"
       x1="11.999996"
       y1="42.983021"
       x2="116"
       y2="42.983021"
       gradientUnits="userSpaceOnUse"
       gradientTransform="translate(4e-6,0.016005)" />
    <linearGradient
       id="linearGradient20"
       inkscape:collect="always">
      <stop
         style="stop-color:#ffffff;stop-opacity:0.5;"
         offset="0"
         id="stop20" />
      <stop
         style="stop-color:#ffffff;stop-opacity:0;"
         offset="1"
         id="stop21" />
    </linearGradient>
    <linearGradient
       inkscape:collect="always"
       xlink:href="#linearGradient8"
       id="linearGradient13"
       x1="56.362873"
       y1="61.884308"
       x2="72.497391"
       y2="89.830109"
       gradientUnits="userSpaceOnUse" />
  </defs>
  <sodipodi:namedview
     id="namedview9"
     pagecolor="#ffffff"
     bordercolor="#000000"
     borderopacity="0.25"
     inkscape:showpageshadow="2"
     inkscape:pageopacity="0.0"
     inkscape:pagecheckerboard="0"
     inkscape:deskcolor="#d1d1d1"
     inkscape:zoom="2.0625"
     inkscape:cx="-9.4545454"
     inkscape:cy="85.333333"
     inkscape:window-width="1366"
     inkscape:window-height="697"
     inkscape:window-x="0"
     inkscape:window-y="0"
     inkscape:window-maximized="1"
     inkscape:current-layer="svg9" />
  <linearGradient
     id="a"
     gradientTransform="matrix(0.45451 0 0 0.455522 -1210.292114 616.172607)"
     gradientUnits="userSpaceOnUse"
     x1="2689.251953"
     x2="2918.069824"
     y1="-1106.802979"
     y2="-1106.802979">
    <stop
       offset="0"
       stop-color="#62a0ea"
       id="stop1" />
    <stop
       offset="0.0576991"
       stop-color="#afd4ff"
       id="stop2" />
    <stop
       offset="0.122204"
       stop-color="#62a0ea"
       id="stop3" />
    <stop
       offset="0.873306"
       stop-color="#62a0ea"
       id="stop4" />
    <stop
       offset="0.955997"
       stop-color="#c0d5ea"
       id="stop5" />
    <stop
       offset="1"
       stop-color="#62a0ea"
       id="stop6" />
  </linearGradient>
  <path
     d="m 21.976562 12 c -5.527343 0 -9.976562 4.460938 -9.976562 10 v 86.03125 c 0 5.542969 4.449219 10 9.976562 10 h 84.042969 c 5.53125 0 9.980469 -4.457031 9.980469 -10 v -72.085938 c 0 -6.628906 -5.359375 -12 -11.972656 -12 h -46.027344 c -2.453125 0 -4.695312 -1.386718 -5.796875 -3.582031 l -1.503906 -2.992187 c -1.65625 -3.292969 -5.019531 -5.371094 -8.699219 -5.371094 z m 0 0"
     fill="#438de6"
     id="path6"
     style="fill:url(#linearGradient10)"
     inkscape:label="Fondo" />
  <path
     d="m 65.976562 32 c -2.746093 0 -5.226562 1.101562 -7.027343 2.890625 c -2.273438 2.253906 -5.382813 5.109375 -8.632813 5.109375 h -28.339844 c -5.527343 0 -9.976562 4.460938 -9.976562 10 v 55.976562 c 0 5.539063 4.449219 10 9.976562 10 h 84.042969 c 5.53125 0 9.980469 -4.460937 9.980469 -10 v -63.976562 c 0 -5.539062 -4.449219 -10 -9.980469 -10 z m 0 0"
     fill="#a4caee"
     id="path8"
     style="fill:url(#linearGradient12)"
     inkscape:label="Cara" />
  <path
     id="path19-9"
     style="display:inline;fill:url(#linearGradient21);fill-opacity:1;stroke-width:4;stroke-linecap:round;enable-background:new;stop-color:#000000"
     inkscape:label="Brillo"
     d="m 65.97852,32 c -2.74656,0 -5.228077,1.100887 -7.029301,2.888672 C 56.67526,37.145735 53.564017,40 50.316406,40 H 21.978516 C 16.450855,40 12,44.460038 12,50 v 3.998047 C 12.000861,48.45883 16.45139,44 21.978516,44 h 28.33789 c 3.247611,0 6.358853,-2.854265 8.632813,-5.111328 C 60.750442,37.100887 63.23196,36 65.97852,36 h 40.04296 C 111.54919,36 116,40.460038 116,46 v -4 c 0,-5.539962 -4.45082,-10 -9.97852,-10 z" />
  <path
     d="M 64.4297,85.997657 54.289552,75.856698 64.4297,65.716954 l 3.380336,3.379724 -6.760507,6.759693 3.380132,3.380334 10.140146,-10.139742 -8.833092,-8.833092 c -0.7213,-0.72191 -1.891267,-0.72191 -2.613177,0 L 48.836591,74.55082 c -0.721301,0.7213 -0.721301,1.891267 0,2.613175 L 63.12354,91.450537 c 0.721909,0.721912 1.891876,0.721912 2.613176,0 L 80.023664,77.163996 c 0.721303,-0.721909 0.721303,-1.891875 0,-2.613176 l -2.074051,-2.073441 z"
     enable-background="new"
     fill="#ffffff"
     stroke-width="0.205616"
     id="path3"
     inkscape:label="Icono"
     style="fill:url(#linearGradient13)" />
</svg>
