<?xml version="1.0" encoding="UTF-8" standalone="no"?>
<svg
   height="128px"
   viewBox="0 0 128 128"
   width="128px"
   version="1.1"
   id="svg9"
   sodipodi:docname="user-home.svg"
   inkscape:version="1.4.2 (ebf0e940d0, 2025-05-08)"
   xmlns:inkscape="http://www.inkscape.org/namespaces/inkscape"
   xmlns:sodipodi="http://sodipodi.sourceforge.net/DTD/sodipodi-0.dtd"
   xmlns:xlink="http://www.w3.org/1999/xlink"
   xmlns="http://www.w3.org/2000/svg"
   xmlns:svg="http://www.w3.org/2000/svg">
  <defs
     id="defs9">
    <linearGradient
       id="linearGradient13"
       inkscape:collect="always">
      <stop
         style="stop-color:#637e8d;stop-opacity:0.99607843;"
         offset="0"
         id="stop13" />
      <stop
         style="stop-color:#516775;stop-opacity:0.99607843;"
         offset="1"
         id="stop14" />
    </linearGradient>
    <linearGradient
       id="linearGradient11"
       inkscape:collect="always">
      <stop
         style="stop-color:#ffffff;stop-opacity:1;"
         offset="0"
         id="stop11" />
      <stop
         style="stop-color:#e5e5e5;stop-opacity:1;"
         offset="1"
         id="stop12" />
    </linearGradient>
    <linearGradient
       id="linearGradient9"
       inkscape:collect="always">
      <stop
         style="stop-color:#b3c4d5;stop-opacity:1;"
         offset="0"
         id="stop9" />
      <stop
         style="stop-color:#6986a3;stop-opacity:1;"
         offset="1"
         id="stop10" />
    </linearGradient>
    <linearGradient
       inkscape:collect="always"
       xlink:href="#linearGradient20"
       id="linearGradient21"
       x1="11.999996"
       y1="42.983021"
       x2="116"
       y2="42.983021"
       gradientUnits="userSpaceOnUse"
       gradientTransform="translate(-0.001954,0.016)" />
    <linearGradient
       id="linearGradient20"
       inkscape:collect="always">
      <stop
         style="stop-color:#ffffff;stop-opacity:0.5;"
         offset="0"
         id="stop20" />
      <stop
         style="stop-color:#ffffff;stop-opacity:0;"
         offset="1"
         id="stop21" />
    </linearGradient>
    <linearGradient
       inkscape:collect="always"
       xlink:href="#linearGradient9"
       id="linearGradient10"
       x1="52.128918"
       y1="61.192928"
       x2="86.565201"
       y2="120.83833"
       gradientUnits="userSpaceOnUse" />
    <linearGradient
       inkscape:collect="always"
       xlink:href="#linearGradient11"
       id="linearGradient12"
       x1="56.495316"
       y1="63.272839"
       x2="73.500778"
       y2="92.727165"
       gradientUnits="userSpaceOnUse" />
    <linearGradient
       inkscape:collect="always"
       xlink:href="#linearGradient13"
       id="linearGradient14"
       x1="64"
       y1="13.015625"
       x2="64"
       y2="117.01562"
       gradientUnits="userSpaceOnUse" />
  </defs>
  <sodipodi:namedview
     id="namedview9"
     pagecolor="#ffffff"
     bordercolor="#000000"
     borderopacity="0.25"
     inkscape:showpageshadow="2"
     inkscape:pageopacity="0.0"
     inkscape:pagecheckerboard="0"
     inkscape:deskcolor="#d1d1d1"
     inkscape:zoom="2.9168155"
     inkscape:cx="37.540942"
     inkscape:cy="77.138922"
     inkscape:window-width="1366"
     inkscape:window-height="697"
     inkscape:window-x="0"
     inkscape:window-y="0"
     inkscape:window-maximized="1"
     inkscape:current-layer="svg9" />
  <linearGradient
     id="a"
     gradientTransform="matrix(0.45451 0 0 0.455522 -1210.292114 616.172607)"
     gradientUnits="userSpaceOnUse"
     x1="2689.251953"
     x2="2918.069824"
     y1="-1106.802979"
     y2="-1106.802979">
    <stop
       offset="0"
       stop-color="#62a0ea"
       id="stop1" />
    <stop
       offset="0.0576991"
       stop-color="#afd4ff"
       id="stop2" />
    <stop
       offset="0.122204"
       stop-color="#62a0ea"
       id="stop3" />
    <stop
       offset="0.873306"
       stop-color="#62a0ea"
       id="stop4" />
    <stop
       offset="0.955997"
       stop-color="#c0d5ea"
       id="stop5" />
    <stop
       offset="1"
       stop-color="#62a0ea"
       id="stop6" />
  </linearGradient>
  <path
     d="m 21.976562 12 c -5.527343 0 -9.976562 4.460938 -9.976562 10 v 86.03125 c 0 5.542969 4.449219 10 9.976562 10 h 84.042969 c 5.53125 0 9.980469 -4.457031 9.980469 -10 v -72.085938 c 0 -6.628906 -5.359375 -12 -11.972656 -12 h -46.027344 c -2.453125 0 -4.695312 -1.386718 -5.796875 -3.582031 l -1.503906 -2.992187 c -1.65625 -3.292969 -5.019531 -5.371094 -8.699219 -5.371094 z m 0 0"
     fill="#438de6"
     id="path6"
     inkscape:label="Fondo"
     style="fill:url(#linearGradient14)" />
  <path
     d="m 65.976562 32 c -2.746093 0 -5.226562 1.101562 -7.027343 2.890625 c -2.273438 2.253906 -5.382813 5.109375 -8.632813 5.109375 h -28.339844 c -5.527343 0 -9.976562 4.460938 -9.976562 10 v 55.976562 c 0 5.539063 4.449219 10 9.976562 10 h 84.042969 c 5.53125 0 9.980469 -4.460937 9.980469 -10 v -63.976562 c 0 -5.539062 -4.449219 -10 -9.980469 -10 z m 0 0"
     fill="#a4caee"
     id="path8"
     inkscape:label="Cara"
     style="fill:url(#linearGradient10)" />
  <path
     d="m 64.875 64 c -0.414062 0 -0.820312 0.132812 -1.164062 0.367188 l -14.878907 10 c -0.898437 0.648437 -1.109375 1.890624 -0.46875 2.789062 c 0.382813 0.53125 0.984375 0.84375 1.632813 0.835938 v 8.007812 c 0 3.289062 2.710937 6 6 6 h 18.003906 c 3.289062 0 6 -2.640625 6 -6 v -8.007812 c 0.648438 0.007812 1.25 -0.304688 1.632812 -0.835938 c 0.640626 -0.898438 0.429688 -2.140625 -0.46875 -2.789062 l -15.125 -10 c -0.34375 -0.234376 -0.75 -0.367188 -1.164062 -0.367188 z m 0 4.453125 l 11.125 7.140625 v 10.40625 c 0 1.125 -0.875 2 -2 2 h -8.003906 v -8 c 0 -1.109375 -0.890625 -2 -2 -2 h -2 c -1.109375 0 -2 0.890625 -2 2 v 8 h -4 c -1.125 0 -2 -0.875 -2 -2 v -10.40625 z m 0 0"
     fill="#438de6"
     id="path9"
     inkscape:label="Icono"
     style="fill:url(#linearGradient12)" />
  <path
     id="path19-9"
     style="display:inline;fill:url(#linearGradient21);fill-opacity:1;stroke-width:4;stroke-linecap:round;enable-background:new;stop-color:#000000"
     inkscape:label="Brillo"
     d="m 65.976562,32 c -2.74656,0 -5.228077,1.100887 -7.029301,2.888672 C 56.673302,37.145735 53.562059,40 50.314448,40 h -28.33789 c -5.527661,0 -9.978516,4.460038 -9.978516,10 v 3.998047 C 11.998903,48.45883 16.449432,44 21.976558,44 h 28.33789 c 3.247611,0 6.358853,-2.854265 8.632813,-5.111328 C 60.748484,37.100887 63.230002,36 65.976562,36 h 40.042958 c 5.52771,0 9.97852,4.460038 9.97852,10 v -4 c 0,-5.539962 -4.45082,-10 -9.97852,-10 z" />
</svg>
