<?xml version="1.0" encoding="UTF-8" standalone="no"?>
<svg
   height="128px"
   viewBox="0 0 128 128"
   width="128px"
   version="1.1"
   id="svg10"
   sodipodi:docname="user-desktop.svg"
   inkscape:version="1.4.2 (ebf0e940d0, 2025-05-08)"
   xmlns:inkscape="http://www.inkscape.org/namespaces/inkscape"
   xmlns:sodipodi="http://sodipodi.sourceforge.net/DTD/sodipodi-0.dtd"
   xmlns:xlink="http://www.w3.org/1999/xlink"
   xmlns="http://www.w3.org/2000/svg"
   xmlns:svg="http://www.w3.org/2000/svg">
  <defs
     id="defs10">
    <linearGradient
       id="linearGradient12"
       inkscape:collect="always">
      <stop
         style="stop-color:#37d4e1;stop-opacity:1;"
         offset="0"
         id="stop12" />
      <stop
         style="stop-color:#03355e;stop-opacity:1;"
         offset="1"
         id="stop13" />
    </linearGradient>
    <linearGradient
       id="linearGradient10"
       inkscape:collect="always">
      <stop
         style="stop-color:#ffffff;stop-opacity:1;"
         offset="0"
         id="stop11" />
      <stop
         style="stop-color:#e5e5e5;stop-opacity:1;"
         offset="1"
         id="stop10" />
    </linearGradient>
    <linearGradient
       inkscape:collect="always"
       xlink:href="#linearGradient20"
       id="linearGradient21"
       x1="11.999996"
       y1="42.983021"
       x2="116"
       y2="42.983021"
       gradientUnits="userSpaceOnUse"
       gradientTransform="translate(-0.001954,0.016005)" />
    <linearGradient
       id="linearGradient20"
       inkscape:collect="always">
      <stop
         style="stop-color:#ffffff;stop-opacity:0.5;"
         offset="0"
         id="stop20" />
      <stop
         style="stop-color:#ffffff;stop-opacity:0;"
         offset="1"
         id="stop21" />
    </linearGradient>
    <linearGradient
       inkscape:collect="always"
       xlink:href="#linearGradient10"
       id="linearGradient11"
       x1="56"
       y1="64.143593"
       x2="72"
       y2="91.856407"
       gradientUnits="userSpaceOnUse" />
    <linearGradient
       inkscape:collect="always"
       xlink:href="#linearGradient12"
       id="linearGradient13"
       x1="38"
       y1="28.95496"
       x2="90"
       y2="119.0216"
       gradientUnits="userSpaceOnUse"
       gradientTransform="matrix(1,0,0,1.0244674,0,-0.78295675)" />
  </defs>
  <sodipodi:namedview
     id="namedview10"
     pagecolor="#ffffff"
     bordercolor="#000000"
     borderopacity="0.25"
     inkscape:showpageshadow="2"
     inkscape:pageopacity="0.0"
     inkscape:pagecheckerboard="0"
     inkscape:deskcolor="#d1d1d1"
     inkscape:zoom="4.125"
     inkscape:cx="64"
     inkscape:cy="102.78788"
     inkscape:window-width="1366"
     inkscape:window-height="697"
     inkscape:window-x="0"
     inkscape:window-y="0"
     inkscape:window-maximized="1"
     inkscape:current-layer="svg10" />
  <linearGradient
     id="a"
     gradientTransform="matrix(0.45451 0 0 0.455522 -1210.292114 616.172607)"
     gradientUnits="userSpaceOnUse"
     x1="2689.251953"
     x2="2918.069824"
     y1="-1106.802979"
     y2="-1106.802979">
    <stop
       offset="0"
       stop-color="#62a0ea"
       id="stop1" />
    <stop
       offset="0.0576991"
       stop-color="#afd4ff"
       id="stop2" />
    <stop
       offset="0.122204"
       stop-color="#62a0ea"
       id="stop3" />
    <stop
       offset="0.873306"
       stop-color="#62a0ea"
       id="stop4" />
    <stop
       offset="0.955997"
       stop-color="#c0d5ea"
       id="stop5" />
    <stop
       offset="1"
       stop-color="#62a0ea"
       id="stop6" />
  </linearGradient>
  <path
     d="m 21.976562 12 c -5.527343 0 -9.976562 4.460938 -9.976562 10 v 86.03125 c 0 5.542969 4.449219 10 9.976562 10 h 84.042969 c 5.53125 0 9.980469 -4.457031 9.980469 -10 v -72.085938 c 0 -6.628906 -5.359375 -12 -11.972656 -12 h -46.027344 c -2.453125 0 -4.695312 -1.386718 -5.796875 -3.582031 l -1.503906 -2.992187 c -1.65625 -3.292969 -5.019531 -5.371094 -8.699219 -5.371094 z m 0 0"
     fill="#438de6"
     id="path6"
     style="fill:#034780;fill-opacity:1"
     inkscape:label="Fondo" />
  <path
     d="m 65.976562,32 c -2.746093,0 -5.226562,1.128514 -7.027343,2.961351 -2.273438,2.309053 -5.382813,5.234388 -8.632813,5.234388 H 21.976562 C 16.449219,40.195739 12,44.765825 12,50.440413 v 57.346167 c 0,5.67459 4.449219,10.24467 9.976562,10.24467 h 84.042968 c 5.53125,0 9.98047,-4.57008 9.98047,-10.24467 V 42.244674 C 116,36.570086 111.55078,32 106.01953,32 Z m 0,0"
     fill="#a4caee"
     id="path8"
     style="fill:url(#linearGradient13);stroke-width:1.01216"
     inkscape:label="Cara" />
  <path
     id="path9"
     style="fill:url(#linearGradient11)"
     d="M 54 64 C 50.710938 64 48 66.710938 48 70 L 48 86 C 48 89.289062 50.710938 92 54 92 L 74 92 C 77.289062 92 80 89.289062 80 86 L 80 74 C 80 70.710938 77.289062 68 74 68 L 66.828125 68 L 63.414062 64.585938 C 63.039062 64.210938 62.53125 64 62 64 L 54 64 z M 54 68 L 61.171875 68 L 63.171875 70 L 52 70 C 52 68.875 52.875 68 54 68 z M 52 72 L 66 72 L 74 72 C 75.125 72 76 72.875 76 74 L 76 86 C 76 87.132812 75.125 88 74 88 L 54 88 C 52.875 88 52 87.132812 52 86 L 52 72 z "
     inkscape:label="Icono" />
  <path
     id="path19-9"
     style="display:inline;fill:url(#linearGradient21);fill-opacity:1;stroke-width:4;stroke-linecap:round;enable-background:new;stop-color:#000000"
     inkscape:label="Brillo"
     d="m 65.976562,32 c -2.74656,0 -5.228077,1.100887 -7.029301,2.888672 C 56.673302,37.145735 53.562059,40 50.314448,40 h -28.33789 c -5.527661,0 -9.978516,4.460038 -9.978516,10 v 3.998047 C 11.998903,48.45883 16.449432,44 21.976558,44 h 28.33789 c 3.247611,0 6.358853,-2.854265 8.632813,-5.111328 C 60.748484,37.100887 63.230002,36 65.976562,36 h 40.042958 c 5.52771,0 9.97852,4.460038 9.97852,10 v -4 c 0,-5.539962 -4.45082,-10 -9.97852,-10 z" />
</svg>
