<?xml version="1.0" encoding="UTF-8" standalone="no"?>
<svg
   width="64"
   height="64"
   version="1.1"
   viewBox="0 0 16.933 16.933"
   id="svg30"
   sodipodi:docname="folder-projects.svg"
   xml:space="preserve"
   inkscape:version="1.4 (e7c3feb100, 2024-10-09)"
   xmlns:inkscape="http://www.inkscape.org/namespaces/inkscape"
   xmlns:sodipodi="http://sodipodi.sourceforge.net/DTD/sodipodi-0.dtd"
   xmlns:xlink="http://www.w3.org/1999/xlink"
   xmlns="http://www.w3.org/2000/svg"
   xmlns:svg="http://www.w3.org/2000/svg"
   xmlns:rdf="http://www.w3.org/1999/02/22-rdf-syntax-ns#"
   xmlns:cc="http://creativecommons.org/ns#"
   xmlns:dc="http://purl.org/dc/elements/1.1/"><sodipodi:namedview
     id="namedview30"
     pagecolor="#ffffff"
     bordercolor="#000000"
     borderopacity="0.25"
     inkscape:showpageshadow="2"
     inkscape:pageopacity="0.0"
     inkscape:pagecheckerboard="0"
     inkscape:deskcolor="#d1d1d1"
     inkscape:zoom="6.0766989"
     inkscape:cx="13.247324"
     inkscape:cy="43.609204"
     inkscape:window-width="1342"
     inkscape:window-height="723"
     inkscape:window-x="0"
     inkscape:window-y="0"
     inkscape:window-maximized="1"
     inkscape:current-layer="svg30" /><defs
     id="defs8"><linearGradient
       id="linearGradient30"
       inkscape:collect="always"><stop
         style="stop-color:#ffffff;stop-opacity:0.99607843;"
         offset="0"
         id="stop30" /><stop
         style="stop-color:#e5e5e5;stop-opacity:1;"
         offset="1"
         id="stop31" /></linearGradient><style
       type="text/css"
       id="style1" /><linearGradient
       id="linearGradient1911"
       x1="25.085"
       x2="25.085"
       y1="24.031"
       y2="26.412"
       gradientTransform="translate(-17.897 -21.385)"
       gradientUnits="userSpaceOnUse"><stop
         stop-color="#fcbc19"
         stop-opacity=".99608"
         offset="0"
         id="stop1"
         style="stop-color:#27313f;stop-opacity:1;" /><stop
         stop-color="#f4b61f"
         offset="1"
         id="stop2"
         style="stop-color:#0f1419;stop-opacity:1;" /></linearGradient><linearGradient
       id="linearGradient4625"
       x1=".52918"
       x2="16.404"
       y1="5.0665"
       y2="5.0665"
       gradientUnits="userSpaceOnUse"><stop
         stop-color="#b78815"
         offset="0"
         id="stop3" /><stop
         stop-color="#e2b24b"
         stop-opacity="0"
         offset="1"
         id="stop4" /></linearGradient><linearGradient
       id="linearGradient1951"
       x1="100"
       x2="133.19"
       y1="17.453"
       y2="51.606"
       gradientTransform="matrix(.26458 0 0 .26458 -20.108 -.13539)"
       gradientUnits="userSpaceOnUse"><stop
         stop-color="#fce798"
         offset="0"
         id="stop5"
         style="stop-color:#27313f;stop-opacity:1;" /><stop
         stop-color="#ffc937"
         offset="1"
         id="stop6"
         style="stop-color:#0f1419;stop-opacity:1;" /></linearGradient><linearGradient
       id="linearGradient11110"
       x1=".52917"
       x2="16.404"
       y1="5.3815"
       y2="5.3815"
       gradientUnits="userSpaceOnUse"><stop
         stop-color="#fff"
         offset="0"
         id="stop7" /><stop
         stop-color="#fff"
         stop-opacity="0"
         offset="1"
         id="stop8" /></linearGradient><linearGradient
       id="_Linear1"
       x2="1"
       gradientTransform="matrix(2.54933e-15,-41.6338,41.6338,2.54933e-15,445.153,52.7218)"
       gradientUnits="userSpaceOnUse"><stop
         style="stop-color:rgb(16,117,246)"
         offset="0"
         id="stop3-3" /><stop
         style="stop-color:rgb(18,197,255)"
         offset="1"
         id="stop4-6" /></linearGradient><linearGradient
       id="_Linear2"
       x2="1"
       gradientTransform="matrix(.537445 25.5655 -25.5655 .537445 -484.295 31.0978)"
       gradientUnits="userSpaceOnUse"><stop
         style="stop-color:rgb(18,108,152)"
         offset="0"
         id="stop5-7" /><stop
         style="stop-color:rgb(11,79,148)"
         offset="1"
         id="stop6-5" /></linearGradient><linearGradient
       id="_Linear2-3"
       x2="0.75"
       gradientTransform="matrix(0.10664714,5.0730539,-5.0730539,0.10664714,-98.223833,9.3007412)"
       gradientUnits="userSpaceOnUse"
       x1="0.25"
       y1="-0.43301269"
       y2="0.43301269"><stop
         style="stop-color:#ffffff;stop-opacity:1;"
         offset="0"
         id="stop5-7-5" /><stop
         style="stop-color:rgb(11,79,148)"
         offset="1"
         id="stop6-5-6" /></linearGradient><linearGradient
       inkscape:collect="always"
       xlink:href="#linearGradient30"
       id="linearGradient31"
       x1="3.3038199"
       y1="8.0820665"
       x2="5.1490541"
       y2="11.278106"
       gradientUnits="userSpaceOnUse"
       gradientTransform="matrix(1.343309,0,0,1.343309,2.7892537,-3.2736992)" /></defs><metadata
     id="metadata8"><rdf:RDF><cc:Work
         rdf:about=""><dc:format>image/svg+xml</dc:format><dc:type
           rdf:resource="http://purl.org/dc/dcmitype/StillImage" /></cc:Work></rdf:RDF></metadata><path
     d="m1.1975 2.2489c-0.3653 0-0.66145 0.32575-0.66145 0.72759v2.9636c-0.0026 0.02629-0.0072 0.052-0.0072 0.07906v7.9373c0 0.40184 0.29614 0.72759 0.66144 0.72759h14.552c0.36531 0 0.66144-0.32575 0.66144-0.72759v-9.393c0-0.40184-0.29614-0.72759-0.66144-0.72759v5.16e-4h-8.1993l-0.89864-1.1095s-0.36607-0.478-1.0583-0.478h-1.3229z"
     color="#000000"
     color-rendering="auto"
     dominant-baseline="auto"
     fill="url(#linearGradient1911)"
     image-rendering="auto"
     shape-rendering="auto"
     solid-color="#000000"
     stop-color="#000000"
     style="font-feature-settings:normal;font-variant-alternates:normal;font-variant-caps:normal;font-variant-east-asian:normal;font-variant-ligatures:normal;font-variant-numeric:normal;font-variant-position:normal;font-variation-settings:normal;inline-size:0;isolation:auto;mix-blend-mode:normal;shape-margin:0;shape-padding:0;text-decoration-color:#000000;text-decoration-line:none;text-decoration-style:solid;text-indent:0;text-orientation:mixed;text-transform:none;white-space:normal"
     id="path8" /><path
     d="m0.52916 13.674v0.28215c0 0.20092 0.07357 0.3825 0.19327 0.51417s0.28553 0.21342 0.46818 0.21342h14.552c0.18265 0 0.34796-0.08175 0.46766-0.21342s0.19378-0.31325 0.19378-0.51417v-0.28215c0 0.20092-0.07409 0.3825-0.19378 0.51417-0.1197 0.13167-0.28501 0.21342-0.46766 0.21342h-14.552c-0.18265 0-0.34848-0.08176-0.46818-0.21342s-0.19327-0.31325-0.19327-0.51417z"
     fill="#e4a729"
     fill-opacity=".99608"
     stroke-width=".26458"
     id="path28"
     style="fill:#0f1419;fill-opacity:0.99607843" /><path
     d="m7.542 4.0979s-0.35919 0.47868-1.1575 0.79218c-0.03271 0.00587-0.06509 0.011575-0.10077 0.017052h-4.9608c-0.21986 0-0.41824 0.088552-0.56171 0.23202-0.13937 0.13936-0.22042 0.33333-0.2253 0.54569v0.51675c-0.0026 0.026291-0.0067 0.052014-0.0067 0.079064v7.3953c0 0.20092 0.07357 0.3825 0.19327 0.51417 0.1197 0.13167 0.28553 0.21342 0.46818 0.21342h14.552c0.18265 0 0.34796-0.08175 0.46766-0.21342 0.1197-0.13167 0.19378-0.31325 0.19378-0.51417v-8.851c0-0.20092-0.07408-0.38302-0.19378-0.51469-0.11945-0.13137-0.28449-0.21202-0.46665-0.21239h-7.4821z"
     fill="url(#linearGradient1951)"
     id="path29" /><path
     d="m7.542 4.0979s-0.35919 0.47868-1.1575 0.79218c-0.03271 0.00587-0.06509 0.011575-0.10077 0.017052h-4.9608c-0.21986 0-0.41824 0.088552-0.56171 0.23202-0.13937 0.13936-0.22041 0.33333-0.2253 0.54569v0.38446c0.0049-0.21236 0.08593-0.40633 0.2253-0.54569 0.14347-0.14347 0.34185-0.23202 0.56171-0.23202h4.9608c0.03568-0.00548 0.06806-0.011184 0.10077-0.017052 0.75911-0.26303 1.2883-0.79218 1.2883-0.79218h8.0707c0.18216 3.704e-4 0.34718 0.081016 0.46663 0.21239 0.1197 0.13167 0.19378 0.31377 0.19378 0.51469v-0.38446c0-0.20092-0.07408-0.38302-0.19378-0.51469-0.11945-0.13137-0.28447-0.21202-0.46663-0.21239h-7.4821zm-7.0062 2.1037c-0.0026 0.026291-0.0067 0.052013-0.0067 0.079063v0.38447c0-0.02705 0.0041-0.052773 0.0067-0.079063z"
     fill="url(#linearGradient11110)"
     opacity=".3"
     id="path30" /><path
     d="M 6.426166,6.3223755 5.9879452,6.7603298 6.7017866,7.4741711 c -0.060242,0.1244832 -0.09143,0.26096 -0.091963,0.3993033 5.332e-4,0.3921063 0.2494979,0.7436958 0.61948,0.8743091 v 2.5861415 c -0.3697155,0.13061 -0.6184138,0.481937 -0.6189468,0.874044 0,0.509657 0.4195616,0.928953 0.9289532,0.928953 0.5096581,0 0.9289535,-0.419296 0.9289535,-0.928953 -5.331e-4,-0.392107 -0.249498,-0.743696 -0.61948,-0.874309 V 8.7475168 c 0.030387,-0.010934 0.060508,-0.023457 0.089564,-0.037318 l 1.2408257,1.2405588 c -0.059709,0.1244814 -0.090896,0.2612264 -0.091696,0.3993034 0,0.509659 0.4195617,0.928954 0.9292198,0.928954 0.509392,0 0.928688,-0.419295 0.928688,-0.928954 0,-0.5093917 -0.419562,-0.928687 -0.928688,-0.928687 C 9.8783535,9.4219072 9.7418761,9.453095 9.6173937,9.51307 L 8.3763017,8.2722446 C 8.4365437,8.1477615 8.4677317,8.0112848 8.4682647,7.8732079 8.4682647,7.3635496 8.0489695,6.943988 7.5393113,6.943988 7.4012344,6.9447877 7.2644904,6.975975 7.140008,7.03595 Z"
     style="clip-rule:evenodd;fill:url(#linearGradient31);fill-rule:nonzero;stroke-width:0.266558;stroke-linejoin:round;stroke-miterlimit:2"
     id="path3" /></svg>
