<?xml version="1.0" encoding="UTF-8" standalone="no"?>
<svg
   width="64"
   height="64"
   version="1.1"
   viewBox="0 0 16.933 16.933"
   id="svg20"
   sodipodi:docname="folder-publicshare.svg"
   inkscape:version="1.4 (e7c3feb100, 2024-10-09)"
   xmlns:inkscape="http://www.inkscape.org/namespaces/inkscape"
   xmlns:sodipodi="http://sodipodi.sourceforge.net/DTD/sodipodi-0.dtd"
   xmlns="http://www.w3.org/2000/svg"
   xmlns:svg="http://www.w3.org/2000/svg"
   xmlns:rdf="http://www.w3.org/1999/02/22-rdf-syntax-ns#"
   xmlns:cc="http://creativecommons.org/ns#"
   xmlns:dc="http://purl.org/dc/elements/1.1/">
  <sodipodi:namedview
     id="namedview20"
     pagecolor="#ffffff"
     bordercolor="#000000"
     borderopacity="0.25"
     inkscape:showpageshadow="2"
     inkscape:pageopacity="0.0"
     inkscape:pagecheckerboard="0"
     inkscape:deskcolor="#d1d1d1"
     inkscape:zoom="8.5"
     inkscape:cx="31.941176"
     inkscape:cy="31.176471"
     inkscape:window-width="1366"
     inkscape:window-height="703"
     inkscape:window-x="0"
     inkscape:window-y="0"
     inkscape:window-maximized="1"
     inkscape:current-layer="svg20" />
  <defs
     id="defs14">
    <linearGradient
       id="linearGradient1911"
       x1="25.085"
       x2="25.085"
       y1="24.031"
       y2="26.412"
       gradientTransform="translate(-17.896194,-21.517251)"
       gradientUnits="userSpaceOnUse">
      <stop
         stop-color="#fcbc19"
         stop-opacity=".99608"
         offset="0"
         id="stop1"
         style="stop-color:#1abcfa;stop-opacity:0.99607843;" />
      <stop
         stop-color="#f4b61f"
         offset="1"
         id="stop2"
         style="stop-color:#2498fe;stop-opacity:1;" />
    </linearGradient>
    <linearGradient
       id="linearGradient4625"
       x1=".52918"
       x2="16.404"
       y1="5.0665"
       y2="5.0665"
       gradientTransform="translate(8.06e-4,-0.132251)"
       gradientUnits="userSpaceOnUse">
      <stop
         stop-color="#b78815"
         offset="0"
         id="stop3" />
      <stop
         stop-color="#e2b24b"
         stop-opacity="0"
         offset="1"
         id="stop4" />
    </linearGradient>
    <linearGradient
       id="linearGradient1951"
       x1="100"
       x2="133.19"
       y1="17.453"
       y2="51.606"
       gradientTransform="matrix(0.26458,0,0,0.26458,-20.107194,-0.267641)"
       gradientUnits="userSpaceOnUse">
      <stop
         stop-color="#fce798"
         offset="0"
         id="stop5"
         style="stop-color:#1abcfa;stop-opacity:1;" />
      <stop
         stop-color="#ffc937"
         offset="1"
         id="stop6"
         style="stop-color:#2498fe;stop-opacity:1;" />
    </linearGradient>
    <linearGradient
       id="linearGradient11110"
       x1=".52917"
       x2="16.404"
       y1="5.3815"
       y2="5.3815"
       gradientTransform="translate(8.06e-4,-0.132251)"
       gradientUnits="userSpaceOnUse">
      <stop
         stop-color="#fff"
         offset="0"
         id="stop7" />
      <stop
         stop-color="#fff"
         stop-opacity="0"
         offset="1"
         id="stop8" />
    </linearGradient>
    <linearGradient
       id="linearGradient1119"
       x1="8.4665"
       x2="8.4665"
       y1="6.0853"
       y2="9.4879"
       gradientUnits="userSpaceOnUse">
      <stop
         stop-color="#fddb7a"
         offset="0"
         id="stop9" />
      <stop
         stop-color="#ffd970"
         offset="1"
         id="stop10" />
    </linearGradient>
    <linearGradient
       id="linearGradient1284"
       x1="8.4665"
       x2="8.4665"
       y1="10.26"
       y2="13.229"
       gradientUnits="userSpaceOnUse">
      <stop
         stop-color="#ffd96e"
         offset="0"
         id="stop11" />
      <stop
         stop-color="#ffd561"
         offset="1"
         id="stop12" />
    </linearGradient>
    <linearGradient
       id="linearGradient1272"
       x1="-3.9033"
       x2="-3.9033"
       y1="7.7839"
       y2="15.613"
       gradientTransform="translate(12.362 -2.1249)"
       gradientUnits="userSpaceOnUse">
      <stop
         stop-color="#c68d00"
         offset="0"
         id="stop13" />
      <stop
         stop-color="#a67100"
         offset="1"
         id="stop14" />
    </linearGradient>
    <filter
       style="color-interpolation-filters:sRGB;"
       inkscape:label="Blur"
       id="filter29"
       x="-0.30236815"
       y="-0.30236817"
       width="1.6047363"
       height="1.6047363">
      <feGaussianBlur
         stdDeviation="1 1"
         result="blur"
         id="feGaussianBlur29" />
    </filter>
  </defs>
  <metadata
     id="metadata14">
    <rdf:RDF>
      <cc:Work
         rdf:about="">
        <dc:format>image/svg+xml</dc:format>
        <dc:type
           rdf:resource="http://purl.org/dc/dcmitype/StillImage" />
      </cc:Work>
    </rdf:RDF>
  </metadata>
  <path
     d="m 1.197806,2.116649 c -0.3653,0 -0.66145,0.32575 -0.66145,0.72759 v 2.9636 c -0.0026,0.02629 -0.0072,0.052 -0.0072,0.07906 v 7.9373 c 0,0.40184 0.29614,0.72759 0.66144,0.72759 h 14.552 c 0.36531,0 0.66144,-0.32575 0.66144,-0.72759 v -9.393 c 0,-0.40184 -0.29614,-0.72759 -0.66144,-0.72759 v 5.16e-4 h -8.1993 l -0.89864,-1.1095 c 0,0 -0.36607,-0.478 -1.0583,-0.478 h -1.3229 z"
     color="#000000"
     color-rendering="auto"
     dominant-baseline="auto"
     fill="url(#linearGradient1911)"
     image-rendering="auto"
     shape-rendering="auto"
     solid-color="#000000"
     stop-color="#000000"
     style="font-variant-ligatures:normal;font-variant-position:normal;font-variant-caps:normal;font-variant-numeric:normal;font-variant-alternates:normal;font-variant-east-asian:normal;font-feature-settings:normal;font-variation-settings:normal;text-indent:0;text-decoration-line:none;text-decoration-style:solid;text-decoration-color:#000000;text-transform:none;text-orientation:mixed;white-space:normal;shape-padding:0;shape-margin:0;inline-size:0;isolation:auto;mix-blend-mode:normal;fill:url(#linearGradient1911)"
     id="path14" />
  <path
     d="m 7.542806,3.965649 c 0,0 -0.35919,0.47868 -1.1575,0.79218 -0.03271,0.00587 -0.06509,0.011575 -0.10077,0.017052 h -4.9608 c -0.21986,0 -0.41824,0.088552 -0.56171,0.23202 -0.13937,0.13936 -0.22042,0.33333 -0.2253,0.54569 v 0.51675 c -0.0026,0.02629 -0.0067,0.05201 -0.0067,0.07906 v 7.3953 c 0,0.20092 0.07357,0.3825 0.19327,0.51417 0.1197,0.13167 0.28553,0.21342 0.46818,0.21342 h 14.552 c 0.18265,0 0.34796,-0.08175 0.46766,-0.21342 0.1197,-0.13167 0.19378,-0.31325 0.19378,-0.51417 v -8.851 c 0,-0.20092 -0.07408,-0.38302 -0.19378,-0.51469 -0.11945,-0.13137 -0.28449,-0.21202 -0.46665,-0.21239 h -7.4821 z"
     fill="url(#linearGradient1951)"
     id="path17"
     style="fill:url(#linearGradient1951)" />
  <path
     d="m 7.542806,3.965649 c 0,0 -0.35919,0.47868 -1.1575,0.79218 -0.03271,0.00587 -0.06509,0.011575 -0.10077,0.017052 h -4.9608 c -0.21986,0 -0.41824,0.088552 -0.56171,0.23202 -0.13937,0.13936 -0.22041,0.33333 -0.2253,0.54569 v 0.38446 c 0.0049,-0.21236 0.08593,-0.40633 0.2253,-0.54569 0.14347,-0.14347 0.34185,-0.23202 0.56171,-0.23202 h 4.9608 c 0.03568,-0.00548 0.06806,-0.011184 0.10077,-0.017052 0.75911,-0.26303 1.2883,-0.79218 1.2883,-0.79218 h 8.0707 c 0.18216,3.704e-4 0.34718,0.081016 0.46663,0.21239 0.1197,0.13167 0.19378,0.31377 0.19378,0.51469 v -0.38446 c 0,-0.20092 -0.07408,-0.38302 -0.19378,-0.51469 -0.11945,-0.13137 -0.28447,-0.21202 -0.46663,-0.21239 h -7.4821 z m -7.0062,2.1037 c -0.0026,0.02629 -0.0067,0.05201 -0.0067,0.07906 v 0.38446 c 0,-0.02705 0.0041,-0.05277 0.0067,-0.07906 z"
     fill="url(#linearGradient11110)"
     opacity="0.3"
     id="path18"
     style="fill:url(#linearGradient11110)" />
  <path
     id="circle18-2"
     d="M 8.4673061,5.4238476 A 3.9686999,3.9686999 0 0 0 4.4986342,9.3925195 3.9686999,3.9686999 0 0 0 8.4673061,13.361191 3.9686999,3.9686999 0 0 0 12.435978,9.3925195 3.9686999,3.9686999 0 0 0 8.4673061,5.4238476 Z M 8.4667893,6.4098145 A 1.4363377,1.4363377 0 0 1 9.9028491,7.8458743 1.4363377,1.4363377 0 0 1 8.4667893,9.2824509 1.4363377,1.4363377 0 0 1 7.0302128,7.8458743 1.4363377,1.4363377 0 0 1 8.4667893,6.4098145 Z M 6.4178591,9.8446794 h 4.0978599 c 0.241058,0 0.602536,0.2409456 0.602536,0.6025356 v 0.120403 c 0,1.093748 -1.1824725,1.808123 -2.6514657,1.808123 -1.4689931,0 -2.6514655,-0.714408 -2.6514655,-1.808123 v -0.120403 c 0,-0.36159 0.3614781,-0.6025356 0.6025353,-0.6025356 z"
     inkscape:label="icon swadow"
     style="fill:#000000;fill-opacity:0.15000001;filter:url(#filter29)" />
  <path
     id="circle18"
     d="M 8.467306,5.4238476 A 3.9686999,3.9686999 0 0 0 4.4986341,9.3925195 3.9686999,3.9686999 0 0 0 8.467306,13.361191 3.9686999,3.9686999 0 0 0 12.435978,9.3925195 3.9686999,3.9686999 0 0 0 8.467306,5.4238476 Z M 8.4667892,6.4098145 A 1.4363377,1.4363377 0 0 1 9.902849,7.8458743 1.4363377,1.4363377 0 0 1 8.4667892,9.2824509 1.4363377,1.4363377 0 0 1 7.0302127,7.8458743 1.4363377,1.4363377 0 0 1 8.4667892,6.4098145 Z M 6.417859,9.8446794 h 4.09786 c 0.241058,0 0.602536,0.2409456 0.602536,0.6025356 v 0.120403 c 0,1.093748 -1.1824726,1.808123 -2.6514658,1.808123 -1.4689931,0 -2.6514655,-0.714408 -2.6514655,-1.808123 v -0.120403 c 0,-0.36159 0.3614781,-0.6025356 0.6025353,-0.6025356 z"
     inkscape:label="icon"
     style="fill:#ffffff;fill-opacity:1" />
</svg>
