<?xml version="1.0" encoding="UTF-8" standalone="no"?>
<svg
   height="128px"
   viewBox="0 0 128 128"
   width="128px"
   version="1.1"
   id="svg10"
   sodipodi:docname="folder-torrent.svg"
   inkscape:version="1.4.2 (ebf0e940d0, 2025-05-08)"
   xmlns:inkscape="http://www.inkscape.org/namespaces/inkscape"
   xmlns:sodipodi="http://sodipodi.sourceforge.net/DTD/sodipodi-0.dtd"
   xmlns:xlink="http://www.w3.org/1999/xlink"
   xmlns="http://www.w3.org/2000/svg"
   xmlns:svg="http://www.w3.org/2000/svg">
  <defs
     id="defs10">
    <linearGradient
       id="linearGradient10"
       inkscape:collect="always">
      <stop
         style="stop-color:#8466ff;stop-opacity:0.99607843;"
         offset="0"
         id="stop10" />
      <stop
         style="stop-color:#5539b2;stop-opacity:0.99607843;"
         offset="1"
         id="stop11" />
    </linearGradient>
    <linearGradient
       inkscape:collect="always"
       xlink:href="#linearGradient20"
       id="linearGradient21"
       x1="11.999996"
       y1="42.983021"
       x2="116"
       y2="42.983021"
       gradientUnits="userSpaceOnUse"
       gradientTransform="translate(4e-6,0.017958)" />
    <linearGradient
       id="linearGradient20"
       inkscape:collect="always">
      <stop
         style="stop-color:#ffffff;stop-opacity:0.5;"
         offset="0"
         id="stop20" />
      <stop
         style="stop-color:#ffffff;stop-opacity:0;"
         offset="1"
         id="stop21" />
    </linearGradient>
    <linearGradient
       inkscape:collect="always"
       xlink:href="#linearGradient10"
       id="linearGradient11"
       x1="38"
       y1="28.95496"
       x2="90"
       y2="119.0216"
       gradientUnits="userSpaceOnUse" />
    <linearGradient
       inkscape:collect="always"
       xlink:href="#linearGradient30"
       id="linearGradient31"
       x1="5.5291653"
       y1="8.1217613"
       x2="16.065994"
       y2="11.956854"
       gradientUnits="userSpaceOnUse"
       gradientTransform="matrix(6.3138993,0,0,6.3138993,12.426096,14.601108)" />
    <linearGradient
       id="linearGradient30"
       inkscape:collect="always">
      <stop
         style="stop-color:#ffffff;stop-opacity:1;"
         offset="0"
         id="stop30" />
      <stop
         style="stop-color:#cdcdcd;stop-opacity:1;"
         offset="1"
         id="stop31" />
    </linearGradient>
  </defs>
  <sodipodi:namedview
     id="namedview10"
     pagecolor="#ffffff"
     bordercolor="#000000"
     borderopacity="0.25"
     inkscape:showpageshadow="2"
     inkscape:pageopacity="0.0"
     inkscape:pagecheckerboard="0"
     inkscape:deskcolor="#d1d1d1"
     inkscape:zoom="2.0625"
     inkscape:cx="26.181818"
     inkscape:cy="89.69697"
     inkscape:window-width="1366"
     inkscape:window-height="697"
     inkscape:window-x="0"
     inkscape:window-y="0"
     inkscape:window-maximized="1"
     inkscape:current-layer="svg10" />
  <linearGradient
     id="a"
     gradientTransform="matrix(0.45451 0 0 0.455522 -1210.292114 616.172607)"
     gradientUnits="userSpaceOnUse"
     x1="2689.251953"
     x2="2918.069824"
     y1="-1106.802979"
     y2="-1106.802979">
    <stop
       offset="0"
       stop-color="#62a0ea"
       id="stop1" />
    <stop
       offset="0.0576991"
       stop-color="#afd4ff"
       id="stop2" />
    <stop
       offset="0.122204"
       stop-color="#62a0ea"
       id="stop3" />
    <stop
       offset="0.873306"
       stop-color="#62a0ea"
       id="stop4" />
    <stop
       offset="0.955997"
       stop-color="#c0d5ea"
       id="stop5" />
    <stop
       offset="1"
       stop-color="#62a0ea"
       id="stop6" />
  </linearGradient>
  <path
     d="m 21.976562 12 c -5.527343 0 -9.976562 4.460938 -9.976562 10 v 86.03125 c 0 5.542969 4.449219 10 9.976562 10 h 84.042969 c 5.53125 0 9.980469 -4.457031 9.980469 -10 v -72.085938 c 0 -6.628906 -5.359375 -12 -11.972656 -12 h -46.027344 c -2.453125 0 -4.695312 -1.386718 -5.796875 -3.582031 l -1.503906 -2.992187 c -1.65625 -3.292969 -5.019531 -5.371094 -8.699219 -5.371094 z m 0 0"
     fill="#438de6"
     id="path6"
     style="fill:#4b2f99;fill-opacity:0.99607843"
     inkscape:label="Fondo" />
  <path
     d="m 65.976562 32 c -2.746093 0 -5.226562 1.101562 -7.027343 2.890625 c -2.273438 2.253906 -5.382813 5.109375 -8.632813 5.109375 h -28.339844 c -5.527343 0 -9.976562 4.460938 -9.976562 10 v 55.976562 c 0 5.539063 4.449219 10 9.976562 10 h 84.042969 c 5.53125 0 9.980469 -4.460937 9.980469 -10 v -63.976562 c 0 -5.539062 -4.449219 -10 -9.980469 -10 z m 0 0"
     fill="#a4caee"
     id="path8"
     style="fill:url(#linearGradient11)"
     inkscape:label="Cara" />
  <path
     id="path19-9"
     style="display:inline;fill:url(#linearGradient21);fill-opacity:1;stroke-width:4;stroke-linecap:round;enable-background:new;stop-color:#000000"
     inkscape:label="Brillo"
     d="m 65.97852,32.001953 c -2.74656,0 -5.228077,1.100887 -7.029301,2.888672 -2.273959,2.257063 -5.385202,5.111328 -8.632813,5.111328 h -28.33789 c -5.527661,0 -9.978516,4.460038 -9.978516,10 V 54 c 8.61e-4,-5.539217 4.45139,-9.998047 9.978516,-9.998047 h 28.33789 c 3.247611,0 6.358853,-2.854265 8.632813,-5.111328 1.801223,-1.787785 4.282741,-2.888672 7.029301,-2.888672 h 40.04296 c 5.52771,0 9.97852,4.460038 9.97852,10 v -4 c 0,-5.539962 -4.45082,-10 -9.97852,-10 z" />
  <path
     d="m 68.163286,55.026852 c -12.596345,0 -22.961425,10.365086 -22.961425,22.961429 0,12.596338 10.36508,22.961429 22.961425,22.961429 H 116 V 97.124352 H 68.163286 c -10.498119,0 -19.136084,-8.637946 -19.136084,-19.136071 0,-10.498121 8.637965,-19.136082 19.136084,-19.136082 z m 0,5.73919 c -9.51319,0 -17.222237,7.709051 -17.222237,17.222239 0,9.513183 7.709047,17.222244 17.222237,17.222244 H 116 V 91.382833 H 68.163286 c -7.398633,0 -13.394555,-5.995919 -13.394555,-13.394552 0,-7.39863 5.995922,-13.394557 13.394555,-13.394557 1.986195,0.0046 3.946711,0.452797 5.739185,1.311685 v -4.133433 c -1.841483,-0.658172 -3.780995,-0.998937 -5.739185,-1.005934 z m 0,5.741526 c -6.299339,0 -11.480718,5.181377 -11.480718,11.480713 0,6.299344 5.181379,11.480721 11.480718,11.480721 H 116 V 85.641314 H 68.163286 c -4.19878,0 -7.655365,-3.454242 -7.655365,-7.653033 0,-4.198779 3.456585,-7.653032 7.655365,-7.653032 2.726058,0.0023 5.253728,1.465727 6.619101,3.825351 h 4.187105 C 77.356727,69.590716 73.010914,66.514569 68.163286,66.507568 Z"
     style="clip-rule:evenodd;fill:url(#linearGradient31);fill-rule:nonzero;stroke-width:2.33395;stroke-linejoin:round;stroke-miterlimit:2"
     id="path3"
     inkscape:label="Icon" />
</svg>
