<?xml version="1.0" encoding="UTF-8" standalone="no"?>
<svg
   height="128px"
   viewBox="0 0 128 128"
   width="128px"
   version="1.1"
   id="svg9"
   sodipodi:docname="folder-manga.svg"
   inkscape:version="1.4.2 (ebf0e940d0, 2025-05-08)"
   xmlns:inkscape="http://www.inkscape.org/namespaces/inkscape"
   xmlns:sodipodi="http://sodipodi.sourceforge.net/DTD/sodipodi-0.dtd"
   xmlns:xlink="http://www.w3.org/1999/xlink"
   xmlns="http://www.w3.org/2000/svg"
   xmlns:svg="http://www.w3.org/2000/svg">
  <defs
     id="defs9">
    <linearGradient
       id="linearGradient16"
       inkscape:collect="always">
      <stop
         style="stop-color:#ffffff;stop-opacity:1;"
         offset="0"
         id="stop16" />
      <stop
         style="stop-color:#e5e5e5;stop-opacity:1;"
         offset="1"
         id="stop17" />
    </linearGradient>
    <linearGradient
       id="linearGradient15"
       inkscape:collect="always">
      <stop
         style="stop-color:#0da4f2;stop-opacity:1;"
         offset="0"
         id="stop14" />
      <stop
         style="stop-color:#0d82bf;stop-opacity:1;"
         offset="1"
         id="stop15" />
    </linearGradient>
    <linearGradient
       id="linearGradient11"
       inkscape:collect="always">
      <stop
         style="stop-color:#42b9f2;stop-opacity:1;"
         offset="0"
         id="stop11" />
      <stop
         style="stop-color:#0da6f2;stop-opacity:1;"
         offset="1"
         id="stop12" />
    </linearGradient>
    <linearGradient
       inkscape:collect="always"
       xlink:href="#linearGradient15"
       id="linearGradient10"
       x1="36.376762"
       y1="11.998122"
       x2="36.376762"
       y2="40.001877"
       gradientUnits="userSpaceOnUse" />
    <linearGradient
       inkscape:collect="always"
       xlink:href="#linearGradient11"
       id="linearGradient12"
       x1="40.843311"
       y1="45.835487"
       x2="83.848625"
       y2="120.32288"
       gradientUnits="userSpaceOnUse" />
    <linearGradient
       inkscape:collect="always"
       xlink:href="#linearGradient20"
       id="linearGradient21"
       x1="11.999996"
       y1="42.983021"
       x2="116"
       y2="42.983021"
       gradientUnits="userSpaceOnUse"
       gradientTransform="translate(4e-6,0.016005)" />
    <linearGradient
       id="linearGradient20"
       inkscape:collect="always">
      <stop
         style="stop-color:#ffffff;stop-opacity:0.5;"
         offset="0"
         id="stop20" />
      <stop
         style="stop-color:#ffffff;stop-opacity:0;"
         offset="1"
         id="stop21" />
    </linearGradient>
    <linearGradient
       inkscape:collect="always"
       xlink:href="#linearGradient16"
       id="linearGradient17"
       x1="56.951389"
       y1="62.051647"
       x2="72.848099"
       y2="89.585556"
       gradientUnits="userSpaceOnUse" />
  </defs>
  <sodipodi:namedview
     id="namedview9"
     pagecolor="#ffffff"
     bordercolor="#000000"
     borderopacity="0.25"
     inkscape:showpageshadow="2"
     inkscape:pageopacity="0.0"
     inkscape:pagecheckerboard="0"
     inkscape:deskcolor="#d1d1d1"
     inkscape:zoom="2.0625"
     inkscape:cx="-0.24242424"
     inkscape:cy="78.060606"
     inkscape:window-width="1366"
     inkscape:window-height="697"
     inkscape:window-x="0"
     inkscape:window-y="0"
     inkscape:window-maximized="1"
     inkscape:current-layer="svg9" />
  <linearGradient
     id="a"
     gradientTransform="matrix(0.45451 0 0 0.455522 -1210.292114 616.172607)"
     gradientUnits="userSpaceOnUse"
     x1="2689.251953"
     x2="2918.069824"
     y1="-1106.802979"
     y2="-1106.802979">
    <stop
       offset="0"
       stop-color="#62a0ea"
       id="stop1" />
    <stop
       offset="0.0576991"
       stop-color="#afd4ff"
       id="stop2" />
    <stop
       offset="0.122204"
       stop-color="#62a0ea"
       id="stop3" />
    <stop
       offset="0.873306"
       stop-color="#62a0ea"
       id="stop4" />
    <stop
       offset="0.955997"
       stop-color="#c0d5ea"
       id="stop5" />
    <stop
       offset="1"
       stop-color="#62a0ea"
       id="stop6" />
  </linearGradient>
  <path
     d="m 21.976562 12 c -5.527343 0 -9.976562 4.460938 -9.976562 10 v 86.03125 c 0 5.542969 4.449219 10 9.976562 10 h 84.042969 c 5.53125 0 9.980469 -4.457031 9.980469 -10 v -72.085938 c 0 -6.628906 -5.359375 -12 -11.972656 -12 h -46.027344 c -2.453125 0 -4.695312 -1.386718 -5.796875 -3.582031 l -1.503906 -2.992187 c -1.65625 -3.292969 -5.019531 -5.371094 -8.699219 -5.371094 z m 0 0"
     fill="#438de6"
     id="path6"
     style="fill:url(#linearGradient10)"
     inkscape:label="Fondo" />
  <path
     d="m 65.976562 32 c -2.746093 0 -5.226562 1.101562 -7.027343 2.890625 c -2.273438 2.253906 -5.382813 5.109375 -8.632813 5.109375 h -28.339844 c -5.527343 0 -9.976562 4.460938 -9.976562 10 v 55.976562 c 0 5.539063 4.449219 10 9.976562 10 h 84.042969 c 5.53125 0 9.980469 -4.460937 9.980469 -10 v -63.976562 c 0 -5.539062 -4.449219 -10 -9.980469 -10 z m 0 0"
     fill="#a4caee"
     id="path8"
     style="fill:url(#linearGradient12)"
     inkscape:label="Cara" />
  <path
     id="path19-9"
     style="display:inline;fill:url(#linearGradient21);fill-opacity:1;stroke-width:4;stroke-linecap:round;enable-background:new;stop-color:#000000"
     inkscape:label="Brillo"
     d="m 65.97852,32 c -2.74656,0 -5.228077,1.100887 -7.029301,2.888672 C 56.67526,37.145735 53.564017,40 50.316406,40 H 21.978516 C 16.450855,40 12,44.460038 12,50 v 3.998047 C 12.000861,48.45883 16.45139,44 21.978516,44 h 28.33789 c 3.247611,0 6.358853,-2.854265 8.632813,-5.111328 C 60.750442,37.100887 63.23196,36 65.97852,36 h 40.04296 C 111.54919,36 116,40.460038 116,46 v -4 c 0,-5.539962 -4.45082,-10 -9.97852,-10 z" />
  <path
     style="fill:url(#linearGradient17);fill-opacity:1;stroke-width:0.268994"
     d="m 62.666061,91.893884 c -0.133397,-0.02297 -0.504482,-0.08722 -0.824635,-0.142357 -0.748614,-0.128938 -2.689147,-0.684739 -2.62269,-0.751199 0.02793,-0.02781 0.225871,0.0068 0.439836,0.07759 0.213965,0.07062 0.413467,0.103953 0.443338,0.07409 0.02987,-0.02983 -0.166803,-0.127767 -0.437053,-0.217527 L 59.173493,90.771286 V 88.741747 86.71221 h -0.306784 -0.306783 l 0.0641,-3.565328 c 0.03526,-1.960937 0.06417,-4.100131 0.06425,-4.753778 l 1.43e-4,-1.188441 h 6.242178 6.242179 l 0.06356,1.819045 c 0.03506,1.000475 0.06368,3.139673 0.06384,4.753773 l 2.69e-4,2.934729 h -0.303981 -0.303983 l 0.03707,2.061587 0.03708,2.061586 -0.970157,0.321556 c -1.830137,0.606586 -2.509542,0.712306 -4.802279,0.747271 -1.147213,0.01733 -2.194983,0.0129 -2.32838,-0.01006 z m -8.995004,-4.715527 c -1.245787,-1.256529 -1.87151,-2.073816 -2.622328,-3.425143 -1.518866,-2.733672 -1.942328,-4.269287 -2.033238,-7.3732 -0.07863,-2.684684 0.202558,-4.273773 1.199485,-6.778658 0.834354,-2.096406 1.632063,-3.330125 3.167596,-4.898942 2.294796,-2.344536 4.744217,-3.712825 8.29943,-4.6362 l 1.323614,-0.343775 1.891809,0.05362 c 2.727045,0.0773 4.19018,0.356803 6.229574,1.190048 1.398413,0.571356 1.499578,0.623872 2.57211,1.335197 0.492192,0.326432 0.896019,0.660943 0.897397,0.743356 0.0014,0.08241 0.221396,0.316783 0.488958,0.520822 1.157339,0.882598 2.827767,2.887607 3.744171,4.49411 0.519064,0.909949 1.158085,2.530515 1.234241,3.130075 0.04793,0.377317 0.01813,0.331229 -0.219785,-0.339556 -0.368632,-1.039411 -0.620846,-1.605499 -1.102243,-2.473903 -0.221841,-0.40019 -0.391526,-0.78219 -0.377016,-0.848887 0.01451,-0.0667 -0.03185,-0.121271 -0.102529,-0.121271 -0.07089,0 -0.207654,-0.133382 -0.303942,-0.2964 -0.75001,-1.269601 -2.87799,-3.288008 -4.572046,-4.336592 -0.69265,-0.428735 -2.277103,-1.193433 -2.454351,-1.184535 -0.03748,0.0019 0.412913,0.252908 1.000774,0.557841 0.985786,0.511345 2.709412,1.601457 2.823171,1.785525 0.08654,0.140029 -0.12942,0.08313 -0.253924,-0.0669 -0.06643,-0.08004 -0.150701,-0.145522 -0.187298,-0.145522 -0.03669,0 0.460616,0.534799 1.10492,1.188443 1.027027,1.041913 2.186896,2.507254 2.186896,2.76285 0,0.136179 -1.479353,0.590889 -2.764949,0.849866 -2.981946,0.600694 -5.527474,0.763735 -10.965334,0.702325 -4.183598,-0.04724 -5.680524,-0.145591 -7.855732,-0.516116 -1.342351,-0.228657 -2.704307,-0.586724 -3.600735,-0.946658 -0.944039,-0.379052 -0.936965,-0.386941 -0.608404,0.678586 0.231365,0.750315 0.56054,1.440314 0.976821,2.047551 0.276966,0.404014 0.293826,0.412317 0.837132,0.412317 h 0.554473 l 0.279984,0.824634 0.279985,0.824635 h 0.713133 0.713134 v 0.297989 c 0,0.267965 0.02688,0.294849 0.266793,0.266793 0.146735,-0.01717 0.264632,0.01246 0.261988,0.06582 -0.0026,0.05336 -0.04093,0.58705 -0.08509,1.185982 l -0.08028,1.088966 -1.467169,0.02672 -1.467167,0.02672 -0.02801,0.848888 -0.02801,0.848886 h 1.404407 1.404407 l -0.04423,0.315308 c -0.05797,0.413013 -0.697566,7.247184 -0.780867,8.343351 l -0.0645,0.848885 H 55.13304 c -0.321722,0 -0.325369,0.0048 -0.336723,0.460826 -0.0063,0.253439 -0.03907,0.583282 -0.07276,0.732955 -0.0604,0.268191 -0.07565,0.257633 -1.052488,-0.727619 z m 21.484173,0.438679 -0.05208,-0.462202 0.748348,-0.790579 c 1.42445,-1.504835 2.482915,-3.120103 3.16253,-4.826186 0.194836,-0.489148 0.397571,-0.93302 0.450471,-0.986375 0.05293,-0.05336 0.0041,0.137843 -0.108341,0.424926 -0.19427,0.495748 -0.199067,0.736066 -0.01087,0.53876 0.04756,-0.04981 0.223897,-0.483461 0.39193,-0.963686 0.168033,-0.48023 0.346705,-0.91462 0.397048,-0.965312 0.05035,-0.0507 0.09153,-0.169363 0.09153,-0.263757 0,-0.110235 0.05042,-0.152233 0.141029,-0.11745 0.108019,0.04143 0.157191,-0.06722 0.20995,-0.463869 0.03789,-0.284878 0.08779,-0.461753 0.110798,-0.393017 0.12918,0.385439 -0.459422,2.629737 -1.08639,4.142149 -0.416721,1.00525 -1.134599,2.315027 -1.337608,2.440493 -0.06376,0.03949 -0.01934,-0.09202 0.09863,-0.292052 0.309141,-0.523949 0.09968,-0.346182 -0.299388,0.254124 -0.5747,0.864444 -1.150659,1.543305 -2.020479,2.381474 l -0.835181,0.804787 z m 3.7016,-5.184061 c 0.0538,-0.154289 0.07875,-0.280525 0.05553,-0.280525 -0.04095,0 -0.738824,1.30831 -0.802127,1.503742 -0.07488,0.23115 0.65839,-0.970249 0.746579,-1.223221 z m -3.433192,4.085189 c 0.208419,-0.213456 0.400755,-0.388059 0.427442,-0.388059 0.02661,0 -0.122005,0.174643 -0.330423,0.388059 -0.208419,0.213417 -0.400755,0.388059 -0.42744,0.388059 -0.02661,0 0.122003,-0.174642 0.330421,-0.388059 z m -0.96224,-0.121278 c -0.027,-0.173393 -0.140544,-1.319413 -0.251988,-2.546665 -0.111444,-1.227247 -0.264041,-2.864391 -0.339089,-3.638091 -0.07508,-0.7737 -0.165734,-1.766899 -0.201485,-2.207109 l -0.065,-0.800378 h 1.370749 1.370748 v -0.873137 -0.873143 h -1.444441 -1.444437 l -0.05458,-0.3153 c -0.02983,-0.173418 -0.08376,-0.714076 -0.119465,-1.201468 l -0.06489,-0.886166 0.254166,0.04859 c 0.230264,0.04401 0.254165,0.02011 0.254165,-0.25377 v -0.302358 h 0.714737 0.714742 l 0.311237,-0.824635 0.311237,-0.824633 h 0.525335 c 0.51475,0 0.532118,-0.0093 0.862231,-0.460825 0.185283,-0.253452 0.47821,-0.801026 0.650921,-1.216825 l 0.31402,-0.756001 0.14389,0.270921 c 0.296001,0.55741 0.979514,2.315457 0.97284,2.502284 -0.0039,0.106717 -0.09742,-0.08086 -0.208016,-0.416836 -0.110598,-0.335976 -0.236995,-0.57495 -0.280887,-0.531053 -0.04389,0.0439 0.01088,0.362446 0.121642,0.707883 0.125631,0.391727 0.212287,0.956634 0.230262,1.501211 0.01571,0.480229 0.08247,1.266056 0.148002,1.746284 0.162511,1.190243 0.107616,2.632964 -0.165776,4.356311 -0.04333,0.273148 -0.02902,0.359403 0.05171,0.309585 0.0615,-0.03789 0.116845,-0.208418 0.123053,-0.378669 0.0064,-0.176012 0.03103,-0.233568 0.05683,-0.13349 0.06259,0.241832 -0.219059,1.462437 -0.619709,2.685577 -0.410945,1.25455 -1.021578,2.428703 -1.835619,3.529593 -0.341145,0.461351 -0.620254,0.855906 -0.620254,0.876786 0,0.02095 -0.272867,0.303297 -0.606349,0.627564 -0.730666,0.710482 -1.099194,0.797251 -1.180525,0.277945 z m 4.910291,-8.561627 c 0.002,-0.160092 0.02378,-0.213819 0.04833,-0.119424 0.02458,0.0944 0.02297,0.225346 -0.0037,0.291045 -0.02661,0.0657 -0.04672,-0.01169 -0.04473,-0.171621 z m 1.363774,-0.09702 c 0.001,-0.213456 0.02095,-0.289309 0.04413,-0.168636 0.02337,0.120674 0.02217,0.295316 -0.0019,0.388059 -0.02419,0.09274 -0.04329,-0.0061 -0.0422,-0.219423 z M 79.457451,77.24507 c 0.0045,-0.113019 0.02781,-0.136006 0.0586,-0.0586 0.02821,0.07005 0.02459,0.153725 -0.0076,0.185929 -0.03224,0.03224 -0.05513,-0.02499 -0.05094,-0.127325 z m -20.74777,-2.971782 0.02725,-1.185078 0.291048,-0.0035 c 0.244379,-0.0028 0.295969,-0.04615 0.321745,-0.270158 l 0.03072,-0.266793 h 2.079375 2.079394 v 1.455235 1.455236 h -2.42838 -2.428381 z m 7.691487,-0.27016 v -1.455237 h 2.055142 2.05514 l 0.03072,0.266794 c 0.02559,0.222307 0.08326,0.271862 0.346,0.297194 l 0.315309,0.03039 v 1.158054 1.158042 H 68.802312 66.401171 Z M 77.01202,66.169105 c -0.120673,-0.153874 -0.117246,-0.157304 0.03669,-0.03665 0.161584,0.126738 0.213014,0.206406 0.133128,0.206406 -0.02016,0 -0.09653,-0.07639 -0.169765,-0.169777 z m -1.639694,-1.539432 c -0.345295,-0.353119 -0.58414,-0.625976 -0.530784,-0.606349 0.105679,0.03889 1.268718,1.248383 1.200408,1.248383 -0.02297,0 -0.324337,-0.288916 -0.669624,-0.642034 z"
     id="path1" />
</svg>
