<?xml version="1.0" encoding="UTF-8" standalone="no"?>
<svg
   height="128px"
   viewBox="0 0 128 128"
   width="128px"
   version="1.1"
   id="svg9"
   sodipodi:docname="folder-multimedia.svg"
   inkscape:version="1.4.2 (ebf0e940d0, 2025-05-08)"
   xmlns:inkscape="http://www.inkscape.org/namespaces/inkscape"
   xmlns:sodipodi="http://sodipodi.sourceforge.net/DTD/sodipodi-0.dtd"
   xmlns:xlink="http://www.w3.org/1999/xlink"
   xmlns="http://www.w3.org/2000/svg"
   xmlns:svg="http://www.w3.org/2000/svg">
  <defs
     id="defs9">
    <linearGradient
       id="linearGradient13"
       inkscape:collect="always">
      <stop
         style="stop-color:#ffaa00;stop-opacity:1;"
         offset="0"
         id="stop12" />
      <stop
         style="stop-color:#f27b00;stop-opacity:1;"
         offset="1"
         id="stop13" />
    </linearGradient>
    <linearGradient
       id="linearGradient11"
       inkscape:collect="always">
      <stop
         style="stop-color:#e67500;stop-opacity:1;"
         offset="0"
         id="stop8" />
      <stop
         style="stop-color:#d96e00;stop-opacity:1;"
         offset="1"
         id="stop11" />
    </linearGradient>
    <linearGradient
       inkscape:collect="always"
       xlink:href="#linearGradient11"
       id="linearGradient10"
       x1="51.218811"
       y1="11.970947"
       x2="51.218807"
       y2="40.029053"
       gradientUnits="userSpaceOnUse" />
    <linearGradient
       inkscape:collect="always"
       xlink:href="#linearGradient13"
       id="linearGradient12"
       x1="48.797649"
       y1="60.066856"
       x2="79.242561"
       y2="108.20167"
       gradientUnits="userSpaceOnUse" />
    <linearGradient
       inkscape:collect="always"
       xlink:href="#linearGradient79"
       id="linearGradient80"
       x1="6.838161"
       y1="6.4300599"
       x2="10.095169"
       y2="12.071362"
       gradientUnits="userSpaceOnUse"
       gradientTransform="matrix(1.1889428,0,0,1.1889428,-1.5345757,-0.86967134)" />
    <linearGradient
       id="linearGradient79"
       inkscape:collect="always">
      <stop
         style="stop-color:#ffffff;stop-opacity:1;"
         offset="0"
         id="stop79" />
      <stop
         style="stop-color:#e5e5e5;stop-opacity:1;"
         offset="1"
         id="stop80" />
    </linearGradient>
    <linearGradient
       inkscape:collect="always"
       xlink:href="#linearGradient20"
       id="linearGradient21"
       x1="11.999996"
       y1="42.983021"
       x2="116"
       y2="42.983021"
       gradientUnits="userSpaceOnUse"
       gradientTransform="translate(-0.00195,0.016005)" />
    <linearGradient
       id="linearGradient20"
       inkscape:collect="always">
      <stop
         style="stop-color:#ffffff;stop-opacity:0.5;"
         offset="0"
         id="stop20" />
      <stop
         style="stop-color:#ffffff;stop-opacity:0;"
         offset="1"
         id="stop21" />
    </linearGradient>
  </defs>
  <sodipodi:namedview
     id="namedview9"
     pagecolor="#ffffff"
     bordercolor="#000000"
     borderopacity="0.25"
     inkscape:showpageshadow="2"
     inkscape:pageopacity="0.0"
     inkscape:pagecheckerboard="0"
     inkscape:deskcolor="#d1d1d1"
     inkscape:zoom="2.0625"
     inkscape:cx="7.2727273"
     inkscape:cy="63.030303"
     inkscape:window-width="1366"
     inkscape:window-height="697"
     inkscape:window-x="0"
     inkscape:window-y="0"
     inkscape:window-maximized="1"
     inkscape:current-layer="svg9" />
  <linearGradient
     id="a"
     gradientTransform="matrix(0.45451 0 0 0.455522 -1210.292114 616.172607)"
     gradientUnits="userSpaceOnUse"
     x1="2689.251953"
     x2="2918.069824"
     y1="-1106.802979"
     y2="-1106.802979">
    <stop
       offset="0"
       stop-color="#62a0ea"
       id="stop1" />
    <stop
       offset="0.0576991"
       stop-color="#afd4ff"
       id="stop2" />
    <stop
       offset="0.122204"
       stop-color="#62a0ea"
       id="stop3" />
    <stop
       offset="0.873306"
       stop-color="#62a0ea"
       id="stop4" />
    <stop
       offset="0.955997"
       stop-color="#c0d5ea"
       id="stop5" />
    <stop
       offset="1"
       stop-color="#62a0ea"
       id="stop6" />
  </linearGradient>
  <path
     d="m 21.976562 12 c -5.527343 0 -9.976562 4.460938 -9.976562 10 v 86.03125 c 0 5.542969 4.449219 10 9.976562 10 h 84.042969 c 5.53125 0 9.980469 -4.457031 9.980469 -10 v -72.085938 c 0 -6.628906 -5.359375 -12 -11.972656 -12 h -46.027344 c -2.453125 0 -4.695312 -1.386718 -5.796875 -3.582031 l -1.503906 -2.992187 c -1.65625 -3.292969 -5.019531 -5.371094 -8.699219 -5.371094 z m 0 0"
     fill="#438de6"
     id="path6"
     style="fill:url(#linearGradient10)"
     inkscape:label="fondo" />
  <path
     d="m 65.976562 32 c -2.746093 0 -5.226562 1.101562 -7.027343 2.890625 c -2.273438 2.253906 -5.382813 5.109375 -8.632813 5.109375 h -28.339844 c -5.527343 0 -9.976562 4.460938 -9.976562 10 v 55.976562 c 0 5.539063 4.449219 10 9.976562 10 h 84.042969 c 5.53125 0 9.980469 -4.460937 9.980469 -10 v -63.976562 c 0 -5.539062 -4.449219 -10 -9.980469 -10 z m 0 0"
     fill="#a4caee"
     id="path8"
     style="fill:url(#linearGradient12)"
     inkscape:label="cara" />
  <path
     id="path19-9"
     style="display:inline;fill:url(#linearGradient21);fill-opacity:1;stroke-width:4;stroke-linecap:round;enable-background:new;stop-color:#000000"
     inkscape:label="brillo"
     d="m 65.976566,32 c -2.74656,0 -5.228077,1.100887 -7.029301,2.888672 C 56.673306,37.145735 53.562063,40 50.314452,40 h -28.33789 c -5.527661,0 -9.978516,4.460038 -9.978516,10 v 3.998047 C 11.998907,48.45883 16.449436,44 21.976562,44 h 28.33789 c 3.247611,0 6.358853,-2.854265 8.632813,-5.111328 C 60.748488,37.100887 63.230006,36 65.976566,36 h 40.042964 c 5.52771,0 9.97852,4.460038 9.97852,10 v -4 c 0,-5.539962 -4.45082,-10 -9.97852,-10 z" />
  <path
     d="M 7.241006,10.313294 V 7.3628969 c 0,-0.4056797 0.3319196,-0.737599 0.7375993,-0.737599 h 3.3191957 c 0.40568,0 0.737598,0.3319193 0.737598,0.737599 v 2.2127983 h -1.26498 L 10.298355,8.9339834 c -0.02212,-0.033189 -0.06638,-0.033189 -0.08851,0 L 9.4759296,9.9444946 c -0.022136,0.022126 -0.066379,0.025812 -0.088513,0 L 8.8600362,9.2990948 c -0.022129,-0.025812 -0.062695,-0.025812 -0.084824,0 l -0.778167,0.9810072 c -0.029504,0.0332 -0.0037,0.08852 0.040568,0.08852 h 2.3381898 v 0.68228 H 7.9786053 c -0.4093676,0 -0.7375993,-0.328233 -0.7375993,-0.7376 M 6.1346071,13.632494 V 13.26369 H 5.3970079 v 0.368799 H 4.6594085 V 6.2564984 H 5.3970079 V 6.6252979 H 6.1346071 V 6.2564984 H 7.0160383 C 6.7025585,6.5294105 6.5034068,6.9203383 6.5034068,7.3628969 v 2.9503971 c 0,0.815048 0.6601512,1.475199 1.4751985,1.475199 h 1.7333575 c -0.3798631,0.306104 -0.6269589,0.767102 -0.6269589,1.290798 0,0.195464 0.040568,0.379863 0.1032645,0.553198 H 6.1346071 M 5.3970079,8.1004971 H 6.1346071 V 7.3628969 H 5.3970079 v 0.7376002 m 0,1.4751981 H 6.1346071 V 8.838096 H 5.3970079 v 0.7375992 m 0,1.4751988 h 0.7375992 v -0.7376 H 5.3970079 v 0.7376 m 0.7375992,1.475197 V 11.788493 H 5.3970079 v 0.737598 h 0.7375992 m 6.2695939,-2.212797 v 0.7376 H 11.6666 v 2.028397 c 0,0.508943 -0.413054,0.922 -0.921998,0.922 -0.508944,0 -0.9219985,-0.413057 -0.9219985,-0.922 0,-0.508944 0.4130545,-0.921999 0.9219985,-0.921999 0.132771,0 0.254472,0.02581 0.3688,0.07745 v -1.921447 z"
     id="path81"
     style="fill:url(#linearGradient80);fill-opacity:1;stroke-width:0.368799"
     transform="matrix(4.1145439,0,0,4.1145439,29.62631,34.324218)"
     inkscape:label="icono" />
</svg>
