<?xml version="1.0" encoding="UTF-8" standalone="no"?>
<svg
   height="128px"
   viewBox="0 0 128 128"
   width="128px"
   version="1.1"
   id="svg23"
   sodipodi:docname="folder-download.svg"
   inkscape:version="1.4.2 (ebf0e940d0, 2025-05-08)"
   xmlns:inkscape="http://www.inkscape.org/namespaces/inkscape"
   xmlns:sodipodi="http://sodipodi.sourceforge.net/DTD/sodipodi-0.dtd"
   xmlns:xlink="http://www.w3.org/1999/xlink"
   xmlns="http://www.w3.org/2000/svg"
   xmlns:svg="http://www.w3.org/2000/svg">
  <defs
     id="defs27">
    <linearGradient
       id="linearGradient4"
       inkscape:collect="always">
      <stop
         style="stop-color:#00b277;stop-opacity:1;"
         offset="0"
         id="stop1" />
      <stop
         style="stop-color:#008055;stop-opacity:1;"
         offset="1"
         id="stop3" />
    </linearGradient>
    <linearGradient
       id="linearGradient2"
       inkscape:collect="always">
      <stop
         style="stop-color:#ffffff;stop-opacity:1;"
         offset="0"
         id="stop5" />
      <stop
         style="stop-color:#e5e5e5;stop-opacity:1;"
         offset="1"
         id="stop11" />
    </linearGradient>
    <linearGradient
       id="linearGradient7"
       inkscape:collect="always">
      <stop
         style="stop-color:#00ffaa;stop-opacity:1;"
         offset="0"
         id="stop7" />
      <stop
         style="stop-color:#00b277;stop-opacity:1;"
         offset="1"
         id="stop9" />
    </linearGradient>
    <linearGradient
       inkscape:collect="always"
       xlink:href="#linearGradient4"
       id="linearGradient3"
       x1="64"
       y1="13.015625"
       x2="64"
       y2="117.01562"
       gradientUnits="userSpaceOnUse" />
    <linearGradient
       inkscape:collect="always"
       xlink:href="#linearGradient7"
       id="linearGradient9"
       x1="38"
       y1="28.95496"
       x2="90"
       y2="119.0216"
       gradientUnits="userSpaceOnUse" />
    <linearGradient
       inkscape:collect="always"
       xlink:href="#linearGradient20"
       id="linearGradient21"
       x1="11.999996"
       y1="42.983021"
       x2="116"
       y2="42.983021"
       gradientUnits="userSpaceOnUse"
       gradientTransform="translate(-0.00195,0.016005)" />
    <linearGradient
       id="linearGradient20"
       inkscape:collect="always">
      <stop
         style="stop-color:#ffffff;stop-opacity:0.5;"
         offset="0"
         id="stop20" />
      <stop
         style="stop-color:#ffffff;stop-opacity:0;"
         offset="1"
         id="stop21" />
    </linearGradient>
    <linearGradient
       inkscape:collect="always"
       xlink:href="#linearGradient2"
       id="linearGradient11"
       x1="58"
       y1="65.607697"
       x2="70"
       y2="86.392303"
       gradientUnits="userSpaceOnUse" />
  </defs>
  <sodipodi:namedview
     id="namedview25"
     pagecolor="#ffffff"
     bordercolor="#000000"
     borderopacity="0.25"
     inkscape:showpageshadow="2"
     inkscape:pageopacity="0.0"
     inkscape:pagecheckerboard="0"
     inkscape:deskcolor="#d1d1d1"
     showgrid="false"
     inkscape:zoom="2.7068932"
     inkscape:cx="39.343998"
     inkscape:cy="66.12747"
     inkscape:window-width="1366"
     inkscape:window-height="697"
     inkscape:window-x="0"
     inkscape:window-y="0"
     inkscape:window-maximized="1"
     inkscape:current-layer="svg23" />
  <linearGradient
     id="a"
     gradientTransform="matrix(0.45451 0 0 0.455522 -1210.292114 616.172607)"
     gradientUnits="userSpaceOnUse"
     x1="2689.251953"
     x2="2918.069824"
     y1="-1106.802979"
     y2="-1106.802979">
    <stop
       offset="0"
       stop-color="#62a0ea"
       id="stop2"
       style="stop-color:#cb931a;stop-opacity:1;" />
    <stop
       offset="0.0576991"
       stop-color="#afd4ff"
       id="stop4"
       style="stop-color:#f3d796;stop-opacity:1;" />
    <stop
       offset="0.122204"
       stop-color="#62a0ea"
       id="stop6"
       style="stop-color:#cb931a;stop-opacity:1;" />
    <stop
       offset="0.87330598"
       stop-color="#62a0ea"
       id="stop8"
       style="stop-color:#cb931a;stop-opacity:1;" />
    <stop
       offset="0.95599699"
       stop-color="#c0d5ea"
       id="stop10"
       style="stop-color:#f3d796;stop-opacity:1;" />
    <stop
       offset="1"
       stop-color="#62a0ea"
       id="stop12"
       style="stop-color:#cb931a;stop-opacity:1;" />
  </linearGradient>
  <path
     d="m 21.976562 12 c -5.527343 0 -9.976562 4.460938 -9.976562 10 v 86.03125 c 0 5.542969 4.449219 10 9.976562 10 h 84.042969 c 5.53125 0 9.980469 -4.457031 9.980469 -10 v -72.085938 c 0 -6.628906 -5.359375 -12 -11.972656 -12 h -46.027344 c -2.453125 0 -4.695312 -1.386718 -5.796875 -3.582031 l -1.503906 -2.992187 c -1.65625 -3.292969 -5.019531 -5.371094 -8.699219 -5.371094 z m 0 0"
     fill="#438de6"
     id="path15"
     style="fill:url(#linearGradient3);fill-opacity:0.99607843"
     inkscape:label="fondo" />
  <path
     d="m 65.976562 32 c -2.746093 0 -5.226562 1.101562 -7.027343 2.890625 c -2.273438 2.253906 -5.382813 5.109375 -8.632813 5.109375 h -28.339844 c -5.527343 0 -9.976562 4.460938 -9.976562 10 v 55.976562 c 0 5.539063 4.449219 10 9.976562 10 h 84.042969 c 5.53125 0 9.980469 -4.460937 9.980469 -10 v -63.976562 c 0 -5.539062 -4.449219 -10 -9.980469 -10 z m 0 0"
     fill="#a4caee"
     id="path19"
     style="fill:url(#linearGradient9);fill-opacity:1"
     inkscape:label="cara" />
  <path
     id="path19-9"
     style="display:inline;fill:url(#linearGradient21);fill-opacity:1;stroke-width:4;stroke-linecap:round;enable-background:new;stop-color:#000000"
     inkscape:label="brillo"
     d="m 65.976566,32 c -2.74656,0 -5.228077,1.100887 -7.029301,2.888672 C 56.673306,37.145735 53.562063,40 50.314452,40 h -28.33789 c -5.527661,0 -9.978516,4.460038 -9.978516,10 v 3.998047 C 11.998907,48.45883 16.449436,44 21.976562,44 h 28.33789 c 3.247611,0 6.358853,-2.854265 8.632813,-5.111328 C 60.748488,37.100887 63.230006,36 65.976566,36 h 40.042964 c 5.52771,0 9.97852,4.460038 9.97852,10 v -4 c 0,-5.539962 -4.45082,-10 -9.97852,-10 z" />
  <path
     d="m 64 60 c -1.101562 0 -2 0.898438 -2 2 v 17.171875 l -4.585938 -4.585937 c -0.375 -0.375 -0.882812 -0.585938 -1.414062 -0.585938 s -1.039062 0.210938 -1.414062 0.585938 c -0.78125 0.78125 -0.78125 2.046874 0 2.828124 l 8 8 c 0.78125 0.78125 2.046874 0.78125 2.828124 0 l 8 -8 c 0.78125 -0.78125 0.78125 -2.046874 0 -2.828124 s -2.046874 -0.78125 -2.828124 0 l -4.585938 4.585937 v -17.171875 c 0 -1.101562 -0.898438 -2 -2 -2 z m -12 28 v 4 h 24 v -4 z m 0 0"
     fill="#438de6"
     id="path21"
     style="fill:url(#linearGradient11);fill-opacity:1"
     inkscape:label="icono" />
</svg>
