<?xml version="1.0" encoding="UTF-8" standalone="no"?>
<svg
   height="128"
   viewBox="0 0 128 128"
   width="128"
   version="1.1"
   id="svg5248"
   sodipodi:docname="folder-github.svg"
   inkscape:version="1.4.2 (ebf0e940d0, 2025-05-08)"
   xmlns:inkscape="http://www.inkscape.org/namespaces/inkscape"
   xmlns:sodipodi="http://sodipodi.sourceforge.net/DTD/sodipodi-0.dtd"
   xmlns:xlink="http://www.w3.org/1999/xlink"
   xmlns="http://www.w3.org/2000/svg"
   xmlns:svg="http://www.w3.org/2000/svg">
  <sodipodi:namedview
     id="namedview1"
     pagecolor="#ffffff"
     bordercolor="#000000"
     borderopacity="0.25"
     inkscape:showpageshadow="2"
     inkscape:pageopacity="0.0"
     inkscape:pagecheckerboard="0"
     inkscape:deskcolor="#d1d1d1"
     inkscape:zoom="2.9168155"
     inkscape:cx="38.569461"
     inkscape:cy="50.054589"
     inkscape:window-width="1366"
     inkscape:window-height="697"
     inkscape:window-x="0"
     inkscape:window-y="0"
     inkscape:window-maximized="1"
     inkscape:current-layer="svg5248" />
  <defs
     id="defs5252">
    <linearGradient
       id="linearGradient3"
       inkscape:collect="always">
      <stop
         style="stop-color:#ffffff;stop-opacity:1;"
         offset="0"
         id="stop3" />
      <stop
         style="stop-color:#e6e6e6;stop-opacity:1;"
         offset="1"
         id="stop4" />
    </linearGradient>
    <linearGradient
       id="linearGradient1"
       inkscape:collect="always">
      <stop
         style="stop-color:#010233;stop-opacity:1;"
         offset="0"
         id="stop1" />
      <stop
         style="stop-color:#01021a;stop-opacity:1;"
         offset="1"
         id="stop2" />
    </linearGradient>
    <linearGradient
       xlink:href="#linearGradient2023"
       id="linearGradient2025"
       x1="2689.252"
       y1="-1106.803"
       x2="2918.0698"
       y2="-1106.803"
       gradientUnits="userSpaceOnUse"
       gradientTransform="matrix(0.45451006,0,0,0.45552152,-1210.2921,616.15659)" />
    <linearGradient
       id="linearGradient2023">
      <stop
         style="stop-color:#62a0ea;stop-opacity:1;"
         offset="0"
         id="stop2019" />
      <stop
         style="stop-color:#afd4ff;stop-opacity:1;"
         offset="0.05769911"
         id="stop2795" />
      <stop
         style="stop-color:#62a0ea;stop-opacity:1;"
         offset="0.12220427"
         id="stop2797" />
      <stop
         style="stop-color:#62a0ea;stop-opacity:1;"
         offset="0.87330586"
         id="stop2793" />
      <stop
         style="stop-color:#c0d5ea;stop-opacity:1;"
         offset="0.95599729"
         id="stop2791" />
      <stop
         style="stop-color:#62a0ea;stop-opacity:1;"
         offset="1"
         id="stop2021" />
    </linearGradient>
    <linearGradient
       inkscape:collect="always"
       xlink:href="#linearGradient20"
       id="linearGradient21"
       x1="11.999996"
       y1="42.983021"
       x2="116"
       y2="42.983021"
       gradientUnits="userSpaceOnUse"
       gradientTransform="translate(4.803e-4,5.14e-4)" />
    <linearGradient
       id="linearGradient20"
       inkscape:collect="always">
      <stop
         style="stop-color:#ffffff;stop-opacity:0.5;"
         offset="0"
         id="stop20" />
      <stop
         style="stop-color:#ffffff;stop-opacity:0;"
         offset="1"
         id="stop21" />
    </linearGradient>
    <linearGradient
       inkscape:collect="always"
       xlink:href="#linearGradient1"
       id="linearGradient2"
       x1="37.999985"
       y1="28.939425"
       x2="89.999977"
       y2="119.00606"
       gradientUnits="userSpaceOnUse" />
    <linearGradient
       inkscape:collect="always"
       xlink:href="#linearGradient3"
       id="linearGradient4"
       x1="55.999981"
       y1="61.860939"
       x2="71.999985"
       y2="89.573753"
       gradientUnits="userSpaceOnUse" />
  </defs>
  <linearGradient
     id="a"
     gradientUnits="userSpaceOnUse"
     x1="11.999989"
     x2="115.99999"
     y1="64"
     y2="64">
    <stop
       offset="0"
       stop-color="#3d3846"
       id="stop5214" />
    <stop
       offset="0.05"
       stop-color="#77767b"
       id="stop5216" />
    <stop
       offset="0.1"
       stop-color="#5e5c64"
       id="stop5218" />
    <stop
       offset="0.899999"
       stop-color="#504e56"
       id="stop5220" />
    <stop
       offset="0.95"
       stop-color="#77767b"
       id="stop5222" />
    <stop
       offset="1"
       stop-color="#3d3846"
       id="stop5224" />
  </linearGradient>
  <linearGradient
     id="b"
     gradientUnits="userSpaceOnUse"
     x1="12"
     x2="112.04102"
     y1="60"
     y2="80.988281">
    <stop
       offset="0"
       stop-color="#77767b"
       id="stop5227" />
    <stop
       offset="0.384443"
       stop-color="#9a9996"
       id="stop5229" />
    <stop
       offset="0.720567"
       stop-color="#77767b"
       id="stop5231" />
    <stop
       offset="1"
       stop-color="#68666f"
       id="stop5233" />
  </linearGradient>
  <path
     id="rect1135"
     style="fill:#01021a;fill-opacity:1;stroke-width:4;stroke-linecap:round;stop-color:#000000"
     d="m 21.978484,11.984004 c -5.527661,0 -9.978496,4.460011 -9.978496,9.999972 v 86.032984 c 0,5.53996 4.450835,9.99997 9.978496,9.99997 h 84.042956 c 5.5277,0 9.97854,-4.46001 9.97854,-9.99997 V 35.928538 A 11.973368,12.000014 0 0 0 104.02659,23.928507 H 57.999997 A 6.4921144,6.5065619 0 0 1 52.201312,20.347789 L 50.697974,17.355058 A 9.7381057,9.7597768 0 0 0 41.99997,11.984004 Z"
     inkscape:label="Fondo" />
  <path
     id="rect1586"
     style="fill:url(#linearGradient2);fill-opacity:1;stroke-width:4;stroke-linecap:round;stop-color:#000000"
     d="m 65.978512,31.983995 c -2.746559,0 -5.227593,1.101405 -7.028817,2.889191 C 56.675736,37.130249 53.564524,39.984 50.316913,39.984 H 21.978484 c -5.527661,0 -9.978496,4.460012 -9.978496,9.999973 v 55.977537 c 0,5.53996 4.450835,9.99997 9.978496,9.99997 h 84.042956 c 5.5277,0 9.97854,-4.46001 9.97854,-9.99997 V 55.984012 49.983973 41.983968 c 0,-5.539962 -4.45084,-9.999973 -9.97854,-9.999973 z"
     inkscape:label="Cara" />
  <path
     fill-rule="evenodd"
     clip-rule="evenodd"
     d="m 64.013221,59.983963 c -8.854908,0 -16.01324,7.211104 -16.01324,16.132224 0,7.131126 4.586589,13.167476 10.949406,15.30393 0.795516,0.160611 1.086909,-0.347116 1.086909,-0.77421 0,-0.373994 -0.02622,-1.655932 -0.02622,-2.991625 -4.454496,0.961699 -5.382107,-1.923071 -5.382107,-1.923071 -0.715866,-1.869642 -1.776553,-2.350164 -1.776553,-2.350164 -1.457954,-0.98825 0.1062,-0.98825 0.1062,-0.98825 1.617254,0.106856 2.46587,1.655932 2.46587,1.655932 1.431405,2.45702 3.737974,1.762787 4.665911,1.335365 0.132422,-1.041676 0.556895,-1.762787 1.007589,-2.16333 -3.55278,-0.373994 -7.290754,-1.762788 -7.290754,-7.959421 0,-1.762788 0.635887,-3.205008 1.643476,-4.326662 -0.158972,-0.400544 -0.715866,-2.056804 0.1593,-4.273563 0,0 1.352081,-0.427422 4.40074,1.655932 a 15.395706,15.395706 0 0 1 4.003473,-0.534277 c 1.352083,0 2.730388,0.187161 4.003148,0.534277 3.048985,-2.083354 4.401067,-1.655932 4.401067,-1.655932 0.875165,2.216759 0.317944,3.873019 0.158972,4.273563 1.034139,1.121654 1.643804,2.563874 1.643804,4.326662 0,6.196633 -3.737974,7.558548 -7.317303,7.959421 0.583443,0.5074 1.086909,1.468769 1.086909,2.991297 0,2.163332 -0.02622,3.899568 -0.02622,4.433517 0,0.427423 0.291722,0.93515 1.08691,0.774866 6.362816,-2.137109 10.949406,-8.173131 10.949406,-15.304257 0.02622,-8.92112 -7.15833,-16.132224 -15.986689,-16.132224 z"
     fill="#ffffff"
     id="path1-6"
     style="fill:url(#linearGradient4);fill-opacity:1;stroke-width:0.327778"
     inkscape:label="Icono" />
  <path
     id="path19-9"
     style="display:inline;fill:url(#linearGradient21);fill-opacity:1;stroke-width:4;stroke-linecap:round;enable-background:new;stop-color:#000000"
     inkscape:label="Brillo"
     d="m 65.978996,31.984514 c -2.74656,0 -5.228077,1.100887 -7.029301,2.888672 -2.273959,2.257063 -5.385202,5.111328 -8.632813,5.111328 h -28.33789 c -5.527661,0 -9.978516,4.460038 -9.978516,10 v 3.998047 c 8.61e-4,-5.539217 4.45139,-9.998047 9.978516,-9.998047 h 28.33789 c 3.247611,0 6.358853,-2.854265 8.632813,-5.111328 1.801223,-1.787785 4.282741,-2.888672 7.029301,-2.888672 h 40.042964 c 5.52771,0 9.97852,4.460038 9.97852,10 v -4 c 0,-5.539962 -4.45082,-10 -9.97852,-10 z" />
</svg>
