<?xml version="1.0" encoding="UTF-8" standalone="no"?>
<svg
   height="128px"
   viewBox="0 0 128 128"
   width="128px"
   version="1.1"
   id="svg10"
   sodipodi:docname="folder-pictures.svg"
   inkscape:version="1.4.2 (ebf0e940d0, 2025-05-08)"
   xmlns:inkscape="http://www.inkscape.org/namespaces/inkscape"
   xmlns:sodipodi="http://sodipodi.sourceforge.net/DTD/sodipodi-0.dtd"
   xmlns:xlink="http://www.w3.org/1999/xlink"
   xmlns="http://www.w3.org/2000/svg"
   xmlns:svg="http://www.w3.org/2000/svg">
  <defs
     id="defs10">
    <linearGradient
       id="linearGradient14"
       inkscape:collect="always">
      <stop
         style="stop-color:#27aee9;stop-opacity:1;"
         offset="0"
         id="stop14" />
      <stop
         style="stop-color:#0669bc;stop-opacity:1;"
         offset="1"
         id="stop15" />
    </linearGradient>
    <linearGradient
       id="linearGradient12"
       inkscape:collect="always">
      <stop
         style="stop-color:#0272cb;stop-opacity:1;"
         offset="0"
         id="stop12" />
      <stop
         style="stop-color:#0768ba;stop-opacity:1;"
         offset="1"
         id="stop13" />
    </linearGradient>
    <linearGradient
       id="linearGradient10"
       inkscape:collect="always">
      <stop
         style="stop-color:#ffffff;stop-opacity:1;"
         offset="0"
         id="stop10" />
      <stop
         style="stop-color:#e5e5e5;stop-opacity:1;"
         offset="1"
         id="stop11" />
    </linearGradient>
    <linearGradient
       inkscape:collect="always"
       xlink:href="#linearGradient10"
       id="linearGradient11"
       x1="57"
       y1="65.875641"
       x2="71"
       y2="90.124359"
       gradientUnits="userSpaceOnUse" />
    <linearGradient
       inkscape:collect="always"
       xlink:href="#linearGradient20"
       id="linearGradient21"
       x1="11.999996"
       y1="42.983021"
       x2="116"
       y2="42.983021"
       gradientUnits="userSpaceOnUse"
       gradientTransform="translate(-9.73e-4,0.016005)" />
    <linearGradient
       id="linearGradient20"
       inkscape:collect="always">
      <stop
         style="stop-color:#ffffff;stop-opacity:0.5;"
         offset="0"
         id="stop20" />
      <stop
         style="stop-color:#ffffff;stop-opacity:0;"
         offset="1"
         id="stop21" />
    </linearGradient>
    <linearGradient
       inkscape:collect="always"
       xlink:href="#linearGradient12"
       id="linearGradient13"
       x1="64"
       y1="13.015625"
       x2="64"
       y2="117.01562"
       gradientUnits="userSpaceOnUse" />
    <linearGradient
       inkscape:collect="always"
       xlink:href="#linearGradient14"
       id="linearGradient15"
       x1="38"
       y1="28.95496"
       x2="90"
       y2="119.0216"
       gradientUnits="userSpaceOnUse" />
  </defs>
  <sodipodi:namedview
     id="namedview10"
     pagecolor="#ffffff"
     bordercolor="#000000"
     borderopacity="0.25"
     inkscape:showpageshadow="2"
     inkscape:pageopacity="0.0"
     inkscape:pagecheckerboard="0"
     inkscape:deskcolor="#d1d1d1"
     inkscape:zoom="4.125"
     inkscape:cx="63.393939"
     inkscape:cy="58.424242"
     inkscape:window-width="1366"
     inkscape:window-height="697"
     inkscape:window-x="0"
     inkscape:window-y="0"
     inkscape:window-maximized="1"
     inkscape:current-layer="svg10" />
  <linearGradient
     id="a"
     gradientTransform="matrix(0.45451 0 0 0.455522 -1210.292114 616.172607)"
     gradientUnits="userSpaceOnUse"
     x1="2689.251953"
     x2="2918.069824"
     y1="-1106.802979"
     y2="-1106.802979">
    <stop
       offset="0"
       stop-color="#62a0ea"
       id="stop1" />
    <stop
       offset="0.0576991"
       stop-color="#afd4ff"
       id="stop2" />
    <stop
       offset="0.122204"
       stop-color="#62a0ea"
       id="stop3" />
    <stop
       offset="0.873306"
       stop-color="#62a0ea"
       id="stop4" />
    <stop
       offset="0.955997"
       stop-color="#c0d5ea"
       id="stop5" />
    <stop
       offset="1"
       stop-color="#62a0ea"
       id="stop6" />
  </linearGradient>
  <path
     d="m 21.976562 12 c -5.527343 0 -9.976562 4.460938 -9.976562 10 v 86.03125 c 0 5.542969 4.449219 10 9.976562 10 h 84.042969 c 5.53125 0 9.980469 -4.457031 9.980469 -10 v -72.085938 c 0 -6.628906 -5.359375 -12 -11.972656 -12 h -46.027344 c -2.453125 0 -4.695312 -1.386718 -5.796875 -3.582031 l -1.503906 -2.992187 c -1.65625 -3.292969 -5.019531 -5.371094 -8.699219 -5.371094 z m 0 0"
     fill="#438de6"
     id="path6"
     inkscape:label="Fondo"
     style="fill:url(#linearGradient13)" />
  <path
     d="m 65.976562 32 c -2.746093 0 -5.226562 1.101562 -7.027343 2.890625 c -2.273438 2.253906 -5.382813 5.109375 -8.632813 5.109375 h -28.339844 c -5.527343 0 -9.976562 4.460938 -9.976562 10 v 55.976562 c 0 5.539063 4.449219 10 9.976562 10 h 84.042969 c 5.53125 0 9.980469 -4.460937 9.980469 -10 v -63.976562 c 0 -5.539062 -4.449219 -10 -9.980469 -10 z m 0 0"
     fill="#a4caee"
     id="path8"
     inkscape:label="Cara"
     style="fill:url(#linearGradient15)" />
  <path
     id="path19-9"
     style="display:inline;fill:url(#linearGradient21);fill-opacity:1;stroke-width:4;stroke-linecap:round;enable-background:new;stop-color:#000000"
     inkscape:label="Brillo"
     d="m 65.977543,32 c -2.74656,0 -5.228077,1.100887 -7.029301,2.888672 C 56.674283,37.145735 53.56304,40 50.315429,40 h -28.33789 c -5.527661,0 -9.978516,4.460038 -9.978516,10 v 3.998047 C 11.999884,48.45883 16.450413,44 21.977539,44 h 28.33789 c 3.247611,0 6.358853,-2.854265 8.632813,-5.111328 C 60.749465,37.100887 63.230983,36 65.977543,36 H 106.0205 c 5.52771,0 9.97852,4.460038 9.97852,10 v -4 c 0,-5.539962 -4.45082,-10 -9.97852,-10 z" />
  <path
     id="path9"
     d="M 56 64 C 52.710938 64 50 66.710938 50 70 L 50 86 C 50 89.289062 52.710938 92 56 92 L 72 92 C 75.289062 92 78 89.289062 78 86 L 78 70 C 78 66.710938 75.289062 64 72 64 L 56 64 z M 56 68 L 72 68 C 73.140625 68 74 68.859375 74 70 L 74 86 C 74 87.140625 73.140625 88 72 88 L 56 88 C 54.859375 88 54 87.140625 54 86 L 54 70 C 54 68.859375 54.859375 68 56 68 z M 60 72 C 58.898438 72 58 72.898438 58 74 C 58 75.101562 58.898438 76 60 76 C 61.101562 76 62 75.101562 62 74 C 62 72.898438 61.101562 72 60 72 z M 67 78 L 63 82 L 60 80 L 56 84 L 56 85 C 56 86 57 86 57 86 L 71 86 C 71 86 71.945312 85.929688 72 85 L 72 83 L 67 78 z "
     style="fill:url(#linearGradient11)"
     inkscape:label="Icono" />
</svg>
