<?xml version="1.0" encoding="UTF-8" standalone="no"?>
<svg
   height="128"
   viewBox="0 0 128 128"
   width="128"
   version="1.1"
   id="svg5248"
   sodipodi:docname="folder-temp.svg"
   inkscape:version="1.4.2 (ebf0e940d0, 2025-05-08)"
   xmlns:inkscape="http://www.inkscape.org/namespaces/inkscape"
   xmlns:sodipodi="http://sodipodi.sourceforge.net/DTD/sodipodi-0.dtd"
   xmlns:xlink="http://www.w3.org/1999/xlink"
   xmlns="http://www.w3.org/2000/svg"
   xmlns:svg="http://www.w3.org/2000/svg">
  <sodipodi:namedview
     id="namedview1"
     pagecolor="#ffffff"
     bordercolor="#000000"
     borderopacity="0.25"
     inkscape:showpageshadow="2"
     inkscape:pageopacity="0.0"
     inkscape:pagecheckerboard="0"
     inkscape:deskcolor="#d1d1d1"
     inkscape:zoom="2.9168155"
     inkscape:cx="40.969338"
     inkscape:cy="86.052752"
     inkscape:window-width="1366"
     inkscape:window-height="697"
     inkscape:window-x="0"
     inkscape:window-y="0"
     inkscape:window-maximized="1"
     inkscape:current-layer="svg5248" />
  <defs
     id="defs5252">
    <linearGradient
       id="linearGradient20"
       inkscape:collect="always">
      <stop
         style="stop-color:#ffffff;stop-opacity:0.5;"
         offset="0"
         id="stop20" />
      <stop
         style="stop-color:#ffffff;stop-opacity:0;"
         offset="1"
         id="stop21" />
    </linearGradient>
    <linearGradient
       id="linearGradient8"
       inkscape:collect="always">
      <stop
         style="stop-color:#939eb2;stop-opacity:1;"
         offset="0"
         id="stop9" />
      <stop
         style="stop-color:#6b7280;stop-opacity:1;"
         offset="1"
         id="stop8" />
    </linearGradient>
    <linearGradient
       id="linearGradient5"
       inkscape:collect="always">
      <stop
         style="stop-color:#ffffff;stop-opacity:1;"
         offset="0"
         id="stop5" />
      <stop
         style="stop-color:#f2f2f2;stop-opacity:1;"
         offset="1"
         id="stop6" />
    </linearGradient>
    <linearGradient
       id="linearGradient1"
       inkscape:collect="always">
      <stop
         style="stop-color:#6a7180;stop-opacity:1;"
         offset="0"
         id="stop1" />
      <stop
         style="stop-color:#555a66;stop-opacity:1;"
         offset="1"
         id="stop2" />
    </linearGradient>
    <linearGradient
       xlink:href="#linearGradient2023"
       id="linearGradient2025"
       x1="2689.252"
       y1="-1106.803"
       x2="2918.0698"
       y2="-1106.803"
       gradientUnits="userSpaceOnUse" />
    <linearGradient
       id="linearGradient2023">
      <stop
         style="stop-color:#62a0ea;stop-opacity:1;"
         offset="0"
         id="stop2019" />
      <stop
         style="stop-color:#afd4ff;stop-opacity:1;"
         offset="0.05769911"
         id="stop2795" />
      <stop
         style="stop-color:#62a0ea;stop-opacity:1;"
         offset="0.12220427"
         id="stop2797" />
      <stop
         style="stop-color:#62a0ea;stop-opacity:1;"
         offset="0.87330586"
         id="stop2793" />
      <stop
         style="stop-color:#c0d5ea;stop-opacity:1;"
         offset="0.95599729"
         id="stop2791" />
      <stop
         style="stop-color:#62a0ea;stop-opacity:1;"
         offset="1"
         id="stop2021" />
    </linearGradient>
    <clipPath
       id="s">
      <path
         d="M 0,0 H 1600 V 1200 H 0 Z"
         id="path18" />
    </clipPath>
    <mask
       id="r">
      <g
         filter="url(#a)"
         id="g17"
         style="filter:url(#a-2)">
        <path
           d="M 0,0 H 16 V 16 H 0 Z"
           fill-opacity="0.5"
           id="path17" />
      </g>
    </mask>
    <filter
       id="a-2"
       height="1"
       width="1"
       x="0"
       y="0">
      <feColorMatrix
         in="SourceGraphic"
         type="matrix"
         values="0 0 0 0 1 0 0 0 0 1 0 0 0 0 1 0 0 0 1 0"
         id="feColorMatrix1" />
    </filter>
    <clipPath
       id="q">
      <path
         d="M 0,0 H 1600 V 1200 H 0 Z"
         id="path16" />
    </clipPath>
    <mask
       id="p">
      <g
         filter="url(#a)"
         id="g15"
         style="filter:url(#a-2)">
        <path
           d="M 0,0 H 16 V 16 H 0 Z"
           fill-opacity="0.3"
           id="path15" />
      </g>
    </mask>
    <clipPath
       id="o">
      <path
         d="M 0,0 H 1600 V 1200 H 0 Z"
         id="path14" />
    </clipPath>
    <mask
       id="n">
      <g
         filter="url(#a)"
         id="g13"
         style="filter:url(#a-2)">
        <path
           d="M 0,0 H 16 V 16 H 0 Z"
           fill-opacity="0.05"
           id="path13" />
      </g>
    </mask>
    <clipPath
       id="m">
      <path
         d="M 0,0 H 1600 V 1200 H 0 Z"
         id="path12" />
    </clipPath>
    <mask
       id="l">
      <g
         filter="url(#a)"
         id="g11"
         style="filter:url(#a-2)">
        <path
           d="M 0,0 H 16 V 16 H 0 Z"
           fill-opacity="0.05"
           id="path11" />
      </g>
    </mask>
    <clipPath
       id="k">
      <path
         d="M 0,0 H 1600 V 1200 H 0 Z"
         id="path10" />
    </clipPath>
    <mask
       id="j">
      <g
         filter="url(#a)"
         id="g9"
         style="filter:url(#a-2)">
        <path
           d="M 0,0 H 16 V 16 H 0 Z"
           fill-opacity="0.05"
           id="path9" />
      </g>
    </mask>
    <clipPath
       id="i">
      <path
         d="M 0,0 H 1600 V 1200 H 0 Z"
         id="path8" />
    </clipPath>
    <mask
       id="h">
      <g
         filter="url(#a)"
         id="g7"
         style="filter:url(#a-2)">
        <path
           d="M 0,0 H 16 V 16 H 0 Z"
           fill-opacity="0.05"
           id="path7" />
      </g>
    </mask>
    <clipPath
       id="g">
      <path
         d="M 0,0 H 1600 V 1200 H 0 Z"
         id="path6" />
    </clipPath>
    <mask
       id="f">
      <g
         filter="url(#a)"
         id="g5"
         style="filter:url(#a-2)">
        <path
           d="M 0,0 H 16 V 16 H 0 Z"
           fill-opacity="0.05"
           id="path5" />
      </g>
    </mask>
    <clipPath
       id="e">
      <path
         d="M 0,0 H 1600 V 1200 H 0 Z"
         id="path4" />
    </clipPath>
    <mask
       id="d">
      <g
         filter="url(#a)"
         id="g3"
         style="filter:url(#a-2)">
        <path
           d="M 0,0 H 16 V 16 H 0 Z"
           fill-opacity="0.05"
           id="path3" />
      </g>
    </mask>
    <clipPath
       id="c">
      <path
         d="M 0,0 H 1600 V 1200 H 0 Z"
         id="path2-7" />
    </clipPath>
    <mask
       id="b-0">
      <g
         filter="url(#a)"
         id="g1"
         style="filter:url(#a-2)">
        <path
           d="M 0,0 H 16 V 16 H 0 Z"
           fill-opacity="0.3"
           id="path1" />
      </g>
    </mask>
    <linearGradient
       inkscape:collect="always"
       xlink:href="#linearGradient1"
       id="linearGradient2"
       x1="2741.5518"
       y1="-1326.3428"
       x2="2741.5518"
       y2="-1264.8524"
       gradientUnits="userSpaceOnUse" />
    <linearGradient
       inkscape:collect="always"
       xlink:href="#linearGradient8"
       id="linearGradient4"
       x1="2759.3196"
       y1="-1255.6255"
       x2="2856.0029"
       y2="-1088.1653"
       gradientUnits="userSpaceOnUse" />
    <linearGradient
       inkscape:collect="always"
       xlink:href="#linearGradient5"
       id="linearGradient6"
       x1="55.428555"
       y1="61.137814"
       x2="72.571411"
       y2="90.830109"
       gradientUnits="userSpaceOnUse" />
    <linearGradient
       inkscape:collect="always"
       xlink:href="#linearGradient20"
       id="linearGradient21"
       x1="11.999996"
       y1="42.983019"
       x2="116"
       y2="42.983019"
       gradientUnits="userSpaceOnUse" />
  </defs>
  <linearGradient
     id="a"
     gradientUnits="userSpaceOnUse"
     x1="11.999989"
     x2="115.99999"
     y1="64"
     y2="64">
    <stop
       offset="0"
       stop-color="#3d3846"
       id="stop5214" />
    <stop
       offset="0.05"
       stop-color="#77767b"
       id="stop5216" />
    <stop
       offset="0.1"
       stop-color="#5e5c64"
       id="stop5218" />
    <stop
       offset="0.899999"
       stop-color="#504e56"
       id="stop5220" />
    <stop
       offset="0.95"
       stop-color="#77767b"
       id="stop5222" />
    <stop
       offset="1"
       stop-color="#3d3846"
       id="stop5224" />
  </linearGradient>
  <linearGradient
     id="b"
     gradientUnits="userSpaceOnUse"
     x1="12"
     x2="112.04102"
     y1="60"
     y2="80.988281">
    <stop
       offset="0"
       stop-color="#77767b"
       id="stop5227" />
    <stop
       offset="0.384443"
       stop-color="#9a9996"
       id="stop5229" />
    <stop
       offset="0.720567"
       stop-color="#77767b"
       id="stop5231" />
    <stop
       offset="1"
       stop-color="#68666f"
       id="stop5233" />
  </linearGradient>
  <path
     id="rect1135"
     style="display:inline;stroke-width:8.79091;enable-background:new;fill:url(#linearGradient2);fill-opacity:1;stroke-linecap:round;stop-color:#000000"
     d="m 2711.2064,-1326.3316 c -12.1618,0 -21.9544,9.791 -21.9544,21.9528 v 188.867 c 0,12.1618 9.7926,21.9528 21.9544,21.9528 h 184.9089 c 12.1619,0 21.9545,-9.791 21.9545,-21.9528 v -158.2547 a 26.343462,26.343462 45 0 0 -26.3435,-26.3435 h -101.2664 a 14.283764,14.283764 31.638659 0 1 -12.7581,-7.8607 l -3.3076,-6.5699 a 21.425501,21.425501 31.638659 0 0 -19.1371,-11.791 z"
     transform="matrix(0.45451006,0,0,0.45552152,-1210.2921,616.15659)"
     inkscape:label="baste" />
  <path
     id="rect1586"
     style="display:inline;fill:url(#linearGradient4);fill-opacity:1;stroke-width:8.79091;stroke-linecap:round;enable-background:new;stop-color:#000000"
     d="m 2808.014,-1282.4259 c -6.0429,0 -11.5016,2.4179 -15.4646,6.3426 -5.0031,4.9549 -11.8483,11.2197 -18.9936,11.2197 h -62.3494 c -12.1618,0 -21.9544,9.791 -21.9544,21.9528 v 122.8867 c 0,12.1618 9.7926,21.9528 21.9544,21.9528 h 184.9089 c 12.1619,0 21.9545,-9.791 21.9545,-21.9528 v -109.7149 -13.1718 -17.5623 c 0,-12.1618 -9.7926,-21.9528 -21.9545,-21.9528 z"
     inkscape:label="cara"
     transform="matrix(0.45451006,0,0,0.45552152,-1210.2921,616.15659)"
     sodipodi:insensitive="true" />
  <path
     id="path19"
     style="display:inline;fill:url(#linearGradient21);fill-opacity:1;stroke-width:4;stroke-linecap:round;enable-background:new;stop-color:#000000"
     inkscape:label="brillo"
     d="m 65.978512,31.983995 c -2.746559,0 -5.228073,1.100887 -7.029297,2.888672 -2.273959,2.257063 -5.385202,5.111328 -8.632813,5.111328 h -28.33789 c -5.527661,0 -9.978516,4.460038 -9.978516,10 v 3.998047 c 8.61e-4,-5.539217 4.45139,-9.998047 9.978516,-9.998047 h 28.33789 c 3.247611,0 6.358853,-2.854265 8.632813,-5.111328 1.801223,-1.787785 4.282738,-2.888672 7.029297,-2.888672 h 40.042968 c 5.52771,0 9.97852,4.460038 9.97852,10 v -4 c 0,-5.539962 -4.45082,-10 -9.97852,-10 z" />
  <path
     id="path21"
     d="m 60.571419,69.126821 h 6.85714 l -3.42857,3 z m 0,0 m -13.71429,-9.142857 v 4.571429 h 4.57143 v 5.642857 l 6.85714,5.714285 v 0.142858 l -6.85714,5.714285 v 5.642857 h -4.57143 v 4.571429 h 34.28571 v -4.571429 h -4.57142 v -5.642857 l -6.85715,-5.714285 v -0.142858 l 6.85715,-5.714285 v -5.642857 h 4.57142 v -4.571429 z m 9.14286,4.571429 h 16 v 3.5 l -6.85715,5.714285 v 4.428572 l 6.85715,5.714285 v 3.5 h -2.28572 l -5.71428,-5 -5.71429,5 h -2.28571 v -3.5 l 6.85714,-5.714285 v -4.428572 l -6.85714,-5.714285 z m 0,0"
     style="fill:url(#linearGradient6);fill-opacity:1;stroke-width:2.28571"
     inkscape:label="icono" />
</svg>
