<?xml version="1.0" encoding="UTF-8" standalone="no"?>
<svg
   height="128"
   viewBox="0 0 128 128"
   width="128"
   version="1.1"
   id="svg5248"
   sodipodi:docname="folder-arduino.svg"
   inkscape:version="1.4.2 (ebf0e940d0, 2025-05-08)"
   xmlns:inkscape="http://www.inkscape.org/namespaces/inkscape"
   xmlns:sodipodi="http://sodipodi.sourceforge.net/DTD/sodipodi-0.dtd"
   xmlns:xlink="http://www.w3.org/1999/xlink"
   xmlns="http://www.w3.org/2000/svg"
   xmlns:svg="http://www.w3.org/2000/svg">
  <sodipodi:namedview
     id="namedview1"
     pagecolor="#ffffff"
     bordercolor="#000000"
     borderopacity="0.25"
     inkscape:showpageshadow="2"
     inkscape:pageopacity="0.0"
     inkscape:pagecheckerboard="0"
     inkscape:deskcolor="#d1d1d1"
     inkscape:zoom="2.0625"
     inkscape:cx="0.24242424"
     inkscape:cy="85.333333"
     inkscape:window-width="1366"
     inkscape:window-height="697"
     inkscape:window-x="0"
     inkscape:window-y="0"
     inkscape:window-maximized="1"
     inkscape:current-layer="svg5248" />
  <defs
     id="defs5252">
    <linearGradient
       id="linearGradient3"
       inkscape:collect="always">
      <stop
         style="stop-color:#00afb2;stop-opacity:1;"
         offset="0"
         id="stop3" />
      <stop
         style="stop-color:#008184;stop-opacity:1;"
         offset="1"
         id="stop4" />
    </linearGradient>
    <linearGradient
       id="linearGradient1"
       inkscape:collect="always">
      <stop
         style="stop-color:#ffffff;stop-opacity:1;"
         offset="0"
         id="stop1" />
      <stop
         style="stop-color:#e5e5e5;stop-opacity:1;"
         offset="1"
         id="stop2" />
    </linearGradient>
    <linearGradient
       xlink:href="#linearGradient2023"
       id="linearGradient2025"
       x1="2689.252"
       y1="-1106.803"
       x2="2918.0698"
       y2="-1106.803"
       gradientUnits="userSpaceOnUse" />
    <linearGradient
       id="linearGradient2023">
      <stop
         style="stop-color:#62a0ea;stop-opacity:1;"
         offset="0"
         id="stop2019" />
      <stop
         style="stop-color:#afd4ff;stop-opacity:1;"
         offset="0.05769911"
         id="stop2795" />
      <stop
         style="stop-color:#62a0ea;stop-opacity:1;"
         offset="0.12220427"
         id="stop2797" />
      <stop
         style="stop-color:#62a0ea;stop-opacity:1;"
         offset="0.87330586"
         id="stop2793" />
      <stop
         style="stop-color:#c0d5ea;stop-opacity:1;"
         offset="0.95599729"
         id="stop2791" />
      <stop
         style="stop-color:#62a0ea;stop-opacity:1;"
         offset="1"
         id="stop2021" />
    </linearGradient>
    <linearGradient
       inkscape:collect="always"
       xlink:href="#linearGradient20"
       id="linearGradient21"
       x1="11.999996"
       y1="42.983021"
       x2="116"
       y2="42.983021"
       gradientUnits="userSpaceOnUse"
       gradientTransform="translate(2.4130387e-4)" />
    <linearGradient
       id="linearGradient20"
       inkscape:collect="always">
      <stop
         style="stop-color:#ffffff;stop-opacity:0.5;"
         offset="0"
         id="stop20" />
      <stop
         style="stop-color:#ffffff;stop-opacity:0;"
         offset="1"
         id="stop21" />
    </linearGradient>
    <linearGradient
       inkscape:collect="always"
       xlink:href="#linearGradient1"
       id="linearGradient2"
       x1="50.5"
       y1="55.692722"
       x2="77.5"
       y2="102.45809"
       gradientUnits="userSpaceOnUse" />
    <linearGradient
       inkscape:collect="always"
       xlink:href="#linearGradient3"
       id="linearGradient4"
       x1="2746.4565"
       y1="-1289.3297"
       x2="2860.8652"
       y2="-1091.1676"
       gradientUnits="userSpaceOnUse" />
  </defs>
  <linearGradient
     id="a"
     gradientUnits="userSpaceOnUse"
     x1="11.999989"
     x2="115.99999"
     y1="64"
     y2="64">
    <stop
       offset="0"
       stop-color="#3d3846"
       id="stop5214" />
    <stop
       offset="0.05"
       stop-color="#77767b"
       id="stop5216" />
    <stop
       offset="0.1"
       stop-color="#5e5c64"
       id="stop5218" />
    <stop
       offset="0.899999"
       stop-color="#504e56"
       id="stop5220" />
    <stop
       offset="0.95"
       stop-color="#77767b"
       id="stop5222" />
    <stop
       offset="1"
       stop-color="#3d3846"
       id="stop5224" />
  </linearGradient>
  <linearGradient
     id="b"
     gradientUnits="userSpaceOnUse"
     x1="12"
     x2="112.04102"
     y1="60"
     y2="80.988281">
    <stop
       offset="0"
       stop-color="#77767b"
       id="stop5227" />
    <stop
       offset="0.384443"
       stop-color="#9a9996"
       id="stop5229" />
    <stop
       offset="0.720567"
       stop-color="#77767b"
       id="stop5231" />
    <stop
       offset="1"
       stop-color="#68666f"
       id="stop5233" />
  </linearGradient>
  <path
     id="rect1135"
     style="display:inline;stroke-width:8.79091;enable-background:new;fill:#00777a;fill-opacity:1;stroke-linecap:round;stop-color:#000000"
     d="m 2711.2064,-1326.3316 c -12.1618,0 -21.9544,9.791 -21.9544,21.9528 v 188.867 c 0,12.1618 9.7926,21.9528 21.9544,21.9528 h 184.9089 c 12.1619,0 21.9545,-9.791 21.9545,-21.9528 v -158.2547 a 26.343462,26.343462 45 0 0 -26.3435,-26.3435 h -101.2664 a 14.283764,14.283764 31.638659 0 1 -12.7581,-7.8607 l -3.3076,-6.5699 a 21.425501,21.425501 31.638659 0 0 -19.1371,-11.791 z"
     transform="matrix(0.45451006,0,0,0.45552152,-1210.2921,616.15659)"
     inkscape:label="Fondo" />
  <path
     id="rect1586"
     style="display:inline;stroke-width:8.79091;enable-background:new;fill:url(#linearGradient4);fill-opacity:1;stroke-linecap:round;stop-color:#000000"
     d="m 2808.014,-1282.4259 c -6.0429,0 -11.5016,2.4179 -15.4646,6.3426 -5.0031,4.9549 -11.8483,11.2197 -18.9936,11.2197 h -62.3494 c -12.1618,0 -21.9544,9.791 -21.9544,21.9528 v 122.8867 c 0,12.1618 9.7926,21.9528 21.9544,21.9528 h 184.9089 c 12.1619,0 21.9545,-9.791 21.9545,-21.9528 v -109.7149 -13.1718 -17.5623 c 0,-12.1618 -9.7926,-21.9528 -21.9545,-21.9528 z"
     transform="matrix(0.45451006,0,0,0.45552152,-1210.2921,616.15659)"
     inkscape:label="Cara" />
  <path
     id="path3"
     d="m 78.562409,80.338102 h 2.65757 v -2.549853 h -2.65757 v -2.765187 h -2.657571 v 2.765187 h -2.65723 v 2.549853 h 2.65723 v 2.765154 h 2.657571 z M 54.435252,77.788149 h -7.97252 v 2.549853 h 7.97252 z m 36.564747,1.274893 c 0,-7.122582 -5.9495,-12.862572 -13.28752,-12.862572 -0.67407,-0.01786 -1.3488,0.01814 -2.017211,0.107659 -5.739926,0.849949 -9.570347,4.890053 -11.695227,8.080172 -2.12486,-3.190119 -5.94964,-7.230223 -11.70096,-8.080172 -0.668459,-0.08967 -1.343,-0.125664 -2.0172,-0.107659 -7.32657,0 -13.28188,5.73999 -13.28188,12.862572 0,7.122549 5.95531,12.890889 13.28752,12.890889 0.673061,0.0081 1.34573,-0.03717 2.01156,-0.136017 5.74565,-0.849933 9.57042,-4.890012 11.69528,-8.074491 2.12489,3.184479 5.95531,7.224558 11.695238,8.074491 0.6684,0.08955 1.34314,0.125532 2.01721,0.107685 7.23023,-0.107658 13.28752,-5.847659 13.28752,-12.862557 z m -39.437557,8.187814 c -0.4557,0.08463 -0.91937,0.118829 -1.38257,0.102011 -4.78237,0 -8.71479,-3.717096 -8.71479,-8.289825 0,-4.57273 3.93242,-8.289858 8.82244,-8.289858 0.46351,-0.01772 0.92744,0.01842 1.38261,0.107685 5.42266,0.742277 8.71479,6.057285 9.78005,8.182173 -1.17291,2.124855 -4.46504,7.337883 -9.88774,8.187814 z m 14.90245,-8.187814 c 1.13327,-2.124888 4.340377,-7.439896 9.762967,-8.182173 0.4535,-0.0893 0.91533,-0.125404 1.37717,-0.107685 4.89001,0 8.8223,3.717128 8.8223,8.289858 0,4.572729 -3.93229,8.289825 -8.71485,8.289825 -0.46318,0.01682 -0.92668,-0.01739 -1.38251,-0.102011 -5.5247,-0.849931 -8.822467,-6.062959 -9.865077,-8.187814 z"
     style="fill:url(#linearGradient2);fill-opacity:1;stroke-width:0.333698"
     inkscape:label="Icono" />
  <path
     id="path19-9"
     style="display:inline;fill:url(#linearGradient21);fill-opacity:1;stroke-width:4;stroke-linecap:round;enable-background:new;stop-color:#000000"
     inkscape:label="Brillo"
     d="m 65.978757,31.984 c -2.74656,0 -5.228077,1.100887 -7.029301,2.888672 C 56.675497,37.129735 53.564254,39.984 50.316643,39.984 h -28.33789 c -5.527661,0 -9.978516,4.460038 -9.978516,10 v 3.998047 C 12.001098,48.44283 16.451627,43.984 21.978753,43.984 h 28.33789 c 3.247611,0 6.358853,-2.854265 8.632813,-5.111328 C 60.750679,37.084887 63.232197,35.984 65.978757,35.984 h 40.042963 c 5.52771,0 9.97852,4.460038 9.97852,10 v -4 c 0,-5.539962 -4.45082,-10 -9.97852,-10 z" />
</svg>
