<?xml version="1.0" encoding="UTF-8" standalone="no"?>
<svg
   height="128px"
   viewBox="0 0 128 128"
   width="128px"
   version="1.1"
   id="svg10"
   sodipodi:docname="folder-videos.svg"
   inkscape:version="1.4.2 (ebf0e940d0, 2025-05-08)"
   xmlns:inkscape="http://www.inkscape.org/namespaces/inkscape"
   xmlns:sodipodi="http://sodipodi.sourceforge.net/DTD/sodipodi-0.dtd"
   xmlns:xlink="http://www.w3.org/1999/xlink"
   xmlns="http://www.w3.org/2000/svg"
   xmlns:svg="http://www.w3.org/2000/svg">
  <defs
     id="defs10">
    <linearGradient
       id="linearGradient12"
       inkscape:collect="always">
      <stop
         style="stop-color:#ffffff;stop-opacity:1;"
         offset="0"
         id="stop13" />
      <stop
         style="stop-color:#e6e6e6;stop-opacity:1;"
         offset="1"
         id="stop12" />
    </linearGradient>
    <linearGradient
       id="linearGradient10"
       inkscape:collect="always">
      <stop
         style="stop-color:#b87bf7;stop-opacity:1;"
         offset="0"
         id="stop10" />
      <stop
         style="stop-color:#8e4beb;stop-opacity:1;"
         offset="1"
         id="stop11" />
    </linearGradient>
    <linearGradient
       inkscape:collect="always"
       xlink:href="#linearGradient20"
       id="linearGradient21"
       x1="11.999996"
       y1="42.983021"
       x2="116"
       y2="42.983021"
       gradientUnits="userSpaceOnUse"
       gradientTransform="translate(4e-6,0.017958)" />
    <linearGradient
       id="linearGradient20"
       inkscape:collect="always">
      <stop
         style="stop-color:#ffffff;stop-opacity:0.5;"
         offset="0"
         id="stop20" />
      <stop
         style="stop-color:#ffffff;stop-opacity:0;"
         offset="1"
         id="stop21" />
    </linearGradient>
    <linearGradient
       inkscape:collect="always"
       xlink:href="#linearGradient10"
       id="linearGradient11"
       x1="38"
       y1="28.95496"
       x2="90"
       y2="119.0216"
       gradientUnits="userSpaceOnUse" />
    <linearGradient
       inkscape:collect="always"
       xlink:href="#linearGradient12"
       id="linearGradient13"
       x1="56"
       y1="66.143593"
       x2="72"
       y2="93.856407"
       gradientUnits="userSpaceOnUse"
       gradientTransform="translate(-2e-7,-4.0117193)" />
  </defs>
  <sodipodi:namedview
     id="namedview10"
     pagecolor="#ffffff"
     bordercolor="#000000"
     borderopacity="0.25"
     inkscape:showpageshadow="2"
     inkscape:pageopacity="0.0"
     inkscape:pagecheckerboard="0"
     inkscape:deskcolor="#d1d1d1"
     inkscape:zoom="4.125"
     inkscape:cx="64"
     inkscape:cy="64"
     inkscape:window-width="1366"
     inkscape:window-height="697"
     inkscape:window-x="0"
     inkscape:window-y="0"
     inkscape:window-maximized="1"
     inkscape:current-layer="svg10" />
  <linearGradient
     id="a"
     gradientTransform="matrix(0.45451 0 0 0.455522 -1210.292114 616.172607)"
     gradientUnits="userSpaceOnUse"
     x1="2689.251953"
     x2="2918.069824"
     y1="-1106.802979"
     y2="-1106.802979">
    <stop
       offset="0"
       stop-color="#62a0ea"
       id="stop1" />
    <stop
       offset="0.0576991"
       stop-color="#afd4ff"
       id="stop2" />
    <stop
       offset="0.122204"
       stop-color="#62a0ea"
       id="stop3" />
    <stop
       offset="0.873306"
       stop-color="#62a0ea"
       id="stop4" />
    <stop
       offset="0.955997"
       stop-color="#c0d5ea"
       id="stop5" />
    <stop
       offset="1"
       stop-color="#62a0ea"
       id="stop6" />
  </linearGradient>
  <path
     d="m 21.976562 12 c -5.527343 0 -9.976562 4.460938 -9.976562 10 v 86.03125 c 0 5.542969 4.449219 10 9.976562 10 h 84.042969 c 5.53125 0 9.980469 -4.457031 9.980469 -10 v -72.085938 c 0 -6.628906 -5.359375 -12 -11.972656 -12 h -46.027344 c -2.453125 0 -4.695312 -1.386718 -5.796875 -3.582031 l -1.503906 -2.992187 c -1.65625 -3.292969 -5.019531 -5.371094 -8.699219 -5.371094 z m 0 0"
     fill="#438de6"
     id="path6"
     style="fill:#7b41cc;fill-opacity:1"
     inkscape:label="Fondo" />
  <path
     d="m 65.976562 32 c -2.746093 0 -5.226562 1.101562 -7.027343 2.890625 c -2.273438 2.253906 -5.382813 5.109375 -8.632813 5.109375 h -28.339844 c -5.527343 0 -9.976562 4.460938 -9.976562 10 v 55.976562 c 0 5.539063 4.449219 10 9.976562 10 h 84.042969 c 5.53125 0 9.980469 -4.460937 9.980469 -10 v -63.976562 c 0 -5.539062 -4.449219 -10 -9.980469 -10 z m 0 0"
     fill="#a4caee"
     id="path8"
     style="fill:url(#linearGradient11)"
     inkscape:label="Cara" />
  <path
     id="path19-9"
     style="display:inline;fill:url(#linearGradient21);fill-opacity:1;stroke-width:4;stroke-linecap:round;enable-background:new;stop-color:#000000"
     inkscape:label="Brillo"
     d="m 65.97852,32.001953 c -2.74656,0 -5.228077,1.100887 -7.029301,2.888672 -2.273959,2.257063 -5.385202,5.111328 -8.632813,5.111328 h -28.33789 c -5.527661,0 -9.978516,4.460038 -9.978516,10 V 54 c 8.61e-4,-5.539217 4.45139,-9.998047 9.978516,-9.998047 h 28.33789 c 3.247611,0 6.358853,-2.854265 8.632813,-5.111328 1.801223,-1.787785 4.282741,-2.888672 7.029301,-2.888672 h 40.04296 c 5.52771,0 9.97852,4.460038 9.97852,10 v -4 c 0,-5.539962 -4.45082,-10 -9.97852,-10 z" />
  <path
     id="path9"
     style="fill:url(#linearGradient13)"
     d="m 62,63.988281 c -3.289062,0 -6,2.710938 -6,6 v 3.435547 L 49.089844,67.949219 H 48 v 16.0625 h 1.035156 L 56,78.535156 v 3.453125 c 0,3.289062 2.710938,6 6,6 h 12 c 3.289062,0 6,-2.710938 6,-6 v -12 c 0,-3.289062 -2.710938,-6 -6,-6 z m 0,4 h 12 c 1.140625,0 2,0.859375 2,2 v 12 c 0,1.140625 -0.859375,2 -2,2 H 62 c -1.140625,0 -2,-0.859375 -2,-2 v -12 c 0,-1.140625 0.859375,-2 2,-2 z"
     inkscape:label="Icono" />
</svg>
