<?xml version="1.0" encoding="UTF-8" standalone="no"?>
<svg
   width="64"
   height="64"
   version="1.1"
   viewBox="0 0 16.933 16.933"
   id="svg30"
   sodipodi:docname="folder-torrent.svg"
   inkscape:version="1.4 (e7c3feb100, 2024-10-09)"
   xmlns:inkscape="http://www.inkscape.org/namespaces/inkscape"
   xmlns:sodipodi="http://sodipodi.sourceforge.net/DTD/sodipodi-0.dtd"
   xmlns:xlink="http://www.w3.org/1999/xlink"
   xmlns="http://www.w3.org/2000/svg"
   xmlns:svg="http://www.w3.org/2000/svg"
   xmlns:rdf="http://www.w3.org/1999/02/22-rdf-syntax-ns#"
   xmlns:cc="http://creativecommons.org/ns#"
   xmlns:dc="http://purl.org/dc/elements/1.1/">
  <sodipodi:namedview
     id="namedview30"
     pagecolor="#ffffff"
     bordercolor="#000000"
     borderopacity="0.25"
     inkscape:showpageshadow="2"
     inkscape:pageopacity="0.0"
     inkscape:pagecheckerboard="0"
     inkscape:deskcolor="#d1d1d1"
     inkscape:zoom="8.5"
     inkscape:cx="29.294118"
     inkscape:cy="40.235294"
     inkscape:window-width="1366"
     inkscape:window-height="703"
     inkscape:window-x="0"
     inkscape:window-y="0"
     inkscape:window-maximized="1"
     inkscape:current-layer="svg30" />
  <defs
     id="defs8">
    <linearGradient
       id="linearGradient30"
       inkscape:collect="always">
      <stop
         style="stop-color:#ffffff;stop-opacity:1;"
         offset="0"
         id="stop30" />
      <stop
         style="stop-color:#cdcdcd;stop-opacity:1;"
         offset="1"
         id="stop31" />
    </linearGradient>
    <style
       type="text/css"
       id="style1" />
    <linearGradient
       id="linearGradient1911"
       x1="25.085"
       x2="25.085"
       y1="24.031"
       y2="26.412"
       gradientTransform="translate(-17.897 -21.385)"
       gradientUnits="userSpaceOnUse">
      <stop
         stop-color="#fcbc19"
         stop-opacity=".99608"
         offset="0"
         id="stop1"
         style="stop-color:#8f76e4;stop-opacity:0.99607843;" />
      <stop
         stop-color="#f4b61f"
         offset="1"
         id="stop2"
         style="stop-color:#7660d6;stop-opacity:1;" />
    </linearGradient>
    <linearGradient
       id="linearGradient4625"
       x1=".52918"
       x2="16.404"
       y1="5.0665"
       y2="5.0665"
       gradientUnits="userSpaceOnUse">
      <stop
         stop-color="#b78815"
         offset="0"
         id="stop3" />
      <stop
         stop-color="#e2b24b"
         stop-opacity="0"
         offset="1"
         id="stop4" />
    </linearGradient>
    <linearGradient
       id="linearGradient1951"
       x1="100"
       x2="133.19"
       y1="17.453"
       y2="51.606"
       gradientTransform="matrix(.26458 0 0 .26458 -20.108 -.13539)"
       gradientUnits="userSpaceOnUse">
      <stop
         stop-color="#fce798"
         offset="0"
         id="stop5"
         style="stop-color:#8f76e4;stop-opacity:0.99607843;" />
      <stop
         stop-color="#ffc937"
         offset="1"
         id="stop6"
         style="stop-color:#593dbd;stop-opacity:0.99607843;" />
    </linearGradient>
    <linearGradient
       id="linearGradient11110"
       x1=".52917"
       x2="16.404"
       y1="5.3815"
       y2="5.3815"
       gradientUnits="userSpaceOnUse">
      <stop
         stop-color="#fff"
         offset="0"
         id="stop7" />
      <stop
         stop-color="#fff"
         stop-opacity="0"
         offset="1"
         id="stop8" />
    </linearGradient>
    <linearGradient
       id="_Linear2"
       x2="1"
       gradientTransform="matrix(0,5.3482887,-5.3482887,0,-109.88249,6.409799)"
       gradientUnits="userSpaceOnUse">
      <stop
         style="stop-color:rgb(18,108,152)"
         offset="0"
         id="stop5-3" />
      <stop
         style="stop-color:rgb(11,79,148)"
         offset="1"
         id="stop6-6" />
    </linearGradient>
    <linearGradient
       inkscape:collect="always"
       xlink:href="#linearGradient30"
       id="linearGradient31"
       x1="5.5291653"
       y1="8.1217613"
       x2="16.065994"
       y2="11.956854"
       gradientUnits="userSpaceOnUse"
       gradientTransform="matrix(0.94691025,0,0,0.94691025,0.87068992,0.32224745)" />
  </defs>
  <metadata
     id="metadata8">
    <rdf:RDF>
      <cc:Work
         rdf:about="">
        <dc:format>image/svg+xml</dc:format>
        <dc:type
           rdf:resource="http://purl.org/dc/dcmitype/StillImage" />
      </cc:Work>
    </rdf:RDF>
  </metadata>
  <path
     d="m1.1975 2.2489c-0.3653 0-0.66145 0.32575-0.66145 0.72759v2.9636c-0.0026 0.02629-0.0072 0.052-0.0072 0.07906v7.9373c0 0.40184 0.29614 0.72759 0.66144 0.72759h14.552c0.36531 0 0.66144-0.32575 0.66144-0.72759v-9.393c0-0.40184-0.29614-0.72759-0.66144-0.72759v5.16e-4h-8.1993l-0.89864-1.1095s-0.36607-0.478-1.0583-0.478h-1.3229z"
     color="#000000"
     color-rendering="auto"
     dominant-baseline="auto"
     fill="url(#linearGradient1911)"
     image-rendering="auto"
     shape-rendering="auto"
     solid-color="#000000"
     stop-color="#000000"
     style="font-feature-settings:normal;font-variant-alternates:normal;font-variant-caps:normal;font-variant-east-asian:normal;font-variant-ligatures:normal;font-variant-numeric:normal;font-variant-position:normal;font-variation-settings:normal;inline-size:0;isolation:auto;mix-blend-mode:normal;shape-margin:0;shape-padding:0;text-decoration-color:#000000;text-decoration-line:none;text-decoration-style:solid;text-indent:0;text-orientation:mixed;text-transform:none;white-space:normal"
     id="path8" />
  <g
     fill="#5e4aa6"
     stroke-width=".26458"
     id="g27">
    <circle
       cx="-330.35"
       cy="-328.38"
       r="0"
       id="circle8" />
    <circle
       cx="-312.11"
       cy="-326.25"
       r="0"
       id="circle9" />
    <circle
       cx="-306.02"
       cy="-333.07"
       r="0"
       id="circle10" />
    <circle
       cx="-308.84"
       cy="-326.01"
       r="0"
       id="circle11" />
    <g
       transform="translate(.000295 -.00032978)"
       id="g16">
      <circle
         cx="-330.35"
         cy="-328.38"
         r="0"
         id="circle12" />
      <circle
         cx="-312.11"
         cy="-326.25"
         r="0"
         id="circle13" />
      <circle
         cx="-306.02"
         cy="-333.07"
         r="0"
         id="circle14" />
      <circle
         cx="-308.84"
         cy="-326.01"
         r="0"
         id="circle15" />
      <circle
         cx="-328.8"
         cy="-330.45"
         r="0"
         id="circle16" />
    </g>
    <circle
       cx="-330.35"
       cy="-328.38"
       r="0"
       id="circle17" />
    <circle
       cx="-312.11"
       cy="-326.25"
       r="0"
       id="circle18" />
    <circle
       cx="-306.02"
       cy="-333.07"
       r="0"
       id="circle19" />
    <circle
       cx="-308.84"
       cy="-326.01"
       r="0"
       id="circle20" />
    <circle
       cx="-328.8"
       cy="-330.45"
       r="0"
       id="circle21" />
    <g
       transform="translate(2.95e-4,-3.2978e-4)"
       id="g26">
      <circle
         cx="-330.35"
         cy="-328.38"
         r="0"
         id="circle22" />
      <circle
         cx="-312.11"
         cy="-326.25"
         r="0"
         id="circle23" />
      <circle
         cx="-306.02"
         cy="-333.07"
         r="0"
         id="circle24" />
      <circle
         cx="-308.84"
         cy="-326.01"
         r="0"
         id="circle25" />
      <circle
         cx="-328.8"
         cy="-330.45"
         r="0"
         id="circle26" />
    </g>
  </g>
  <path
     d="m7.542 4.0979s-0.35919 0.47868-1.1575 0.79218c-0.03271 0.00587-0.06509 0.011575-0.10077 0.017052h-4.9608c-0.21986 0-0.41824 0.088552-0.56171 0.23202-0.13937 0.13936-0.22042 0.33333-0.2253 0.54569v0.51675c-0.0026 0.026291-0.0067 0.052014-0.0067 0.079064v7.3953c0 0.20092 0.07357 0.3825 0.19327 0.51417 0.1197 0.13167 0.28553 0.21342 0.46818 0.21342h14.552c0.18265 0 0.34796-0.08175 0.46766-0.21342 0.1197-0.13167 0.19378-0.31325 0.19378-0.51417v-8.851c0-0.20092-0.07408-0.38302-0.19378-0.51469-0.11945-0.13137-0.28449-0.21202-0.46665-0.21239h-7.4821z"
     fill="url(#linearGradient1951)"
     id="path29" />
  <path
     d="m7.542 4.0979s-0.35919 0.47868-1.1575 0.79218c-0.03271 0.00587-0.06509 0.011575-0.10077 0.017052h-4.9608c-0.21986 0-0.41824 0.088552-0.56171 0.23202-0.13937 0.13936-0.22041 0.33333-0.2253 0.54569v0.38446c0.0049-0.21236 0.08593-0.40633 0.2253-0.54569 0.14347-0.14347 0.34185-0.23202 0.56171-0.23202h4.9608c0.03568-0.00548 0.06806-0.011184 0.10077-0.017052 0.75911-0.26303 1.2883-0.79218 1.2883-0.79218h8.0707c0.18216 3.704e-4 0.34718 0.081016 0.46663 0.21239 0.1197 0.13167 0.19378 0.31377 0.19378 0.51469v-0.38446c0-0.20092-0.07408-0.38302-0.19378-0.51469-0.11945-0.13137-0.28447-0.21202-0.46663-0.21239h-7.4821zm-7.0062 2.1037c-0.0026 0.026291-0.0067 0.052013-0.0067 0.079063v0.38447c0-0.02705 0.0041-0.052773 0.0067-0.079063z"
     fill="url(#linearGradient11110)"
     opacity=".3"
     id="path30" />
  <path
     d="m 9.229727,6.3849914 c -1.8891034,0 -3.4435786,1.5544761 -3.4435786,3.4435792 0,1.8891024 1.5544752,3.4435794 3.4435786,3.4435794 H 16.40391 V 12.698452 H 9.229727 c -1.5744275,0 -2.8698833,-1.295453 -2.8698833,-2.8698814 0,-1.5744276 1.2954558,-2.8698829 2.8698833,-2.8698829 z m 0,0.8607196 c -1.4267154,0 -2.5828591,1.1561446 -2.5828591,2.5828596 0,1.4267144 1.1561437,2.5828604 2.5828591,2.5828604 H 16.40391 V 11.837383 H 9.229727 c -1.1095902,0 -2.0088127,-0.899222 -2.0088127,-2.0088124 0,-1.1095899 0.8992225,-2.0088129 2.0088127,-2.0088129 0.2978744,7.002e-4 0.5918975,0.067907 0.860719,0.1967162 V 7.3965733 C 9.8142745,7.2978657 9.5234014,7.2467603 9.229727,7.245711 Z m 0,0.8610701 c -0.9447266,0 -1.7217903,0.7770632 -1.7217903,1.7217895 0,0.9447274 0.7770637,1.7217904 1.7217903,1.7217904 H 16.40391 V 10.976314 H 9.229727 c -0.6297008,0 -1.148093,-0.518041 -1.148093,-1.1477434 0,-0.6297006 0.5183922,-1.147743 1.148093,-1.147743 0.4088333,3.497e-4 0.787914,0.2198183 0.992682,0.5736968 h 0.62795 C 10.608489,8.5691681 9.9567373,8.1078312 9.229727,8.1067811 Z"
     style="clip-rule:evenodd;fill:url(#linearGradient31);fill-rule:nonzero;stroke-width:0.350028;stroke-linejoin:round;stroke-miterlimit:2"
     id="path3"
     inkscape:label="Icon" />
</svg>
