<?xml version="1.0" encoding="UTF-8" standalone="no"?>
<svg
   width="64"
   height="64"
   version="1.1"
   id="svg15"
   sodipodi:docname="ca.desrt.dconf-editor.svg"
   inkscape:version="1.4.2 (ebf0e940d0, 2025-05-08)"
   xmlns:inkscape="http://www.inkscape.org/namespaces/inkscape"
   xmlns:sodipodi="http://sodipodi.sourceforge.net/DTD/sodipodi-0.dtd"
   xmlns="http://www.w3.org/2000/svg"
   xmlns:svg="http://www.w3.org/2000/svg">
  <defs
     id="defs15" />
  <sodipodi:namedview
     id="namedview15"
     pagecolor="#ffffff"
     bordercolor="#000000"
     borderopacity="0.25"
     inkscape:showpageshadow="2"
     inkscape:pageopacity="0.0"
     inkscape:pagecheckerboard="0"
     inkscape:deskcolor="#d1d1d1"
     inkscape:zoom="5.65625"
     inkscape:cx="32"
     inkscape:cy="32"
     inkscape:window-width="1366"
     inkscape:window-height="697"
     inkscape:window-x="0"
     inkscape:window-y="0"
     inkscape:window-maximized="1"
     inkscape:current-layer="svg15" />
  <path
     style="opacity:0.2"
     d="M 60,28.66 V 56.52 C 60,58.994063 58.071214,61 55.692308,61 H 8.3076923 C 5.9287859,61 4,58.994063 4,56.52 V 28.66 Z"
     id="path1" />
  <path
     style="fill:#e4e4e4"
     d="M 60,27.66 V 55.52 C 60,57.994063 58.071214,60 55.692308,60 H 8.3076923 C 5.9287859,60 4,57.994063 4,55.52 V 27.66 Z"
     id="path2" />
  <path
     style="fill:#cdcdcd"
     d="M 8.3076923,4 C 5.9203724,4 4,6.0209633 4,8.5333333 V 28 H 60 V 8.5333333 C 60,6.0209633 58.079626,4 55.692308,4 Z"
     id="path3" />
  <path
     style="fill:#9141ac;fill-opacity:1"
     d="M 46.429537,37 H 36.570462 C 32.941965,37 30,39.910817 30,43.501124 30,47.091425 32.941965,50 36.570462,50 h 9.859075 c 3.628496,0 5.070158,-2.908575 5.070158,-6.498876 C 51.499695,39.910817 50.058033,37 46.429537,37 Z"
     id="path4" />
  <path
     style="opacity:0.1"
     d="M 36.570312,37 C 32.941816,37 30,39.911646 30,43.501953 c 0,0.168962 0.0126,0.33429 0.02539,0.5 C 30.283794,40.645572 33.112075,38 36.570312,38 h 9.859376 c 3.458236,0 4.786213,2.645572 5.044616,6.001953 0.0128,-0.16571 0.02539,-0.331038 0.02539,-0.5 C 51.499695,39.911646 50.058183,37 46.429688,37 Z"
     id="path5" />
  <path
     style="opacity:0.2"
     d="M 40,44.5 C 40,48.089553 42.91058,51 46.500001,51 50.091639,51 53,48.089553 53,44.5 53,40.910447 50.091639,38 46.500001,38 42.91058,38 40,40.910447 40,44.5 Z m 0,0"
     id="path6" />
  <path
     style="fill:#ffffff"
     d="M 40,43.5 C 40,47.089553 42.91058,50 46.500001,50 50.091639,50 53,47.089553 53,43.5 53,39.910447 50.091639,37 46.500001,37 42.91058,37 40,39.910447 40,43.5 Z m 0,0"
     id="path7" />
  <path
     style="opacity:0.1"
     d="m 12.4375,37 h 13.125 C 25.804036,37 26,37.16797 26,37.375 v 3.25 C 26,40.83203 25.804036,41 25.5625,41 H 12.4375 C 12.195964,41 12,40.83203 12,40.625 v -3.25 C 12,37.16797 12.195964,37 12.4375,37 Z m 0,0"
     id="path8" />
  <path
     style="fill:#797979"
     d="m 21,12 h 4 v 4 h -4 z m 0,0"
     id="path9" />
  <path
     style="opacity:0.1"
     d="m 12.375,47 h 7.25 C 19.83203,47 20,47.16797 20,47.375 v 3.25 C 20,50.83203 19.83203,51 19.625,51 h -7.25 C 12.16797,51 12,50.83203 12,50.625 v -3.25 C 12,47.16797 12.16797,47 12.375,47 Z m 0,0"
     id="path10" />
  <path
     style="fill:#797979"
     d="m 37,12 h 15 v 4 H 37 Z m 0,0"
     id="path11" />
  <path
     style="opacity:0.2"
     d="m 32.666666,8 h 2.264975 L 30.264975,22 H 28 Z m 0,0"
     id="path12" />
  <path
     style="fill:#9141ac;fill-opacity:1"
     d="m 37,18 h 15 v 3 H 37 Z m 0,0"
     id="path13" />
  <path
     style="opacity:0.2"
     d="m 15.666666,8 h 2.20573 L 13.205729,22 H 11 Z m 0,0"
     id="path14" />
  <rect
     style="opacity:0.2"
     width="56"
     height="1"
     x="4"
     y="28"
     id="rect14" />
  <path
     style="fill:#ffffff;opacity:0.2"
     d="M 8.3085938 4 C 5.9212739 4 4 6.0208331 4 8.5332031 L 4 9.5332031 C 4 7.0208331 5.9212739 5 8.3085938 5 L 55.691406 5 C 58.078724 5 60 7.0208331 60 9.5332031 L 60 8.5332031 C 60 6.0208331 58.078724 4 55.691406 4 L 8.3085938 4 z"
     id="path15" />
</svg>
